# MagicaVoxel @ Ephtracy

# group
o 

# material
mtllib ConveyerBelt.mtl
usemtl palette

# normals
vn -1 0 0
vn 1 0 0
vn 0 0 1
vn 0 0 -1
vn 0 -1 0
vn 0 1 0

# texcoords
vt 0.306641 0.5
vt 0.826172 0.5
vt 0.833984 0.5
vt 0.837891 0.5
vt 0.892578 0.5

# verts
v -2 0.8 1.9
v -2 0.8 -1.9
v -2 0.9 2
v -2 0.9 1.9
v -2 0.9 1.8
v -2 0.9 1.5
v -2 0.9 0.7
v -2 0.9 0.4
v -2 0.9 -0.4
v -2 0.9 -0.7
v -2 0.9 -1.5
v -2 0.9 -1.8
v -2 0.9 -1.9
v -2 0.9 -2
v -2 1.2 2
v -2 1.2 1.9
v -2 1.2 1.8
v -2 1.2 1.5
v -2 1.2 0.7
v -2 1.2 0.4
v -2 1.2 -0.4
v -2 1.2 -0.7
v -2 1.2 -1.5
v -2 1.2 -1.8
v -2 1.2 -1.9
v -2 1.2 -2
v -2 1.3 1.9
v -2 1.3 -1.9
v -0.3 0 0.0999999
v -0.3 0 -0.1
v -0.3 0.8 0.0999999
v -0.3 0.8 -0.1
v -0.2 0 0.2
v -0.2 0 0.0999999
v -0.2 0 -0.1
v -0.2 0 -0.2
v -0.2 0.8 0.2
v -0.2 0.8 0.0999999
v -0.2 0.8 -0.1
v -0.2 0.8 -0.2
v -0.0999999 0 0.3
v -0.0999999 0 0.2
v -0.0999999 0 -0.2
v -0.0999999 0 -0.3
v -0.0999999 0.8 0.3
v -0.0999999 0.8 0.2
v -0.0999999 0.8 -0.2
v -0.0999999 0.8 -0.3
v 0.1 0 0.3
v 0.1 0 0.2
v 0.1 0 -0.2
v 0.1 0 -0.3
v 0.1 0.8 0.3
v 0.1 0.8 0.2
v 0.1 0.8 -0.2
v 0.1 0.8 -0.3
v 0.2 0 0.2
v 0.2 0 0.0999999
v 0.2 0 -0.1
v 0.2 0 -0.2
v 0.2 0.8 0.2
v 0.2 0.8 0.0999999
v 0.2 0.8 -0.1
v 0.2 0.8 -0.2
v 0.3 0 0.0999999
v 0.3 0 -0.1
v 0.3 0.8 0.0999999
v 0.3 0.8 -0.1
v 2 0.8 1.9
v 2 0.8 -1.9
v 2 0.9 2
v 2 0.9 1.9
v 2 0.9 1.8
v 2 0.9 1.5
v 2 0.9 0.7
v 2 0.9 0.4
v 2 0.9 -0.4
v 2 0.9 -0.7
v 2 0.9 -1.5
v 2 0.9 -1.8
v 2 0.9 -1.9
v 2 0.9 -2
v 2 1.2 2
v 2 1.2 1.9
v 2 1.2 1.8
v 2 1.2 1.5
v 2 1.2 0.7
v 2 1.2 0.4
v 2 1.2 -0.4
v 2 1.2 -0.7
v 2 1.2 -1.5
v 2 1.2 -1.8
v 2 1.2 -1.9
v 2 1.2 -2
v 2 1.3 1.9
v 2 1.3 -1.9
v -2 0.9 2
v -2 1.2 2
v 2 0.9 2
v 2 1.2 2
v -2 0.8 1.9
v -2 0.9 1.9
v -2 1.2 1.9
v -2 1.3 1.9
v 2 0.8 1.9
v 2 0.9 1.9
v 2 1.2 1.9
v 2 1.3 1.9
v -0.0999999 0 0.3
v -0.0999999 0.8 0.3
v 0.1 0 0.3
v 0.1 0.8 0.3
v -0.2 0 0.2
v -0.2 0.8 0.2
v -0.0999999 0 0.2
v -0.0999999 0.8 0.2
v 0.1 0 0.2
v 0.1 0.8 0.2
v 0.2 0 0.2
v 0.2 0.8 0.2
v -0.3 0 0.0999999
v -0.3 0.8 0.0999999
v -0.2 0 0.0999999
v -0.2 0.8 0.0999999
v 0.2 0 0.0999999
v 0.2 0.8 0.0999999
v 0.3 0 0.0999999
v 0.3 0.8 0.0999999
v -0.3 0 -0.1
v -0.3 0.8 -0.1
v -0.2 0 -0.1
v -0.2 0.8 -0.1
v 0.2 0 -0.1
v 0.2 0.8 -0.1
v 0.3 0 -0.1
v 0.3 0.8 -0.1
v -0.2 0 -0.2
v -0.2 0.8 -0.2
v -0.0999999 0 -0.2
v -0.0999999 0.8 -0.2
v 0.1 0 -0.2
v 0.1 0.8 -0.2
v 0.2 0 -0.2
v 0.2 0.8 -0.2
v -0.0999999 0 -0.3
v -0.0999999 0.8 -0.3
v 0.1 0 -0.3
v 0.1 0.8 -0.3
v -2 0.8 -1.9
v -2 0.9 -1.9
v -2 1.2 -1.9
v -2 1.3 -1.9
v 2 0.8 -1.9
v 2 0.9 -1.9
v 2 1.2 -1.9
v 2 1.3 -1.9
v -2 0.9 -2
v -2 1.2 -2
v 2 0.9 -2
v 2 1.2 -2
v -0.0999999 0 0.3
v 0.1 0 0.3
v -0.2 0 0.2
v -0.0999999 0 0.2
v 0.1 0 0.2
v 0.2 0 0.2
v -0.3 0 0.0999999
v -0.2 0 0.0999999
v 0.2 0 0.0999999
v 0.3 0 0.0999999
v -0.3 0 -0.1
v -0.2 0 -0.1
v 0.2 0 -0.1
v 0.3 0 -0.1
v -0.2 0 -0.2
v -0.0999999 0 -0.2
v 0.1 0 -0.2
v 0.2 0 -0.2
v -0.0999999 0 -0.3
v 0.1 0 -0.3
v -2 0.8 1.9
v 2 0.8 1.9
v -0.0999999 0.8 0.3
v 0.1 0.8 0.3
v -0.2 0.8 0.2
v -0.0999999 0.8 0.2
v 0.1 0.8 0.2
v 0.2 0.8 0.2
v -0.3 0.8 0.0999999
v -0.2 0.8 0.0999999
v 0.2 0.8 0.0999999
v 0.3 0.8 0.0999999
v -0.3 0.8 -0.1
v -0.2 0.8 -0.1
v 0.2 0.8 -0.1
v 0.3 0.8 -0.1
v -0.2 0.8 -0.2
v -0.0999999 0.8 -0.2
v 0.1 0.8 -0.2
v 0.2 0.8 -0.2
v -0.0999999 0.8 -0.3
v 0.1 0.8 -0.3
v -2 0.8 -1.9
v 2 0.8 -1.9
v -2 0.9 2
v 2 0.9 2
v -2 0.9 1.9
v 2 0.9 1.9
v -2 0.9 -1.9
v 2 0.9 -1.9
v -2 0.9 -2
v 2 0.9 -2
v -2 1.2 2
v 2 1.2 2
v -2 1.2 1.9
v 2 1.2 1.9
v -2 1.2 -1.9
v 2 1.2 -1.9
v -2 1.2 -2
v 2 1.2 -2
v -2 1.3 1.9
v 2 1.3 1.9
v -0.3 1.3 1.1
v 0.3 1.3 1.1
v -0.9 1.3 -0.2
v -0.3 1.3 -0.2
v 0.3 1.3 -0.2
v 0.9 1.3 -0.2
v -0.9 1.3 -0.4
v -0.8 1.3 -0.4
v 0.8 1.3 -0.4
v 0.9 1.3 -0.4
v -0.8 1.3 -0.5
v -0.7 1.3 -0.5
v 0.7 1.3 -0.5
v 0.8 1.3 -0.5
v -0.7 1.3 -0.6
v -0.6 1.3 -0.6
v 0.6 1.3 -0.6
v 0.7 1.3 -0.6
v -0.6 1.3 -0.7
v -0.5 1.3 -0.7
v 0.5 1.3 -0.7
v 0.6 1.3 -0.7
v -0.5 1.3 -0.8
v -0.4 1.3 -0.8
v 0.4 1.3 -0.8
v 0.5 1.3 -0.8
v -0.4 1.3 -0.9
v -0.3 1.3 -0.9
v 0.3 1.3 -0.9
v 0.4 1.3 -0.9
v -0.3 1.3 -1
v -0.2 1.3 -1
v 0.2 1.3 -1
v 0.3 1.3 -1
v -0.2 1.3 -1.1
v -0.0999999 1.3 -1.1
v 0.1 1.3 -1.1
v 0.2 1.3 -1.1
v -0.0999999 1.3 -1.2
v 0.1 1.3 -1.2
v -2 1.3 -1.9
v 2 1.3 -1.9

# faces
f 4/1/1 2/1/1 1/1/1
f 5/1/1 2/1/1 4/1/1
f 6/1/1 2/1/1 5/1/1
f 7/1/1 2/1/1 6/1/1
f 8/1/1 2/1/1 7/1/1
f 9/1/1 2/1/1 8/1/1
f 10/1/1 2/1/1 9/1/1
f 11/1/1 2/1/1 10/1/1
f 12/1/1 2/1/1 11/1/1
f 13/1/1 2/1/1 12/1/1
f 15/1/1 4/1/1 3/1/1
f 15/1/1 5/1/1 4/1/1
f 16/1/1 5/1/1 15/1/1
f 17/4/1 6/4/1 5/4/1
f 17/1/1 5/1/1 16/1/1
f 18/2/1 7/2/1 6/2/1
f 18/4/1 6/4/1 17/4/1
f 19/4/1 8/4/1 7/4/1
f 19/2/1 7/2/1 18/2/1
f 20/2/1 9/2/1 8/2/1
f 20/4/1 8/4/1 19/4/1
f 21/4/1 10/4/1 9/4/1
f 21/2/1 9/2/1 20/2/1
f 22/2/1 11/2/1 10/2/1
f 22/4/1 10/4/1 21/4/1
f 23/4/1 12/4/1 11/4/1
f 23/2/1 11/2/1 22/2/1
f 24/1/1 14/1/1 13/1/1
f 24/4/1 12/4/1 23/4/1
f 24/1/1 13/1/1 12/1/1
f 25/1/1 14/1/1 24/1/1
f 26/1/1 14/1/1 25/1/1
f 27/1/1 23/1/1 22/1/1
f 27/1/1 25/1/1 24/1/1
f 27/1/1 24/1/1 23/1/1
f 27/1/1 22/1/1 21/1/1
f 27/1/1 21/1/1 20/1/1
f 27/1/1 20/1/1 19/1/1
f 27/1/1 19/1/1 18/1/1
f 27/1/1 18/1/1 17/1/1
f 27/1/1 17/1/1 16/1/1
f 28/1/1 25/1/1 27/1/1
f 31/3/1 30/3/1 29/3/1
f 32/3/1 30/3/1 31/3/1
f 37/3/1 34/3/1 33/3/1
f 38/3/1 34/3/1 37/3/1
f 39/3/1 36/3/1 35/3/1
f 40/3/1 36/3/1 39/3/1
f 45/3/1 42/3/1 41/3/1
f 46/3/1 42/3/1 45/3/1
f 47/3/1 44/3/1 43/3/1
f 48/3/1 44/3/1 47/3/1
f 49/3/2 50/3/2 53/3/2
f 53/3/2 50/3/2 54/3/2
f 51/3/2 52/3/2 55/3/2
f 55/3/2 52/3/2 56/3/2
f 57/3/2 58/3/2 61/3/2
f 61/3/2 58/3/2 62/3/2
f 59/3/2 60/3/2 63/3/2
f 63/3/2 60/3/2 64/3/2
f 65/3/2 66/3/2 67/3/2
f 67/3/2 66/3/2 68/3/2
f 69/1/2 70/1/2 72/1/2
f 72/1/2 70/1/2 73/1/2
f 73/1/2 70/1/2 74/1/2
f 74/1/2 70/1/2 75/1/2
f 75/1/2 70/1/2 76/1/2
f 76/1/2 70/1/2 77/1/2
f 77/1/2 70/1/2 78/1/2
f 78/1/2 70/1/2 79/1/2
f 79/1/2 70/1/2 80/1/2
f 80/1/2 70/1/2 81/1/2
f 71/1/2 72/1/2 83/1/2
f 72/1/2 73/1/2 83/1/2
f 83/1/2 73/1/2 84/1/2
f 73/4/2 74/4/2 85/4/2
f 84/1/2 73/1/2 85/1/2
f 74/2/2 75/2/2 86/2/2
f 85/4/2 74/4/2 86/4/2
f 75/4/2 76/4/2 87/4/2
f 86/2/2 75/2/2 87/2/2
f 76/2/2 77/2/2 88/2/2
f 87/4/2 76/4/2 88/4/2
f 77/4/2 78/4/2 89/4/2
f 88/2/2 77/2/2 89/2/2
f 78/2/2 79/2/2 90/2/2
f 89/4/2 78/4/2 90/4/2
f 79/4/2 80/4/2 91/4/2
f 90/2/2 79/2/2 91/2/2
f 81/1/2 82/1/2 92/1/2
f 91/4/2 80/4/2 92/4/2
f 80/1/2 81/1/2 92/1/2
f 92/1/2 82/1/2 93/1/2
f 93/1/2 82/1/2 94/1/2
f 90/1/2 91/1/2 95/1/2
f 92/1/2 93/1/2 95/1/2
f 91/1/2 92/1/2 95/1/2
f 89/1/2 90/1/2 95/1/2
f 88/1/2 89/1/2 95/1/2
f 87/1/2 88/1/2 95/1/2
f 86/1/2 87/1/2 95/1/2
f 85/1/2 86/1/2 95/1/2
f 84/1/2 85/1/2 95/1/2
f 95/1/2 93/1/2 96/1/2
f 99/1/3 98/1/3 97/1/3
f 100/1/3 98/1/3 99/1/3
f 105/1/3 102/1/3 101/1/3
f 106/1/3 102/1/3 105/1/3
f 107/1/3 104/1/3 103/1/3
f 108/1/3 104/1/3 107/1/3
f 111/3/3 110/3/3 109/3/3
f 112/3/3 110/3/3 111/3/3
f 115/3/3 114/3/3 113/3/3
f 116/3/3 114/3/3 115/3/3
f 119/3/3 118/3/3 117/3/3
f 120/3/3 118/3/3 119/3/3
f 123/3/3 122/3/3 121/3/3
f 124/3/3 122/3/3 123/3/3
f 127/3/3 126/3/3 125/3/3
f 128/3/3 126/3/3 127/3/3
f 129/3/4 130/3/4 131/3/4
f 131/3/4 130/3/4 132/3/4
f 133/3/4 134/3/4 135/3/4
f 135/3/4 134/3/4 136/3/4
f 137/3/4 138/3/4 139/3/4
f 139/3/4 138/3/4 140/3/4
f 141/3/4 142/3/4 143/3/4
f 143/3/4 142/3/4 144/3/4
f 145/3/4 146/3/4 147/3/4
f 147/3/4 146/3/4 148/3/4
f 149/1/4 150/1/4 153/1/4
f 153/1/4 150/1/4 154/1/4
f 151/1/4 152/1/4 155/1/4
f 155/1/4 152/1/4 156/1/4
f 157/1/4 158/1/4 159/1/4
f 159/1/4 158/1/4 160/1/4
f 164/3/5 162/3/5 161/3/5
f 165/3/5 162/3/5 164/3/5
f 168/3/5 164/3/5 163/3/5
f 168/3/5 166/3/5 165/3/5
f 168/3/5 165/3/5 164/3/5
f 169/3/5 166/3/5 168/3/5
f 171/3/5 168/3/5 167/3/5
f 171/3/5 170/3/5 169/3/5
f 171/3/5 169/3/5 168/3/5
f 172/3/5 170/3/5 171/3/5
f 173/3/5 170/3/5 172/3/5
f 174/3/5 170/3/5 173/3/5
f 175/3/5 173/3/5 172/3/5
f 176/3/5 173/3/5 175/3/5
f 177/3/5 173/3/5 176/3/5
f 178/3/5 173/3/5 177/3/5
f 179/3/5 177/3/5 176/3/5
f 180/3/5 177/3/5 179/3/5
f 183/1/5 182/1/5 181/1/5
f 184/1/5 182/1/5 183/1/5
f 185/1/5 183/1/5 181/1/5
f 186/1/5 183/1/5 185/1/5
f 187/1/5 182/1/5 184/1/5
f 188/1/5 182/1/5 187/1/5
f 189/1/5 185/1/5 181/1/5
f 190/1/5 185/1/5 189/1/5
f 191/1/5 182/1/5 188/1/5
f 192/1/5 182/1/5 191/1/5
f 193/1/5 189/1/5 181/1/5
f 196/1/5 182/1/5 192/1/5
f 197/1/5 194/1/5 193/1/5
f 200/1/5 196/1/5 195/1/5
f 201/1/5 198/1/5 197/1/5
f 202/1/5 200/1/5 199/1/5
f 203/1/5 201/1/5 197/1/5
f 203/1/5 202/1/5 201/1/5
f 203/1/5 193/1/5 181/1/5
f 203/1/5 197/1/5 193/1/5
f 204/1/5 200/1/5 202/1/5
f 204/1/5 202/1/5 203/1/5
f 204/1/5 182/1/5 196/1/5
f 204/1/5 196/1/5 200/1/5
f 207/1/5 206/1/5 205/1/5
f 208/1/5 206/1/5 207/1/5
f 211/1/5 210/1/5 209/1/5
f 212/1/5 210/1/5 211/1/5
f 213/1/6 214/1/6 215/1/6
f 215/1/6 214/1/6 216/1/6
f 217/1/6 218/1/6 219/1/6
f 219/1/6 218/1/6 220/1/6
f 221/1/6 222/1/6 223/1/6
f 223/1/6 222/1/6 224/1/6
f 221/1/6 223/1/6 225/1/6
f 223/5/6 224/5/6 226/5/6
f 225/1/6 223/1/6 226/1/6
f 224/1/6 222/1/6 227/1/6
f 226/5/6 224/5/6 227/5/6
f 227/1/6 222/1/6 228/1/6
f 225/5/6 226/5/6 229/5/6
f 221/1/6 225/1/6 229/1/6
f 227/5/6 228/5/6 229/5/6
f 226/5/6 227/5/6 229/5/6
f 229/5/6 228/5/6 230/5/6
f 230/5/6 228/5/6 231/5/6
f 228/1/6 222/1/6 232/1/6
f 231/5/6 228/5/6 232/5/6
f 230/5/6 231/5/6 233/5/6
f 229/1/6 230/1/6 233/1/6
f 233/5/6 231/5/6 234/5/6
f 234/5/6 231/5/6 235/5/6
f 231/1/6 232/1/6 236/1/6
f 235/5/6 231/5/6 236/5/6
f 234/5/6 235/5/6 237/5/6
f 233/1/6 234/1/6 237/1/6
f 237/5/6 235/5/6 238/5/6
f 238/5/6 235/5/6 239/5/6
f 235/1/6 236/1/6 240/1/6
f 239/5/6 235/5/6 240/5/6
f 238/5/6 239/5/6 241/5/6
f 237/1/6 238/1/6 241/1/6
f 241/5/6 239/5/6 242/5/6
f 242/5/6 239/5/6 243/5/6
f 239/1/6 240/1/6 244/1/6
f 243/5/6 239/5/6 244/5/6
f 242/5/6 243/5/6 245/5/6
f 241/1/6 242/1/6 245/1/6
f 245/5/6 243/5/6 246/5/6
f 246/5/6 243/5/6 247/5/6
f 243/1/6 244/1/6 248/1/6
f 247/5/6 243/5/6 248/5/6
f 246/5/6 247/5/6 249/5/6
f 245/1/6 246/1/6 249/1/6
f 249/5/6 247/5/6 250/5/6
f 250/5/6 247/5/6 251/5/6
f 247/1/6 248/1/6 252/1/6
f 251/5/6 247/5/6 252/5/6
f 250/5/6 251/5/6 253/5/6
f 249/1/6 250/1/6 253/1/6
f 253/5/6 251/5/6 254/5/6
f 254/5/6 251/5/6 255/5/6
f 251/1/6 252/1/6 256/1/6
f 255/5/6 251/5/6 256/5/6
f 254/5/6 255/5/6 257/5/6
f 253/1/6 254/1/6 257/1/6
f 257/5/6 255/5/6 258/5/6
f 258/5/6 255/5/6 259/5/6
f 255/1/6 256/1/6 260/1/6
f 259/5/6 255/5/6 260/5/6
f 258/5/6 259/5/6 261/5/6
f 257/1/6 258/1/6 261/1/6
f 259/1/6 260/1/6 262/1/6
f 261/5/6 259/5/6 262/5/6
f 221/1/6 229/1/6 263/1/6
f 229/1/6 233/1/6 263/1/6
f 261/1/6 262/1/6 263/1/6
f 257/1/6 261/1/6 263/1/6
f 253/1/6 257/1/6 263/1/6
f 233/1/6 237/1/6 263/1/6
f 249/1/6 253/1/6 263/1/6
f 237/1/6 241/1/6 263/1/6
f 245/1/6 249/1/6 263/1/6
f 241/1/6 245/1/6 263/1/6
f 232/1/6 222/1/6 264/1/6
f 263/1/6 262/1/6 264/1/6
f 262/1/6 260/1/6 264/1/6
f 248/1/6 244/1/6 264/1/6
f 252/1/6 248/1/6 264/1/6
f 244/1/6 240/1/6 264/1/6
f 256/1/6 252/1/6 264/1/6
f 240/1/6 236/1/6 264/1/6
f 260/1/6 256/1/6 264/1/6
f 236/1/6 232/1/6 264/1/6
