# MagicaVoxel @ Ephtracy

# group
o 

# material
mtllib Drill_LOD0.mtl
usemtl palette

# normals
vn -1 0 0
vn 1 0 0
vn 0 0 1
vn 0 0 -1
vn 0 -1 0
vn 0 1 0

# texcoords
vt 0.822266 0.5
vt 0.830078 0.5
vt 0.837891 0.5
vt 0.880859 0.5
vt 0.904297 0.5

# verts
v -1.5 0 1.5
v -1.5 0 1.3
v -1.5 0 -1.3
v -1.5 0 -1.5
v -1.5 0.2 1.5
v -1.5 0.2 1.3
v -1.5 0.2 -1.3
v -1.5 0.2 -1.5
v -1.5 1.6 1.5
v -1.5 1.6 1.3
v -1.5 1.6 -1.3
v -1.5 1.6 -1.5
v -1.5 1.8 1.5
v -1.5 1.8 1.3
v -1.5 1.8 -1.3
v -1.5 1.8 -1.5
v -1.4 1.6 1.3
v -1.4 1.6 1.2
v -1.4 1.6 -1.2
v -1.4 1.6 -1.3
v -1.4 1.8 1.4
v -1.4 1.8 1.3
v -1.4 1.8 1.2
v -1.4 1.8 -1.2
v -1.4 1.8 -1.3
v -1.4 1.8 -1.4
v -1.4 3.9 1.2
v -1.4 3.9 -1.2
v -1.4 4.9 1.4
v -1.4 4.9 -1.4
v -1.4 5.3 1.4
v -1.4 5.3 -1.4
v -1.4 6.3 1.4
v -1.4 6.3 -1.4
v -0.1 0.2 0.1
v -0.1 0.2 -0.1
v -0.1 0.3 0.1
v -0.1 0.3 -0.1
v -0.1 0.4 0.1
v -0.1 0.4 -0.1
v -0.1 0.6 0.1
v -0.1 0.6 -0.1
v -0.1 0.7 0.1
v -0.1 0.7 -0.1
v -0.1 0.9 0.1
v -0.1 0.9 -0.1
v -0.1 1 0.1
v -0.1 1 -0.1
v -0.1 1.2 0.1
v -0.1 1.2 -0.1
v -0.1 1.3 0.1
v -0.1 1.3 -0.1
v -0.1 1.5 0.1
v -0.1 1.5 -0.1
v -0.1 1.6 0.1
v -0.1 1.6 -0.1
v -0.1 1.8 0.1
v -0.1 1.8 -0.1
v -0.1 1.9 0.1
v -0.1 1.9 -0.1
v -0.1 2.1 0.1
v -0.1 2.1 -0.1
v -0.1 2.2 0.1
v -0.1 2.2 -0.1
v -0.1 2.4 0.1
v -0.1 2.4 -0.1
v -0.1 2.5 0.1
v -0.1 2.5 -0.1
v -0.1 2.7 0.1
v -0.1 2.7 -0.1
v -0.1 2.8 0.1
v -0.1 2.8 -0.1
v -0.1 3 0.1
v -0.1 3 -0.1
v -0.1 3.1 0.1
v -0.1 3.1 -0.1
v -0.1 3.3 0.1
v -0.1 3.3 -0.1
v -0.1 3.4 0.1
v -0.1 3.4 -0.1
v -0.1 3.6 0.1
v -0.1 3.6 -0.1
v -0.1 3.7 0.1
v -0.1 3.7 -0.1
v -0.1 3.9 0.1
v -0.1 3.9 -0.1
v 1.2 1.6 1.4
v 1.2 1.6 1.2
v 1.2 1.6 -1.2
v 1.2 1.6 -1.4
v 1.2 1.8 1.4
v 1.2 1.8 1.2
v 1.2 1.8 -1.2
v 1.2 1.8 -1.4
v 1.2 3.9 1.4
v 1.2 3.9 1.2
v 1.2 3.9 -1.2
v 1.2 3.9 -1.4
v 1.3 0 1.5
v 1.3 0 1.3
v 1.3 0 -1.3
v 1.3 0 -1.5
v 1.3 0.2 1.5
v 1.3 0.2 1.3
v 1.3 0.2 -1.3
v 1.3 0.2 -1.5
v 1.3 1.6 1.5
v 1.3 1.6 1.4
v 1.3 1.6 1.3
v 1.3 1.6 -1.3
v 1.3 1.6 -1.4
v 1.3 1.6 -1.5
v 1.3 1.8 1.5
v 1.3 1.8 1.4
v 1.3 1.8 -1.4
v 1.3 1.8 -1.5
v -1.3 0 1.5
v -1.3 0 1.3
v -1.3 0 -1.3
v -1.3 0 -1.5
v -1.3 0.2 1.5
v -1.3 0.2 1.3
v -1.3 0.2 -1.3
v -1.3 0.2 -1.5
v -1.3 1.6 1.5
v -1.3 1.6 1.4
v -1.3 1.6 1.3
v -1.3 1.6 -1.3
v -1.3 1.6 -1.4
v -1.3 1.6 -1.5
v -1.3 1.8 1.5
v -1.3 1.8 1.4
v -1.3 1.8 -1.4
v -1.3 1.8 -1.5
v -1.2 1.6 1.4
v -1.2 1.6 1.2
v -1.2 1.6 -1.2
v -1.2 1.6 -1.4
v -1.2 1.8 1.4
v -1.2 1.8 1.2
v -1.2 1.8 -1.2
v -1.2 1.8 -1.4
v -1.2 3.9 1.4
v -1.2 3.9 1.2
v -1.2 3.9 -1.2
v -1.2 3.9 -1.4
v 0.1 0.2 0.1
v 0.1 0.2 -0.1
v 0.1 0.3 0.1
v 0.1 0.3 -0.1
v 0.1 0.4 0.1
v 0.1 0.4 -0.1
v 0.1 0.6 0.1
v 0.1 0.6 -0.1
v 0.1 0.7 0.1
v 0.1 0.7 -0.1
v 0.1 0.9 0.1
v 0.1 0.9 -0.1
v 0.1 1 0.1
v 0.1 1 -0.1
v 0.1 1.2 0.1
v 0.1 1.2 -0.1
v 0.1 1.3 0.1
v 0.1 1.3 -0.1
v 0.1 1.5 0.1
v 0.1 1.5 -0.1
v 0.1 1.6 0.1
v 0.1 1.6 -0.1
v 0.1 1.8 0.1
v 0.1 1.8 -0.1
v 0.1 1.9 0.1
v 0.1 1.9 -0.1
v 0.1 2.1 0.1
v 0.1 2.1 -0.1
v 0.1 2.2 0.1
v 0.1 2.2 -0.1
v 0.1 2.4 0.1
v 0.1 2.4 -0.1
v 0.1 2.5 0.1
v 0.1 2.5 -0.1
v 0.1 2.7 0.1
v 0.1 2.7 -0.1
v 0.1 2.8 0.1
v 0.1 2.8 -0.1
v 0.1 3 0.1
v 0.1 3 -0.1
v 0.1 3.1 0.1
v 0.1 3.1 -0.1
v 0.1 3.3 0.1
v 0.1 3.3 -0.1
v 0.1 3.4 0.1
v 0.1 3.4 -0.1
v 0.1 3.6 0.1
v 0.1 3.6 -0.1
v 0.1 3.7 0.1
v 0.1 3.7 -0.1
v 0.1 3.9 0.1
v 0.1 3.9 -0.1
v 1.4 1.6 1.3
v 1.4 1.6 1.2
v 1.4 1.6 -1.2
v 1.4 1.6 -1.3
v 1.4 1.8 1.4
v 1.4 1.8 1.3
v 1.4 1.8 1.2
v 1.4 1.8 -1.2
v 1.4 1.8 -1.3
v 1.4 1.8 -1.4
v 1.4 3.9 1.2
v 1.4 3.9 -1.2
v 1.4 4.9 1.4
v 1.4 4.9 -1.4
v 1.4 5.3 1.4
v 1.4 5.3 -1.4
v 1.4 6.3 1.4
v 1.4 6.3 -1.4
v 1.5 0 1.5
v 1.5 0 1.3
v 1.5 0 -1.3
v 1.5 0 -1.5
v 1.5 0.2 1.5
v 1.5 0.2 1.3
v 1.5 0.2 -1.3
v 1.5 0.2 -1.5
v 1.5 1.6 1.5
v 1.5 1.6 1.3
v 1.5 1.6 -1.3
v 1.5 1.6 -1.5
v 1.5 1.8 1.5
v 1.5 1.8 1.3
v 1.5 1.8 -1.3
v 1.5 1.8 -1.5
v -1.5 0 1.5
v -1.5 0.2 1.5
v -1.5 1.6 1.5
v -1.5 1.8 1.5
v -1.3 0 1.5
v -1.3 0.2 1.5
v -1.3 1.6 1.5
v -1.3 1.8 1.5
v 1.3 0 1.5
v 1.3 0.2 1.5
v 1.3 1.6 1.5
v 1.3 1.8 1.5
v 1.5 0 1.5
v 1.5 0.2 1.5
v 1.5 1.6 1.5
v 1.5 1.8 1.5
v -1.4 1.8 1.4
v -1.4 4.9 1.4
v -1.4 5.3 1.4
v -1.4 6.3 1.4
v -1.3 1.6 1.4
v -1.3 1.8 1.4
v -1.2 1.6 1.4
v -1.2 1.8 1.4
v -1.2 3.9 1.4
v 1.2 1.6 1.4
v 1.2 1.8 1.4
v 1.2 3.9 1.4
v 1.3 1.6 1.4
v 1.3 1.8 1.4
v 1.4 1.8 1.4
v 1.4 4.9 1.4
v 1.4 5.3 1.4
v 1.4 6.3 1.4
v -0.1 0.2 0.1
v -0.1 0.3 0.1
v -0.1 0.4 0.1
v -0.1 0.6 0.1
v -0.1 0.7 0.1
v -0.1 0.9 0.1
v -0.1 1 0.1
v -0.1 1.2 0.1
v -0.1 1.3 0.1
v -0.1 1.5 0.1
v -0.1 1.6 0.1
v -0.1 1.8 0.1
v -0.1 1.9 0.1
v -0.1 2.1 0.1
v -0.1 2.2 0.1
v -0.1 2.4 0.1
v -0.1 2.5 0.1
v -0.1 2.7 0.1
v -0.1 2.8 0.1
v -0.1 3 0.1
v -0.1 3.1 0.1
v -0.1 3.3 0.1
v -0.1 3.4 0.1
v -0.1 3.6 0.1
v -0.1 3.7 0.1
v -0.1 3.9 0.1
v 0.1 0.2 0.1
v 0.1 0.3 0.1
v 0.1 0.4 0.1
v 0.1 0.6 0.1
v 0.1 0.7 0.1
v 0.1 0.9 0.1
v 0.1 1 0.1
v 0.1 1.2 0.1
v 0.1 1.3 0.1
v 0.1 1.5 0.1
v 0.1 1.6 0.1
v 0.1 1.8 0.1
v 0.1 1.9 0.1
v 0.1 2.1 0.1
v 0.1 2.2 0.1
v 0.1 2.4 0.1
v 0.1 2.5 0.1
v 0.1 2.7 0.1
v 0.1 2.8 0.1
v 0.1 3 0.1
v 0.1 3.1 0.1
v 0.1 3.3 0.1
v 0.1 3.4 0.1
v 0.1 3.6 0.1
v 0.1 3.7 0.1
v 0.1 3.9 0.1
v -1.4 1.6 -1.2
v -1.4 1.8 -1.2
v -1.4 3.9 -1.2
v -1.2 1.6 -1.2
v -1.2 1.8 -1.2
v -1.2 3.9 -1.2
v 1.2 1.6 -1.2
v 1.2 1.8 -1.2
v 1.2 3.9 -1.2
v 1.4 1.6 -1.2
v 1.4 1.8 -1.2
v 1.4 3.9 -1.2
v -1.5 0 -1.3
v -1.5 0.2 -1.3
v -1.5 1.6 -1.3
v -1.5 1.8 -1.3
v -1.4 1.6 -1.3
v -1.4 1.8 -1.3
v -1.3 0 -1.3
v -1.3 0.2 -1.3
v -1.3 1.6 -1.3
v 1.3 0 -1.3
v 1.3 0.2 -1.3
v 1.3 1.6 -1.3
v 1.4 1.6 -1.3
v 1.4 1.8 -1.3
v 1.5 0 -1.3
v 1.5 0.2 -1.3
v 1.5 1.6 -1.3
v 1.5 1.8 -1.3
v -1.5 0 1.3
v -1.5 0.2 1.3
v -1.5 1.6 1.3
v -1.5 1.8 1.3
v -1.4 1.6 1.3
v -1.4 1.8 1.3
v -1.3 0 1.3
v -1.3 0.2 1.3
v -1.3 1.6 1.3
v 1.3 0 1.3
v 1.3 0.2 1.3
v 1.3 1.6 1.3
v 1.4 1.6 1.3
v 1.4 1.8 1.3
v 1.5 0 1.3
v 1.5 0.2 1.3
v 1.5 1.6 1.3
v 1.5 1.8 1.3
v -1.4 1.6 1.2
v -1.4 1.8 1.2
v -1.4 3.9 1.2
v -1.2 1.6 1.2
v -1.2 1.8 1.2
v -1.2 3.9 1.2
v 1.2 1.6 1.2
v 1.2 1.8 1.2
v 1.2 3.9 1.2
v 1.4 1.6 1.2
v 1.4 1.8 1.2
v 1.4 3.9 1.2
v -0.1 0.2 -0.1
v -0.1 0.3 -0.1
v -0.1 0.4 -0.1
v -0.1 0.6 -0.1
v -0.1 0.7 -0.1
v -0.1 0.9 -0.1
v -0.1 1 -0.1
v -0.1 1.2 -0.1
v -0.1 1.3 -0.1
v -0.1 1.5 -0.1
v -0.1 1.6 -0.1
v -0.1 1.8 -0.1
v -0.1 1.9 -0.1
v -0.1 2.1 -0.1
v -0.1 2.2 -0.1
v -0.1 2.4 -0.1
v -0.1 2.5 -0.1
v -0.1 2.7 -0.1
v -0.1 2.8 -0.1
v -0.1 3 -0.1
v -0.1 3.1 -0.1
v -0.1 3.3 -0.1
v -0.1 3.4 -0.1
v -0.1 3.6 -0.1
v -0.1 3.7 -0.1
v -0.1 3.9 -0.1
v 0.1 0.2 -0.1
v 0.1 0.3 -0.1
v 0.1 0.4 -0.1
v 0.1 0.6 -0.1
v 0.1 0.7 -0.1
v 0.1 0.9 -0.1
v 0.1 1 -0.1
v 0.1 1.2 -0.1
v 0.1 1.3 -0.1
v 0.1 1.5 -0.1
v 0.1 1.6 -0.1
v 0.1 1.8 -0.1
v 0.1 1.9 -0.1
v 0.1 2.1 -0.1
v 0.1 2.2 -0.1
v 0.1 2.4 -0.1
v 0.1 2.5 -0.1
v 0.1 2.7 -0.1
v 0.1 2.8 -0.1
v 0.1 3 -0.1
v 0.1 3.1 -0.1
v 0.1 3.3 -0.1
v 0.1 3.4 -0.1
v 0.1 3.6 -0.1
v 0.1 3.7 -0.1
v 0.1 3.9 -0.1
v -1.4 1.8 -1.4
v -1.4 4.9 -1.4
v -1.4 5.3 -1.4
v -1.4 6.3 -1.4
v -1.3 1.6 -1.4
v -1.3 1.8 -1.4
v -1.2 1.6 -1.4
v -1.2 1.8 -1.4
v -1.2 3.9 -1.4
v 1.2 1.6 -1.4
v 1.2 1.8 -1.4
v 1.2 3.9 -1.4
v 1.3 1.6 -1.4
v 1.3 1.8 -1.4
v 1.4 1.8 -1.4
v 1.4 4.9 -1.4
v 1.4 5.3 -1.4
v 1.4 6.3 -1.4
v -1.5 0 -1.5
v -1.5 0.2 -1.5
v -1.5 1.6 -1.5
v -1.5 1.8 -1.5
v -1.3 0 -1.5
v -1.3 0.2 -1.5
v -1.3 1.6 -1.5
v -1.3 1.8 -1.5
v 1.3 0 -1.5
v 1.3 0.2 -1.5
v 1.3 1.6 -1.5
v 1.3 1.8 -1.5
v 1.5 0 -1.5
v 1.5 0.2 -1.5
v 1.5 1.6 -1.5
v 1.5 1.8 -1.5
v -1.5 0 1.5
v -1.3 0 1.5
v 1.3 0 1.5
v 1.5 0 1.5
v -1.5 0 1.3
v -1.3 0 1.3
v 1.3 0 1.3
v 1.5 0 1.3
v -1.5 0 -1.3
v -1.3 0 -1.3
v 1.3 0 -1.3
v 1.5 0 -1.3
v -1.5 0 -1.5
v -1.3 0 -1.5
v 1.3 0 -1.5
v 1.5 0 -1.5
v -0.1 0.2 0.1
v 0.1 0.2 0.1
v -0.1 0.2 -0.1
v 0.1 0.2 -0.1
v -1.3 1.6 1.4
v -1.2 1.6 1.4
v 1.2 1.6 1.4
v 1.3 1.6 1.4
v -1.4 1.6 1.3
v -1.3 1.6 1.3
v 1.3 1.6 1.3
v 1.4 1.6 1.3
v -1.4 1.6 1.2
v -1.2 1.6 1.2
v 1.2 1.6 1.2
v 1.4 1.6 1.2
v -1.4 1.6 -1.2
v -1.2 1.6 -1.2
v 1.2 1.6 -1.2
v 1.4 1.6 -1.2
v -1.4 1.6 -1.3
v -1.3 1.6 -1.3
v 1.3 1.6 -1.3
v 1.4 1.6 -1.3
v -1.3 1.6 -1.4
v -1.2 1.6 -1.4
v 1.2 1.6 -1.4
v 1.3 1.6 -1.4
v -1.2 3.9 1.4
v 1.2 3.9 1.4
v -1.4 3.9 1.2
v -1.2 3.9 1.2
v 1.2 3.9 1.2
v 1.4 3.9 1.2
v -0.3 3.9 0.3
v 0.3 3.9 0.3
v -0.2 3.9 0.2
v 0.2 3.9 0.2
v -0.1 3.9 0.1
v 0.1 3.9 0.1
v -0.1 3.9 -0.1
v 0.1 3.9 -0.1
v -0.2 3.9 -0.2
v 0.2 3.9 -0.2
v -0.3 3.9 -0.3
v 0.3 3.9 -0.3
v -1.4 3.9 -1.2
v -1.2 3.9 -1.2
v 1.2 3.9 -1.2
v 1.4 3.9 -1.2
v -1.2 3.9 -1.4
v 1.2 3.9 -1.4
v -1.5 1.8 1.5
v -1.3 1.8 1.5
v 1.3 1.8 1.5
v 1.5 1.8 1.5
v -1.4 1.8 1.4
v -1.3 1.8 1.4
v 1.3 1.8 1.4
v 1.4 1.8 1.4
v -1.5 1.8 1.3
v -1.4 1.8 1.3
v 1.4 1.8 1.3
v 1.5 1.8 1.3
v -1.5 1.8 -1.3
v -1.4 1.8 -1.3
v 1.4 1.8 -1.3
v 1.5 1.8 -1.3
v -1.4 1.8 -1.4
v -1.3 1.8 -1.4
v 1.3 1.8 -1.4
v 1.4 1.8 -1.4
v -1.5 1.8 -1.5
v -1.3 1.8 -1.5
v 1.3 1.8 -1.5
v 1.5 1.8 -1.5
v -1.4 6.3 1.4
v 1.4 6.3 1.4
v -1.3 6.3 1.3
v 1.3 6.3 1.3
v -1.3 6.3 -1.3
v 1.3 6.3 -1.3
v -1.4 6.3 -1.4
v 1.4 6.3 -1.4

# faces
f 5/5/1 2/5/1 1/5/1
f 6/5/1 2/5/1 5/5/1
f 7/5/1 4/5/1 3/5/1
f 8/5/1 4/5/1 7/5/1
f 9/1/1 6/1/1 5/1/1
f 10/1/1 6/1/1 9/1/1
f 11/1/1 8/1/1 7/1/1
f 12/1/1 8/1/1 11/1/1
f 13/5/1 10/5/1 9/5/1
f 14/5/1 10/5/1 13/5/1
f 15/5/1 12/5/1 11/5/1
f 16/5/1 12/5/1 15/5/1
f 22/5/1 18/5/1 17/5/1
f 23/5/1 18/5/1 22/5/1
f 24/5/1 20/5/1 19/5/1
f 25/5/1 20/5/1 24/5/1
f 27/1/1 23/1/1 22/1/1
f 27/1/1 22/1/1 21/1/1
f 28/1/1 26/1/1 25/1/1
f 28/1/1 25/1/1 24/1/1
f 29/1/1 27/1/1 21/1/1
f 29/1/1 28/1/1 27/1/1
f 30/1/1 26/1/1 28/1/1
f 30/1/1 28/1/1 29/1/1
f 31/5/1 30/5/1 29/5/1
f 32/5/1 30/5/1 31/5/1
f 33/1/1 32/1/1 31/1/1
f 34/1/1 32/1/1 33/1/1
f 37/2/1 36/2/1 35/2/1
f 38/2/1 36/2/1 37/2/1
f 39/3/1 38/3/1 37/3/1
f 40/3/1 38/3/1 39/3/1
f 41/2/1 40/2/1 39/2/1
f 42/2/1 40/2/1 41/2/1
f 43/3/1 42/3/1 41/3/1
f 44/3/1 42/3/1 43/3/1
f 45/2/1 44/2/1 43/2/1
f 46/2/1 44/2/1 45/2/1
f 47/3/1 46/3/1 45/3/1
f 48/3/1 46/3/1 47/3/1
f 49/2/1 48/2/1 47/2/1
f 50/2/1 48/2/1 49/2/1
f 51/3/1 50/3/1 49/3/1
f 52/3/1 50/3/1 51/3/1
f 53/2/1 52/2/1 51/2/1
f 54/2/1 52/2/1 53/2/1
f 55/3/1 54/3/1 53/3/1
f 56/3/1 54/3/1 55/3/1
f 57/2/1 56/2/1 55/2/1
f 58/2/1 56/2/1 57/2/1
f 59/3/1 58/3/1 57/3/1
f 60/3/1 58/3/1 59/3/1
f 61/2/1 60/2/1 59/2/1
f 62/2/1 60/2/1 61/2/1
f 63/3/1 62/3/1 61/3/1
f 64/3/1 62/3/1 63/3/1
f 65/2/1 64/2/1 63/2/1
f 66/2/1 64/2/1 65/2/1
f 67/3/1 66/3/1 65/3/1
f 68/3/1 66/3/1 67/3/1
f 69/2/1 68/2/1 67/2/1
f 70/2/1 68/2/1 69/2/1
f 71/3/1 70/3/1 69/3/1
f 72/3/1 70/3/1 71/3/1
f 73/2/1 72/2/1 71/2/1
f 74/2/1 72/2/1 73/2/1
f 75/3/1 74/3/1 73/3/1
f 76/3/1 74/3/1 75/3/1
f 77/2/1 76/2/1 75/2/1
f 78/2/1 76/2/1 77/2/1
f 79/3/1 78/3/1 77/3/1
f 80/3/1 78/3/1 79/3/1
f 81/2/1 80/2/1 79/2/1
f 82/2/1 80/2/1 81/2/1
f 83/3/1 82/3/1 81/3/1
f 84/3/1 82/3/1 83/3/1
f 85/2/1 84/2/1 83/2/1
f 86/2/1 84/2/1 85/2/1
f 91/5/1 88/5/1 87/5/1
f 92/5/1 88/5/1 91/5/1
f 93/5/1 90/5/1 89/5/1
f 94/5/1 90/5/1 93/5/1
f 95/1/1 92/1/1 91/1/1
f 96/1/1 92/1/1 95/1/1
f 97/1/1 94/1/1 93/1/1
f 98/1/1 94/1/1 97/1/1
f 103/5/1 100/5/1 99/5/1
f 104/5/1 100/5/1 103/5/1
f 105/5/1 102/5/1 101/5/1
f 106/5/1 102/5/1 105/5/1
f 107/1/1 104/1/1 103/1/1
f 108/1/1 104/1/1 107/1/1
f 109/1/1 104/1/1 108/1/1
f 110/1/1 106/1/1 105/1/1
f 111/1/1 106/1/1 110/1/1
f 112/1/1 106/1/1 111/1/1
f 113/5/1 108/5/1 107/5/1
f 114/5/1 108/5/1 113/5/1
f 115/5/1 112/5/1 111/5/1
f 116/5/1 112/5/1 115/5/1
f 117/5/2 118/5/2 121/5/2
f 121/5/2 118/5/2 122/5/2
f 119/5/2 120/5/2 123/5/2
f 123/5/2 120/5/2 124/5/2
f 121/1/2 122/1/2 125/1/2
f 125/1/2 122/1/2 126/1/2
f 126/1/2 122/1/2 127/1/2
f 123/1/2 124/1/2 128/1/2
f 128/1/2 124/1/2 129/1/2
f 129/1/2 124/1/2 130/1/2
f 125/5/2 126/5/2 131/5/2
f 131/5/2 126/5/2 132/5/2
f 129/5/2 130/5/2 133/5/2
f 133/5/2 130/5/2 134/5/2
f 135/5/2 136/5/2 139/5/2
f 139/5/2 136/5/2 140/5/2
f 137/5/2 138/5/2 141/5/2
f 141/5/2 138/5/2 142/5/2
f 139/1/2 140/1/2 143/1/2
f 143/1/2 140/1/2 144/1/2
f 141/1/2 142/1/2 145/1/2
f 145/1/2 142/1/2 146/1/2
f 147/2/2 148/2/2 149/2/2
f 149/2/2 148/2/2 150/2/2
f 149/3/2 150/3/2 151/3/2
f 151/3/2 150/3/2 152/3/2
f 151/2/2 152/2/2 153/2/2
f 153/2/2 152/2/2 154/2/2
f 153/3/2 154/3/2 155/3/2
f 155/3/2 154/3/2 156/3/2
f 155/2/2 156/2/2 157/2/2
f 157/2/2 156/2/2 158/2/2
f 157/3/2 158/3/2 159/3/2
f 159/3/2 158/3/2 160/3/2
f 159/2/2 160/2/2 161/2/2
f 161/2/2 160/2/2 162/2/2
f 161/3/2 162/3/2 163/3/2
f 163/3/2 162/3/2 164/3/2
f 163/2/2 164/2/2 165/2/2
f 165/2/2 164/2/2 166/2/2
f 165/3/2 166/3/2 167/3/2
f 167/3/2 166/3/2 168/3/2
f 167/2/2 168/2/2 169/2/2
f 169/2/2 168/2/2 170/2/2
f 169/3/2 170/3/2 171/3/2
f 171/3/2 170/3/2 172/3/2
f 171/2/2 172/2/2 173/2/2
f 173/2/2 172/2/2 174/2/2
f 173/3/2 174/3/2 175/3/2
f 175/3/2 174/3/2 176/3/2
f 175/2/2 176/2/2 177/2/2
f 177/2/2 176/2/2 178/2/2
f 177/3/2 178/3/2 179/3/2
f 179/3/2 178/3/2 180/3/2
f 179/2/2 180/2/2 181/2/2
f 181/2/2 180/2/2 182/2/2
f 181/3/2 182/3/2 183/3/2
f 183/3/2 182/3/2 184/3/2
f 183/2/2 184/2/2 185/2/2
f 185/2/2 184/2/2 186/2/2
f 185/3/2 186/3/2 187/3/2
f 187/3/2 186/3/2 188/3/2
f 187/2/2 188/2/2 189/2/2
f 189/2/2 188/2/2 190/2/2
f 189/3/2 190/3/2 191/3/2
f 191/3/2 190/3/2 192/3/2
f 191/2/2 192/2/2 193/2/2
f 193/2/2 192/2/2 194/2/2
f 193/3/2 194/3/2 195/3/2
f 195/3/2 194/3/2 196/3/2
f 195/2/2 196/2/2 197/2/2
f 197/2/2 196/2/2 198/2/2
f 199/5/2 200/5/2 204/5/2
f 204/5/2 200/5/2 205/5/2
f 201/5/2 202/5/2 206/5/2
f 206/5/2 202/5/2 207/5/2
f 204/1/2 205/1/2 209/1/2
f 203/1/2 204/1/2 209/1/2
f 207/1/2 208/1/2 210/1/2
f 206/1/2 207/1/2 210/1/2
f 203/1/2 209/1/2 211/1/2
f 209/1/2 210/1/2 211/1/2
f 210/1/2 208/1/2 212/1/2
f 211/1/2 210/1/2 212/1/2
f 211/5/2 212/5/2 213/5/2
f 213/5/2 212/5/2 214/5/2
f 213/1/2 214/1/2 215/1/2
f 215/1/2 214/1/2 216/1/2
f 217/5/2 218/5/2 221/5/2
f 221/5/2 218/5/2 222/5/2
f 219/5/2 220/5/2 223/5/2
f 223/5/2 220/5/2 224/5/2
f 221/1/2 222/1/2 225/1/2
f 225/1/2 222/1/2 226/1/2
f 223/1/2 224/1/2 227/1/2
f 227/1/2 224/1/2 228/1/2
f 225/5/2 226/5/2 229/5/2
f 229/5/2 226/5/2 230/5/2
f 227/5/2 228/5/2 231/5/2
f 231/5/2 228/5/2 232/5/2
f 237/5/3 234/5/3 233/5/3
f 238/1/3 235/1/3 234/1/3
f 238/5/3 234/5/3 237/5/3
f 239/5/3 236/5/3 235/5/3
f 239/1/3 235/1/3 238/1/3
f 240/5/3 236/5/3 239/5/3
f 245/5/3 242/5/3 241/5/3
f 246/1/3 243/1/3 242/1/3
f 246/5/3 242/5/3 245/5/3
f 247/5/3 244/5/3 243/5/3
f 247/1/3 243/1/3 246/1/3
f 248/5/3 244/5/3 247/5/3
f 254/1/3 250/1/3 249/1/3
f 255/5/3 254/5/3 253/5/3
f 256/1/3 250/1/3 254/1/3
f 256/5/3 254/5/3 255/5/3
f 257/1/3 250/1/3 256/1/3
f 260/1/3 250/1/3 257/1/3
f 261/5/3 259/5/3 258/5/3
f 262/1/3 260/1/3 259/1/3
f 262/5/3 259/5/3 261/5/3
f 263/1/3 260/1/3 262/1/3
f 264/5/3 251/5/3 250/5/3
f 264/1/3 260/1/3 263/1/3
f 264/1/3 250/1/3 260/1/3
f 265/1/3 252/1/3 251/1/3
f 265/5/3 251/5/3 264/5/3
f 266/1/3 252/1/3 265/1/3
f 293/2/3 268/2/3 267/2/3
f 294/3/3 269/3/3 268/3/3
f 294/2/3 268/2/3 293/2/3
f 295/2/3 270/2/3 269/2/3
f 295/3/3 269/3/3 294/3/3
f 296/3/3 271/3/3 270/3/3
f 296/2/3 270/2/3 295/2/3
f 297/2/3 272/2/3 271/2/3
f 297/3/3 271/3/3 296/3/3
f 298/3/3 273/3/3 272/3/3
f 298/2/3 272/2/3 297/2/3
f 299/2/3 274/2/3 273/2/3
f 299/3/3 273/3/3 298/3/3
f 300/3/3 275/3/3 274/3/3
f 300/2/3 274/2/3 299/2/3
f 301/2/3 276/2/3 275/2/3
f 301/3/3 275/3/3 300/3/3
f 302/3/3 277/3/3 276/3/3
f 302/2/3 276/2/3 301/2/3
f 303/2/3 278/2/3 277/2/3
f 303/3/3 277/3/3 302/3/3
f 304/3/3 279/3/3 278/3/3
f 304/2/3 278/2/3 303/2/3
f 305/2/3 280/2/3 279/2/3
f 305/3/3 279/3/3 304/3/3
f 306/3/3 281/3/3 280/3/3
f 306/2/3 280/2/3 305/2/3
f 307/2/3 282/2/3 281/2/3
f 307/3/3 281/3/3 306/3/3
f 308/3/3 283/3/3 282/3/3
f 308/2/3 282/2/3 307/2/3
f 309/2/3 284/2/3 283/2/3
f 309/3/3 283/3/3 308/3/3
f 310/3/3 285/3/3 284/3/3
f 310/2/3 284/2/3 309/2/3
f 311/2/3 286/2/3 285/2/3
f 311/3/3 285/3/3 310/3/3
f 312/3/3 287/3/3 286/3/3
f 312/2/3 286/2/3 311/2/3
f 313/2/3 288/2/3 287/2/3
f 313/3/3 287/3/3 312/3/3
f 314/3/3 289/3/3 288/3/3
f 314/2/3 288/2/3 313/2/3
f 315/2/3 290/2/3 289/2/3
f 315/3/3 289/3/3 314/3/3
f 316/3/3 291/3/3 290/3/3
f 316/2/3 290/2/3 315/2/3
f 317/2/3 292/2/3 291/2/3
f 317/3/3 291/3/3 316/3/3
f 318/2/3 292/2/3 317/2/3
f 322/5/3 320/5/3 319/5/3
f 323/1/3 321/1/3 320/1/3
f 323/5/3 320/5/3 322/5/3
f 324/1/3 321/1/3 323/1/3
f 328/5/3 326/5/3 325/5/3
f 329/1/3 327/1/3 326/1/3
f 329/5/3 326/5/3 328/5/3
f 330/1/3 327/1/3 329/1/3
f 335/1/3 333/1/3 332/1/3
f 335/5/3 334/5/3 333/5/3
f 336/5/3 334/5/3 335/5/3
f 337/5/3 332/5/3 331/5/3
f 338/1/3 335/1/3 332/1/3
f 338/5/3 332/5/3 337/5/3
f 339/1/3 335/1/3 338/1/3
f 343/1/3 342/1/3 341/1/3
f 345/5/3 341/5/3 340/5/3
f 346/1/3 343/1/3 341/1/3
f 346/5/3 341/5/3 345/5/3
f 347/5/3 344/5/3 343/5/3
f 347/1/3 343/1/3 346/1/3
f 348/5/3 344/5/3 347/5/3
f 350/1/4 351/1/4 353/1/4
f 351/5/4 352/5/4 353/5/4
f 353/5/4 352/5/4 354/5/4
f 349/5/4 350/5/4 355/5/4
f 350/1/4 353/1/4 356/1/4
f 355/5/4 350/5/4 356/5/4
f 356/1/4 353/1/4 357/1/4
f 359/1/4 360/1/4 361/1/4
f 358/5/4 359/5/4 363/5/4
f 359/1/4 361/1/4 364/1/4
f 363/5/4 359/5/4 364/5/4
f 361/5/4 362/5/4 365/5/4
f 364/1/4 361/1/4 365/1/4
f 365/5/4 362/5/4 366/5/4
f 367/5/4 368/5/4 370/5/4
f 368/1/4 369/1/4 371/1/4
f 370/5/4 368/5/4 371/5/4
f 371/1/4 369/1/4 372/1/4
f 373/5/4 374/5/4 376/5/4
f 374/1/4 375/1/4 377/1/4
f 376/5/4 374/5/4 377/5/4
f 377/1/4 375/1/4 378/1/4
f 379/2/4 380/2/4 405/2/4
f 380/3/4 381/3/4 406/3/4
f 405/2/4 380/2/4 406/2/4
f 381/2/4 382/2/4 407/2/4
f 406/3/4 381/3/4 407/3/4
f 382/3/4 383/3/4 408/3/4
f 407/2/4 382/2/4 408/2/4
f 383/2/4 384/2/4 409/2/4
f 408/3/4 383/3/4 409/3/4
f 384/3/4 385/3/4 410/3/4
f 409/2/4 384/2/4 410/2/4
f 385/2/4 386/2/4 411/2/4
f 410/3/4 385/3/4 411/3/4
f 386/3/4 387/3/4 412/3/4
f 411/2/4 386/2/4 412/2/4
f 387/2/4 388/2/4 413/2/4
f 412/3/4 387/3/4 413/3/4
f 388/3/4 389/3/4 414/3/4
f 413/2/4 388/2/4 414/2/4
f 389/2/4 390/2/4 415/2/4
f 414/3/4 389/3/4 415/3/4
f 390/3/4 391/3/4 416/3/4
f 415/2/4 390/2/4 416/2/4
f 391/2/4 392/2/4 417/2/4
f 416/3/4 391/3/4 417/3/4
f 392/3/4 393/3/4 418/3/4
f 417/2/4 392/2/4 418/2/4
f 393/2/4 394/2/4 419/2/4
f 418/3/4 393/3/4 419/3/4
f 394/3/4 395/3/4 420/3/4
f 419/2/4 394/2/4 420/2/4
f 395/2/4 396/2/4 421/2/4
f 420/3/4 395/3/4 421/3/4
f 396/3/4 397/3/4 422/3/4
f 421/2/4 396/2/4 422/2/4
f 397/2/4 398/2/4 423/2/4
f 422/3/4 397/3/4 423/3/4
f 398/3/4 399/3/4 424/3/4
f 423/2/4 398/2/4 424/2/4
f 399/2/4 400/2/4 425/2/4
f 424/3/4 399/3/4 425/3/4
f 400/3/4 401/3/4 426/3/4
f 425/2/4 400/2/4 426/2/4
f 401/2/4 402/2/4 427/2/4
f 426/3/4 401/3/4 427/3/4
f 402/3/4 403/3/4 428/3/4
f 427/2/4 402/2/4 428/2/4
f 403/2/4 404/2/4 429/2/4
f 428/3/4 403/3/4 429/3/4
f 429/2/4 404/2/4 430/2/4
f 431/1/4 432/1/4 436/1/4
f 435/5/4 436/5/4 437/5/4
f 436/1/4 432/1/4 438/1/4
f 437/5/4 436/5/4 438/5/4
f 438/1/4 432/1/4 439/1/4
f 439/1/4 432/1/4 442/1/4
f 440/5/4 441/5/4 443/5/4
f 441/1/4 442/1/4 444/1/4
f 443/5/4 441/5/4 444/5/4
f 444/1/4 442/1/4 445/1/4
f 432/5/4 433/5/4 446/5/4
f 445/1/4 442/1/4 446/1/4
f 442/1/4 432/1/4 446/1/4
f 433/1/4 434/1/4 447/1/4
f 446/5/4 433/5/4 447/5/4
f 447/1/4 434/1/4 448/1/4
f 449/5/4 450/5/4 453/5/4
f 450/1/4 451/1/4 454/1/4
f 453/5/4 450/5/4 454/5/4
f 451/5/4 452/5/4 455/5/4
f 454/1/4 451/1/4 455/1/4
f 455/5/4 452/5/4 456/5/4
f 457/5/4 458/5/4 461/5/4
f 458/1/4 459/1/4 462/1/4
f 461/5/4 458/5/4 462/5/4
f 459/5/4 460/5/4 463/5/4
f 462/1/4 459/1/4 463/1/4
f 463/5/4 460/5/4 464/5/4
f 469/5/5 466/5/5 465/5/5
f 470/5/5 466/5/5 469/5/5
f 471/5/5 468/5/5 467/5/5
f 472/5/5 468/5/5 471/5/5
f 477/5/5 474/5/5 473/5/5
f 478/5/5 474/5/5 477/5/5
f 479/5/5 476/5/5 475/5/5
f 480/5/5 476/5/5 479/5/5
f 483/2/5 482/2/5 481/2/5
f 484/2/5 482/2/5 483/2/5
f 490/5/5 486/5/5 485/5/5
f 491/5/5 488/5/5 487/5/5
f 493/5/5 490/5/5 489/5/5
f 494/5/5 486/5/5 490/5/5
f 494/5/5 490/5/5 493/5/5
f 495/5/5 492/5/5 491/5/5
f 495/5/5 491/5/5 487/5/5
f 496/5/5 492/5/5 495/5/5
f 501/5/5 498/5/5 497/5/5
f 502/5/5 498/5/5 501/5/5
f 503/5/5 500/5/5 499/5/5
f 504/5/5 500/5/5 503/5/5
f 505/5/5 498/5/5 502/5/5
f 506/5/5 498/5/5 505/5/5
f 507/5/5 503/5/5 499/5/5
f 508/5/5 503/5/5 507/5/5
f 512/1/5 510/1/5 509/1/5
f 513/1/5 510/1/5 512/1/5
f 515/1/5 512/1/5 511/1/5
f 515/1/5 514/1/5 513/1/5
f 515/1/5 513/1/5 512/1/5
f 516/1/5 514/1/5 515/1/5
f 517/5/5 516/5/5 515/5/5
f 518/5/5 516/5/5 517/5/5
f 519/4/5 518/4/5 517/4/5
f 520/4/5 518/4/5 519/4/5
f 521/4/5 519/4/5 517/4/5
f 522/4/5 518/4/5 520/4/5
f 523/5/5 517/5/5 515/5/5
f 523/4/5 522/4/5 521/4/5
f 523/4/5 521/4/5 517/4/5
f 524/4/5 518/4/5 522/4/5
f 524/4/5 522/4/5 523/4/5
f 524/5/5 516/5/5 518/5/5
f 525/1/5 515/1/5 511/1/5
f 525/5/5 523/5/5 515/5/5
f 525/5/5 524/5/5 523/5/5
f 526/5/5 516/5/5 524/5/5
f 526/5/5 524/5/5 525/5/5
f 526/1/5 514/1/5 516/1/5
f 527/1/5 525/1/5 511/1/5
f 527/1/5 526/1/5 525/1/5
f 528/1/5 526/1/5 527/1/5
f 529/1/5 514/1/5 526/1/5
f 529/1/5 526/1/5 528/1/5
f 530/1/5 514/1/5 529/1/5
f 531/1/5 529/1/5 528/1/5
f 532/1/5 529/1/5 531/1/5
f 533/5/6 534/5/6 537/5/6
f 537/5/6 534/5/6 538/5/6
f 535/5/6 536/5/6 539/5/6
f 539/5/6 536/5/6 540/5/6
f 533/5/6 537/5/6 541/5/6
f 541/5/6 537/5/6 542/5/6
f 540/5/6 536/5/6 543/5/6
f 543/5/6 536/5/6 544/5/6
f 545/5/6 546/5/6 549/5/6
f 547/5/6 548/5/6 552/5/6
f 549/5/6 550/5/6 553/5/6
f 545/5/6 549/5/6 553/5/6
f 553/5/6 550/5/6 554/5/6
f 551/5/6 552/5/6 555/5/6
f 552/5/6 548/5/6 556/5/6
f 555/5/6 552/5/6 556/5/6
f 557/1/6 558/1/6 559/1/6
f 559/1/6 558/1/6 560/1/6
f 557/1/6 559/1/6 561/1/6
f 559/5/6 560/5/6 561/5/6
f 560/1/6 558/1/6 562/1/6
f 561/5/6 560/5/6 562/5/6
f 557/1/6 561/1/6 563/1/6
f 561/1/6 562/1/6 563/1/6
f 562/1/6 558/1/6 564/1/6
f 563/1/6 562/1/6 564/1/6
