# MagicaVoxel @ Ephtracy

# group
o 

# material
mtllib Drill_LOD1.mtl
usemtl palette

# normals
vn -1 0 0
vn 1 0 0
vn 0 0 1
vn 0 0 -1
vn 0 -1 0
vn 0 1 0

# texcoords
vt 0.822266 0.5
vt 0.830078 0.5
vt 0.904297 0.5

# verts
v -1.5 0 1.5
v -1.5 0 1.3
v -1.5 0 -1.3
v -1.5 0 -1.5
v -1.5 0.2 1.5
v -1.5 0.2 1.3
v -1.5 0.2 -1.3
v -1.5 0.2 -1.5
v -1.5 1.6 1.5
v -1.5 1.6 1.3
v -1.5 1.6 -1.3
v -1.5 1.6 -1.5
v -1.5 1.8 1.5
v -1.5 1.8 1.3
v -1.5 1.8 -1.3
v -1.5 1.8 -1.5
v -1.4 1.6 1.3
v -1.4 1.6 1.2
v -1.4 1.6 -1.2
v -1.4 1.6 -1.3
v -1.4 1.8 1.4
v -1.4 1.8 1.3
v -1.4 1.8 1.2
v -1.4 1.8 -1.2
v -1.4 1.8 -1.3
v -1.4 1.8 -1.4
v -1.4 3.9 1.2
v -1.4 3.9 -1.2
v -1.4 4.9 1.4
v -1.4 4.9 -1.4
v -1.4 5.3 1.4
v -1.4 5.3 -1.4
v -1.4 6.3 1.4
v -1.4 6.3 -1.4
v -0.1 0.2 0.1
v -0.1 0.2 -0.1
v -0.1 3.9 0.1
v -0.1 3.9 -0.1
v 1.2 1.6 1.4
v 1.2 1.6 1.2
v 1.2 1.6 -1.2
v 1.2 1.6 -1.4
v 1.2 1.8 1.4
v 1.2 1.8 1.2
v 1.2 1.8 -1.2
v 1.2 1.8 -1.4
v 1.2 3.9 1.4
v 1.2 3.9 1.2
v 1.2 3.9 -1.2
v 1.2 3.9 -1.4
v 1.3 0 1.5
v 1.3 0 1.3
v 1.3 0 -1.3
v 1.3 0 -1.5
v 1.3 0.2 1.5
v 1.3 0.2 1.3
v 1.3 0.2 -1.3
v 1.3 0.2 -1.5
v 1.3 1.6 1.5
v 1.3 1.6 1.4
v 1.3 1.6 1.3
v 1.3 1.6 -1.3
v 1.3 1.6 -1.4
v 1.3 1.6 -1.5
v 1.3 1.8 1.5
v 1.3 1.8 1.4
v 1.3 1.8 -1.4
v 1.3 1.8 -1.5
v -1.3 0 1.5
v -1.3 0 1.3
v -1.3 0 -1.3
v -1.3 0 -1.5
v -1.3 0.2 1.5
v -1.3 0.2 1.3
v -1.3 0.2 -1.3
v -1.3 0.2 -1.5
v -1.3 1.6 1.5
v -1.3 1.6 1.4
v -1.3 1.6 1.3
v -1.3 1.6 -1.3
v -1.3 1.6 -1.4
v -1.3 1.6 -1.5
v -1.3 1.8 1.5
v -1.3 1.8 1.4
v -1.3 1.8 -1.4
v -1.3 1.8 -1.5
v -1.2 1.6 1.4
v -1.2 1.6 1.2
v -1.2 1.6 -1.2
v -1.2 1.6 -1.4
v -1.2 1.8 1.4
v -1.2 1.8 1.2
v -1.2 1.8 -1.2
v -1.2 1.8 -1.4
v -1.2 3.9 1.4
v -1.2 3.9 1.2
v -1.2 3.9 -1.2
v -1.2 3.9 -1.4
v 0.1 0.2 0.1
v 0.1 0.2 -0.1
v 0.1 3.9 0.1
v 0.1 3.9 -0.1
v 1.4 1.6 1.3
v 1.4 1.6 1.2
v 1.4 1.6 -1.2
v 1.4 1.6 -1.3
v 1.4 1.8 1.4
v 1.4 1.8 1.3
v 1.4 1.8 1.2
v 1.4 1.8 -1.2
v 1.4 1.8 -1.3
v 1.4 1.8 -1.4
v 1.4 3.9 1.2
v 1.4 3.9 -1.2
v 1.4 4.9 1.4
v 1.4 4.9 -1.4
v 1.4 5.3 1.4
v 1.4 5.3 -1.4
v 1.4 6.3 1.4
v 1.4 6.3 -1.4
v 1.5 0 1.5
v 1.5 0 1.3
v 1.5 0 -1.3
v 1.5 0 -1.5
v 1.5 0.2 1.5
v 1.5 0.2 1.3
v 1.5 0.2 -1.3
v 1.5 0.2 -1.5
v 1.5 1.6 1.5
v 1.5 1.6 1.3
v 1.5 1.6 -1.3
v 1.5 1.6 -1.5
v 1.5 1.8 1.5
v 1.5 1.8 1.3
v 1.5 1.8 -1.3
v 1.5 1.8 -1.5
v -1.5 0 1.5
v -1.5 0.2 1.5
v -1.5 1.6 1.5
v -1.5 1.8 1.5
v -1.3 0 1.5
v -1.3 0.2 1.5
v -1.3 1.6 1.5
v -1.3 1.8 1.5
v 1.3 0 1.5
v 1.3 0.2 1.5
v 1.3 1.6 1.5
v 1.3 1.8 1.5
v 1.5 0 1.5
v 1.5 0.2 1.5
v 1.5 1.6 1.5
v 1.5 1.8 1.5
v -1.4 1.8 1.4
v -1.4 4.9 1.4
v -1.4 5.3 1.4
v -1.4 6.3 1.4
v -1.3 1.6 1.4
v -1.3 1.8 1.4
v -1.2 1.6 1.4
v -1.2 1.8 1.4
v -1.2 3.9 1.4
v 1.2 1.6 1.4
v 1.2 1.8 1.4
v 1.2 3.9 1.4
v 1.3 1.6 1.4
v 1.3 1.8 1.4
v 1.4 1.8 1.4
v 1.4 4.9 1.4
v 1.4 5.3 1.4
v 1.4 6.3 1.4
v -0.1 0.2 0.1
v -0.1 3.9 0.1
v 0.1 0.2 0.1
v 0.1 3.9 0.1
v -1.4 1.6 -1.2
v -1.4 1.8 -1.2
v -1.4 3.9 -1.2
v -1.2 1.6 -1.2
v -1.2 1.8 -1.2
v -1.2 3.9 -1.2
v 1.2 1.6 -1.2
v 1.2 1.8 -1.2
v 1.2 3.9 -1.2
v 1.4 1.6 -1.2
v 1.4 1.8 -1.2
v 1.4 3.9 -1.2
v -1.5 0 -1.3
v -1.5 0.2 -1.3
v -1.5 1.6 -1.3
v -1.5 1.8 -1.3
v -1.4 1.6 -1.3
v -1.4 1.8 -1.3
v -1.3 0 -1.3
v -1.3 0.2 -1.3
v -1.3 1.6 -1.3
v 1.3 0 -1.3
v 1.3 0.2 -1.3
v 1.3 1.6 -1.3
v 1.4 1.6 -1.3
v 1.4 1.8 -1.3
v 1.5 0 -1.3
v 1.5 0.2 -1.3
v 1.5 1.6 -1.3
v 1.5 1.8 -1.3
v -1.5 0 1.3
v -1.5 0.2 1.3
v -1.5 1.6 1.3
v -1.5 1.8 1.3
v -1.4 1.6 1.3
v -1.4 1.8 1.3
v -1.3 0 1.3
v -1.3 0.2 1.3
v -1.3 1.6 1.3
v 1.3 0 1.3
v 1.3 0.2 1.3
v 1.3 1.6 1.3
v 1.4 1.6 1.3
v 1.4 1.8 1.3
v 1.5 0 1.3
v 1.5 0.2 1.3
v 1.5 1.6 1.3
v 1.5 1.8 1.3
v -1.4 1.6 1.2
v -1.4 1.8 1.2
v -1.4 3.9 1.2
v -1.2 1.6 1.2
v -1.2 1.8 1.2
v -1.2 3.9 1.2
v 1.2 1.6 1.2
v 1.2 1.8 1.2
v 1.2 3.9 1.2
v 1.4 1.6 1.2
v 1.4 1.8 1.2
v 1.4 3.9 1.2
v -0.1 0.2 -0.1
v -0.1 3.9 -0.1
v 0.1 0.2 -0.1
v 0.1 3.9 -0.1
v -1.4 1.8 -1.4
v -1.4 4.9 -1.4
v -1.4 5.3 -1.4
v -1.4 6.3 -1.4
v -1.3 1.6 -1.4
v -1.3 1.8 -1.4
v -1.2 1.6 -1.4
v -1.2 1.8 -1.4
v -1.2 3.9 -1.4
v 1.2 1.6 -1.4
v 1.2 1.8 -1.4
v 1.2 3.9 -1.4
v 1.3 1.6 -1.4
v 1.3 1.8 -1.4
v 1.4 1.8 -1.4
v 1.4 4.9 -1.4
v 1.4 5.3 -1.4
v 1.4 6.3 -1.4
v -1.5 0 -1.5
v -1.5 0.2 -1.5
v -1.5 1.6 -1.5
v -1.5 1.8 -1.5
v -1.3 0 -1.5
v -1.3 0.2 -1.5
v -1.3 1.6 -1.5
v -1.3 1.8 -1.5
v 1.3 0 -1.5
v 1.3 0.2 -1.5
v 1.3 1.6 -1.5
v 1.3 1.8 -1.5
v 1.5 0 -1.5
v 1.5 0.2 -1.5
v 1.5 1.6 -1.5
v 1.5 1.8 -1.5
v -1.5 0 1.5
v -1.3 0 1.5
v 1.3 0 1.5
v 1.5 0 1.5
v -1.5 0 1.3
v -1.3 0 1.3
v 1.3 0 1.3
v 1.5 0 1.3
v -1.5 0 -1.3
v -1.3 0 -1.3
v 1.3 0 -1.3
v 1.5 0 -1.3
v -1.5 0 -1.5
v -1.3 0 -1.5
v 1.3 0 -1.5
v 1.5 0 -1.5
v -0.1 0.2 0.1
v 0.1 0.2 0.1
v -0.1 0.2 -0.1
v 0.1 0.2 -0.1
v -1.3 1.6 1.4
v -1.2 1.6 1.4
v 1.2 1.6 1.4
v 1.3 1.6 1.4
v -1.4 1.6 1.3
v -1.3 1.6 1.3
v 1.3 1.6 1.3
v 1.4 1.6 1.3
v -1.4 1.6 1.2
v -1.2 1.6 1.2
v 1.2 1.6 1.2
v 1.4 1.6 1.2
v -1.4 1.6 -1.2
v -1.2 1.6 -1.2
v 1.2 1.6 -1.2
v 1.4 1.6 -1.2
v -1.4 1.6 -1.3
v -1.3 1.6 -1.3
v 1.3 1.6 -1.3
v 1.4 1.6 -1.3
v -1.3 1.6 -1.4
v -1.2 1.6 -1.4
v 1.2 1.6 -1.4
v 1.3 1.6 -1.4
v -1.2 3.9 1.4
v 1.2 3.9 1.4
v -1.4 3.9 1.2
v -1.2 3.9 1.2
v 1.2 3.9 1.2
v 1.4 3.9 1.2
v -0.1 3.9 0.1
v 0.1 3.9 0.1
v -0.1 3.9 -0.1
v 0.1 3.9 -0.1
v -1.4 3.9 -1.2
v -1.2 3.9 -1.2
v 1.2 3.9 -1.2
v 1.4 3.9 -1.2
v -1.2 3.9 -1.4
v 1.2 3.9 -1.4
v -1.5 1.8 1.5
v -1.3 1.8 1.5
v 1.3 1.8 1.5
v 1.5 1.8 1.5
v -1.4 1.8 1.4
v -1.3 1.8 1.4
v 1.3 1.8 1.4
v 1.4 1.8 1.4
v -1.5 1.8 1.3
v -1.4 1.8 1.3
v 1.4 1.8 1.3
v 1.5 1.8 1.3
v -1.5 1.8 -1.3
v -1.4 1.8 -1.3
v 1.4 1.8 -1.3
v 1.5 1.8 -1.3
v -1.4 1.8 -1.4
v -1.3 1.8 -1.4
v 1.3 1.8 -1.4
v 1.4 1.8 -1.4
v -1.5 1.8 -1.5
v -1.3 1.8 -1.5
v 1.3 1.8 -1.5
v 1.5 1.8 -1.5
v -1.4 6.3 1.4
v 1.4 6.3 1.4
v -1.3 6.3 1.3
v 1.3 6.3 1.3
v -1.3 6.3 -1.3
v 1.3 6.3 -1.3
v -1.4 6.3 -1.4
v 1.4 6.3 -1.4

# faces
f 5/3/1 2/3/1 1/3/1
f 6/3/1 2/3/1 5/3/1
f 7/3/1 4/3/1 3/3/1
f 8/3/1 4/3/1 7/3/1
f 9/1/1 6/1/1 5/1/1
f 10/1/1 6/1/1 9/1/1
f 11/1/1 8/1/1 7/1/1
f 12/1/1 8/1/1 11/1/1
f 13/3/1 10/3/1 9/3/1
f 14/3/1 10/3/1 13/3/1
f 15/3/1 12/3/1 11/3/1
f 16/3/1 12/3/1 15/3/1
f 22/3/1 18/3/1 17/3/1
f 23/3/1 18/3/1 22/3/1
f 24/3/1 20/3/1 19/3/1
f 25/3/1 20/3/1 24/3/1
f 27/1/1 23/1/1 22/1/1
f 27/1/1 22/1/1 21/1/1
f 28/1/1 26/1/1 25/1/1
f 28/1/1 25/1/1 24/1/1
f 29/1/1 27/1/1 21/1/1
f 29/1/1 28/1/1 27/1/1
f 30/1/1 26/1/1 28/1/1
f 30/1/1 28/1/1 29/1/1
f 31/3/1 30/3/1 29/3/1
f 32/3/1 30/3/1 31/3/1
f 33/1/1 32/1/1 31/1/1
f 34/1/1 32/1/1 33/1/1
f 37/2/1 36/2/1 35/2/1
f 38/2/1 36/2/1 37/2/1
f 43/3/1 40/3/1 39/3/1
f 44/3/1 40/3/1 43/3/1
f 45/3/1 42/3/1 41/3/1
f 46/3/1 42/3/1 45/3/1
f 47/1/1 44/1/1 43/1/1
f 48/1/1 44/1/1 47/1/1
f 49/1/1 46/1/1 45/1/1
f 50/1/1 46/1/1 49/1/1
f 55/3/1 52/3/1 51/3/1
f 56/3/1 52/3/1 55/3/1
f 57/3/1 54/3/1 53/3/1
f 58/3/1 54/3/1 57/3/1
f 59/1/1 56/1/1 55/1/1
f 60/1/1 56/1/1 59/1/1
f 61/1/1 56/1/1 60/1/1
f 62/1/1 58/1/1 57/1/1
f 63/1/1 58/1/1 62/1/1
f 64/1/1 58/1/1 63/1/1
f 65/3/1 60/3/1 59/3/1
f 66/3/1 60/3/1 65/3/1
f 67/3/1 64/3/1 63/3/1
f 68/3/1 64/3/1 67/3/1
f 69/3/2 70/3/2 73/3/2
f 73/3/2 70/3/2 74/3/2
f 71/3/2 72/3/2 75/3/2
f 75/3/2 72/3/2 76/3/2
f 73/1/2 74/1/2 77/1/2
f 77/1/2 74/1/2 78/1/2
f 78/1/2 74/1/2 79/1/2
f 75/1/2 76/1/2 80/1/2
f 80/1/2 76/1/2 81/1/2
f 81/1/2 76/1/2 82/1/2
f 77/3/2 78/3/2 83/3/2
f 83/3/2 78/3/2 84/3/2
f 81/3/2 82/3/2 85/3/2
f 85/3/2 82/3/2 86/3/2
f 87/3/2 88/3/2 91/3/2
f 91/3/2 88/3/2 92/3/2
f 89/3/2 90/3/2 93/3/2
f 93/3/2 90/3/2 94/3/2
f 91/1/2 92/1/2 95/1/2
f 95/1/2 92/1/2 96/1/2
f 93/1/2 94/1/2 97/1/2
f 97/1/2 94/1/2 98/1/2
f 99/2/2 100/2/2 101/2/2
f 101/2/2 100/2/2 102/2/2
f 103/3/2 104/3/2 108/3/2
f 108/3/2 104/3/2 109/3/2
f 105/3/2 106/3/2 110/3/2
f 110/3/2 106/3/2 111/3/2
f 108/1/2 109/1/2 113/1/2
f 107/1/2 108/1/2 113/1/2
f 111/1/2 112/1/2 114/1/2
f 110/1/2 111/1/2 114/1/2
f 107/1/2 113/1/2 115/1/2
f 113/1/2 114/1/2 115/1/2
f 114/1/2 112/1/2 116/1/2
f 115/1/2 114/1/2 116/1/2
f 115/3/2 116/3/2 117/3/2
f 117/3/2 116/3/2 118/3/2
f 117/1/2 118/1/2 119/1/2
f 119/1/2 118/1/2 120/1/2
f 121/3/2 122/3/2 125/3/2
f 125/3/2 122/3/2 126/3/2
f 123/3/2 124/3/2 127/3/2
f 127/3/2 124/3/2 128/3/2
f 125/1/2 126/1/2 129/1/2
f 129/1/2 126/1/2 130/1/2
f 127/1/2 128/1/2 131/1/2
f 131/1/2 128/1/2 132/1/2
f 129/3/2 130/3/2 133/3/2
f 133/3/2 130/3/2 134/3/2
f 131/3/2 132/3/2 135/3/2
f 135/3/2 132/3/2 136/3/2
f 141/3/3 138/3/3 137/3/3
f 142/1/3 139/1/3 138/1/3
f 142/3/3 138/3/3 141/3/3
f 143/3/3 140/3/3 139/3/3
f 143/1/3 139/1/3 142/1/3
f 144/3/3 140/3/3 143/3/3
f 149/3/3 146/3/3 145/3/3
f 150/1/3 147/1/3 146/1/3
f 150/3/3 146/3/3 149/3/3
f 151/3/3 148/3/3 147/3/3
f 151/1/3 147/1/3 150/1/3
f 152/3/3 148/3/3 151/3/3
f 158/1/3 154/1/3 153/1/3
f 159/3/3 158/3/3 157/3/3
f 160/1/3 154/1/3 158/1/3
f 160/3/3 158/3/3 159/3/3
f 161/1/3 154/1/3 160/1/3
f 164/1/3 154/1/3 161/1/3
f 165/3/3 163/3/3 162/3/3
f 166/1/3 164/1/3 163/1/3
f 166/3/3 163/3/3 165/3/3
f 167/1/3 164/1/3 166/1/3
f 168/3/3 155/3/3 154/3/3
f 168/1/3 164/1/3 167/1/3
f 168/1/3 154/1/3 164/1/3
f 169/1/3 156/1/3 155/1/3
f 169/3/3 155/3/3 168/3/3
f 170/1/3 156/1/3 169/1/3
f 173/2/3 172/2/3 171/2/3
f 174/2/3 172/2/3 173/2/3
f 178/3/3 176/3/3 175/3/3
f 179/1/3 177/1/3 176/1/3
f 179/3/3 176/3/3 178/3/3
f 180/1/3 177/1/3 179/1/3
f 184/3/3 182/3/3 181/3/3
f 185/1/3 183/1/3 182/1/3
f 185/3/3 182/3/3 184/3/3
f 186/1/3 183/1/3 185/1/3
f 191/1/3 189/1/3 188/1/3
f 191/3/3 190/3/3 189/3/3
f 192/3/3 190/3/3 191/3/3
f 193/3/3 188/3/3 187/3/3
f 194/1/3 191/1/3 188/1/3
f 194/3/3 188/3/3 193/3/3
f 195/1/3 191/1/3 194/1/3
f 199/1/3 198/1/3 197/1/3
f 201/3/3 197/3/3 196/3/3
f 202/1/3 199/1/3 197/1/3
f 202/3/3 197/3/3 201/3/3
f 203/3/3 200/3/3 199/3/3
f 203/1/3 199/1/3 202/1/3
f 204/3/3 200/3/3 203/3/3
f 206/1/4 207/1/4 209/1/4
f 207/3/4 208/3/4 209/3/4
f 209/3/4 208/3/4 210/3/4
f 205/3/4 206/3/4 211/3/4
f 206/1/4 209/1/4 212/1/4
f 211/3/4 206/3/4 212/3/4
f 212/1/4 209/1/4 213/1/4
f 215/1/4 216/1/4 217/1/4
f 214/3/4 215/3/4 219/3/4
f 215/1/4 217/1/4 220/1/4
f 219/3/4 215/3/4 220/3/4
f 217/3/4 218/3/4 221/3/4
f 220/1/4 217/1/4 221/1/4
f 221/3/4 218/3/4 222/3/4
f 223/3/4 224/3/4 226/3/4
f 224/1/4 225/1/4 227/1/4
f 226/3/4 224/3/4 227/3/4
f 227/1/4 225/1/4 228/1/4
f 229/3/4 230/3/4 232/3/4
f 230/1/4 231/1/4 233/1/4
f 232/3/4 230/3/4 233/3/4
f 233/1/4 231/1/4 234/1/4
f 235/2/4 236/2/4 237/2/4
f 237/2/4 236/2/4 238/2/4
f 239/1/4 240/1/4 244/1/4
f 243/3/4 244/3/4 245/3/4
f 244/1/4 240/1/4 246/1/4
f 245/3/4 244/3/4 246/3/4
f 246/1/4 240/1/4 247/1/4
f 247/1/4 240/1/4 250/1/4
f 248/3/4 249/3/4 251/3/4
f 249/1/4 250/1/4 252/1/4
f 251/3/4 249/3/4 252/3/4
f 252/1/4 250/1/4 253/1/4
f 240/3/4 241/3/4 254/3/4
f 253/1/4 250/1/4 254/1/4
f 250/1/4 240/1/4 254/1/4
f 241/1/4 242/1/4 255/1/4
f 254/3/4 241/3/4 255/3/4
f 255/1/4 242/1/4 256/1/4
f 257/3/4 258/3/4 261/3/4
f 258/1/4 259/1/4 262/1/4
f 261/3/4 258/3/4 262/3/4
f 259/3/4 260/3/4 263/3/4
f 262/1/4 259/1/4 263/1/4
f 263/3/4 260/3/4 264/3/4
f 265/3/4 266/3/4 269/3/4
f 266/1/4 267/1/4 270/1/4
f 269/3/4 266/3/4 270/3/4
f 267/3/4 268/3/4 271/3/4
f 270/1/4 267/1/4 271/1/4
f 271/3/4 268/3/4 272/3/4
f 277/3/5 274/3/5 273/3/5
f 278/3/5 274/3/5 277/3/5
f 279/3/5 276/3/5 275/3/5
f 280/3/5 276/3/5 279/3/5
f 285/3/5 282/3/5 281/3/5
f 286/3/5 282/3/5 285/3/5
f 287/3/5 284/3/5 283/3/5
f 288/3/5 284/3/5 287/3/5
f 291/2/5 290/2/5 289/2/5
f 292/2/5 290/2/5 291/2/5
f 298/3/5 294/3/5 293/3/5
f 299/3/5 296/3/5 295/3/5
f 301/3/5 298/3/5 297/3/5
f 302/3/5 294/3/5 298/3/5
f 302/3/5 298/3/5 301/3/5
f 303/3/5 300/3/5 299/3/5
f 303/3/5 299/3/5 295/3/5
f 304/3/5 300/3/5 303/3/5
f 309/3/5 306/3/5 305/3/5
f 310/3/5 306/3/5 309/3/5
f 311/3/5 308/3/5 307/3/5
f 312/3/5 308/3/5 311/3/5
f 313/3/5 306/3/5 310/3/5
f 314/3/5 306/3/5 313/3/5
f 315/3/5 311/3/5 307/3/5
f 316/3/5 311/3/5 315/3/5
f 320/1/5 318/1/5 317/1/5
f 321/1/5 318/1/5 320/1/5
f 323/1/5 320/1/5 319/1/5
f 323/1/5 322/1/5 321/1/5
f 323/1/5 321/1/5 320/1/5
f 324/1/5 322/1/5 323/1/5
f 325/1/5 323/1/5 319/1/5
f 326/1/5 322/1/5 324/1/5
f 327/1/5 325/1/5 319/1/5
f 327/1/5 326/1/5 325/1/5
f 328/1/5 326/1/5 327/1/5
f 329/1/5 322/1/5 326/1/5
f 329/1/5 326/1/5 328/1/5
f 330/1/5 322/1/5 329/1/5
f 331/1/5 329/1/5 328/1/5
f 332/1/5 329/1/5 331/1/5
f 333/3/6 334/3/6 337/3/6
f 337/3/6 334/3/6 338/3/6
f 335/3/6 336/3/6 339/3/6
f 339/3/6 336/3/6 340/3/6
f 333/3/6 337/3/6 341/3/6
f 341/3/6 337/3/6 342/3/6
f 340/3/6 336/3/6 343/3/6
f 343/3/6 336/3/6 344/3/6
f 345/3/6 346/3/6 349/3/6
f 347/3/6 348/3/6 352/3/6
f 349/3/6 350/3/6 353/3/6
f 345/3/6 349/3/6 353/3/6
f 353/3/6 350/3/6 354/3/6
f 351/3/6 352/3/6 355/3/6
f 352/3/6 348/3/6 356/3/6
f 355/3/6 352/3/6 356/3/6
f 357/1/6 358/1/6 359/1/6
f 359/1/6 358/1/6 360/1/6
f 357/1/6 359/1/6 361/1/6
f 359/3/6 360/3/6 361/3/6
f 360/1/6 358/1/6 362/1/6
f 361/3/6 360/3/6 362/3/6
f 357/1/6 361/1/6 363/1/6
f 361/1/6 362/1/6 363/1/6
f 362/1/6 358/1/6 364/1/6
f 363/1/6 362/1/6 364/1/6
