# MagicaVoxel @ Ephtracy

# group
o 

# material
mtllib treeblock.mtl
usemtl palette

# normals
vn -1 0 0
vn 1 0 0
vn 0 0 1
vn 0 0 -1
vn 0 -1 0
vn 0 1 0

# texcoords
vt 0.880859 0.5
vt 0.927734 0.5
vt 0.935547 0.5

# verts
v -1.5 0 1
v -1.5 0 -1
v -1.5 0.6 0.6
v -1.5 0.6 0.5
v -1.5 0.7 -0.6
v -1.5 0.7 -0.7
v -1.5 0.9 0.1
v -1.5 0.9 0
v -1.5 1.1 0.6
v -1.5 1.1 0.5
v -1.5 1.1 -0.6
v -1.5 1.1 -0.7
v -1.5 1.4 -0.4
v -1.5 1.4 -0.5
v -1.5 1.5 -0.4
v -1.5 1.5 -0.5
v -1.5 1.7 0.1
v -1.5 1.7 0
v -1.5 2.1 0.3
v -1.5 2.1 0.2
v -1.5 2.1 -0.5
v -1.5 2.1 -0.6
v -1.5 2.3 0.8
v -1.5 2.3 0.7
v -1.5 2.6 0.3
v -1.5 2.6 0.2
v -1.5 2.8 -0.5
v -1.5 2.8 -0.6
v -1.5 2.9 0.8
v -1.5 2.9 0.7
v -1.5 3.2 1
v -1.5 3.2 -1
v -1.4 0 1.3
v -1.4 0 1
v -1.4 0 -1
v -1.4 0 -1.3
v -1.4 3.2 1.3
v -1.4 3.2 1
v -1.4 3.2 -1
v -1.4 3.2 -1.3
v -1.3 0 1.4
v -1.3 0 1.3
v -1.3 0 -1.3
v -1.3 0 -1.4
v -1.3 3.2 1.4
v -1.3 3.2 1.3
v -1.3 3.2 -1.3
v -1.3 3.2 -1.4
v -1 0 1.5
v -1 0 1.4
v -1 0 -1.4
v -1 0 -1.5
v -1 3.2 1.5
v -1 3.2 1.4
v -1 3.2 -1.4
v -1 3.2 -1.5
v 1 0 1.5
v 1 0 1.4
v 1 0 -1.4
v 1 0 -1.5
v 1 3.2 1.5
v 1 3.2 1.4
v 1 3.2 -1.4
v 1 3.2 -1.5
v 1.3 0 1.4
v 1.3 0 1.3
v 1.3 0 -1.3
v 1.3 0 -1.4
v 1.3 3.2 1.4
v 1.3 3.2 1.3
v 1.3 3.2 -1.3
v 1.3 3.2 -1.4
v 1.4 0 1.3
v 1.4 0 1
v 1.4 0 -1
v 1.4 0 -1.3
v 1.4 3.2 1.3
v 1.4 3.2 1
v 1.4 3.2 -1
v 1.4 3.2 -1.3
v 1.5 0 1
v 1.5 0 -1
v 1.5 0.5 0
v 1.5 0.5 -0.1
v 1.5 0.7 0.7
v 1.5 0.7 0.6
v 1.5 0.8 0
v 1.5 0.8 -0.1
v 1.5 1 -0.2
v 1.5 1 -0.3
v 1.5 1.3 0.7
v 1.5 1.3 0.6
v 1.5 1.3 -0.6
v 1.5 1.3 -0.8
v 1.5 1.5 -0.2
v 1.5 1.5 -0.3
v 1.5 1.6 0.4
v 1.5 1.6 0.3
v 1.5 1.8 0.4
v 1.5 1.8 0.3
v 1.5 2 0.8
v 1.5 2 0.7
v 1.5 2.1 -0.1
v 1.5 2.1 -0.3
v 1.5 2.3 -0.6
v 1.5 2.3 -0.8
v 1.5 2.9 0.8
v 1.5 2.9 0.7
v 1.5 2.9 -0.1
v 1.5 2.9 -0.3
v 1.5 3.2 1
v 1.5 3.2 -1
v -1 0 1.5
v -1 3.2 1.5
v -0.7 2.2 1.5
v -0.7 2.8 1.5
v -0.6 0.5 1.5
v -0.6 1.2 1.5
v -0.6 2.2 1.5
v -0.6 2.8 1.5
v -0.5 0.5 1.5
v -0.5 1.2 1.5
v -0.3 1.5 1.5
v -0.3 1.6 1.5
v -0.2 1.5 1.5
v -0.2 1.6 1.5
v 0.2 0.6 1.5
v 0.2 1.1 1.5
v 0.2 2 1.5
v 0.2 2.9 1.5
v 0.3 0.6 1.5
v 0.3 1.1 1.5
v 0.4 2 1.5
v 0.4 2.9 1.5
v 0.5 1.1 1.5
v 0.5 1.6 1.5
v 0.6 0.2 1.5
v 0.6 0.6 1.5
v 0.7 0.2 1.5
v 0.7 0.6 1.5
v 0.7 1.1 1.5
v 0.7 1.6 1.5
v 1 0 1.5
v 1 3.2 1.5
v -1.3 0 1.4
v -1.3 3.2 1.4
v -1 0 1.4
v -1 3.2 1.4
v 1 0 1.4
v 1 3.2 1.4
v 1.3 0 1.4
v 1.3 3.2 1.4
v -1.4 0 1.3
v -1.4 3.2 1.3
v -1.3 0 1.3
v -1.3 3.2 1.3
v 1.3 0 1.3
v 1.3 3.2 1.3
v 1.4 0 1.3
v 1.4 3.2 1.3
v -1.5 0 1
v -1.5 3.2 1
v -1.4 0 1
v -1.4 3.2 1
v 1.4 0 1
v 1.4 3.2 1
v 1.5 0 1
v 1.5 3.2 1
v -1.5 0 -1
v -1.5 3.2 -1
v -1.4 0 -1
v -1.4 3.2 -1
v 1.4 0 -1
v 1.4 3.2 -1
v 1.5 0 -1
v 1.5 3.2 -1
v -1.4 0 -1.3
v -1.4 3.2 -1.3
v -1.3 0 -1.3
v -1.3 3.2 -1.3
v 1.3 0 -1.3
v 1.3 3.2 -1.3
v 1.4 0 -1.3
v 1.4 3.2 -1.3
v -1.3 0 -1.4
v -1.3 3.2 -1.4
v -1 0 -1.4
v -1 3.2 -1.4
v 1 0 -1.4
v 1 3.2 -1.4
v 1.3 0 -1.4
v 1.3 3.2 -1.4
v -1 0 -1.5
v -1 3.2 -1.5
v -0.7 0.3 -1.5
v -0.7 0.6 -1.5
v -0.7 1.6 -1.5
v -0.7 2.5 -1.5
v -0.6 0.3 -1.5
v -0.6 0.6 -1.5
v -0.6 1.6 -1.5
v -0.6 2.5 -1.5
v -0.4 0.7 -1.5
v -0.4 1.3 -1.5
v -0.2 0.7 -1.5
v -0.2 1.3 -1.5
v -0.1 2 -1.5
v -0.1 2.9 -1.5
v 0 2 -1.5
v 0 2.9 -1.5
v 0.1 0.5 -1.5
v 0.1 1.4 -1.5
v 0.2 0.5 -1.5
v 0.2 1.4 -1.5
v 0.5 1.6 -1.5
v 0.5 1.7 -1.5
v 0.6 0.3 -1.5
v 0.6 1.1 -1.5
v 0.6 1.6 -1.5
v 0.6 1.7 -1.5
v 0.6 2 -1.5
v 0.6 2.8 -1.5
v 0.7 2 -1.5
v 0.7 2.8 -1.5
v 0.8 0.3 -1.5
v 0.8 1.1 -1.5
v 1 0 -1.5
v 1 3.2 -1.5
v -1 0 1.5
v 1 0 1.5
v -1.3 0 1.4
v -1 0 1.4
v 1 0 1.4
v 1.3 0 1.4
v -1.4 0 1.3
v -1.3 0 1.3
v -1 0 1.3
v 1 0 1.3
v 1.3 0 1.3
v 1.4 0 1.3
v -1.5 0 1
v -1.4 0 1
v -1.3 0 1
v 1.3 0 1
v 1.4 0 1
v 1.5 0 1
v -1.5 0 -1
v -1.4 0 -1
v -1.3 0 -1
v 1.3 0 -1
v 1.4 0 -1
v 1.5 0 -1
v -1.4 0 -1.3
v -1.3 0 -1.3
v -1 0 -1.3
v 1 0 -1.3
v 1.3 0 -1.3
v 1.4 0 -1.3
v -1.3 0 -1.4
v -1 0 -1.4
v 1 0 -1.4
v 1.3 0 -1.4
v -1 0 -1.5
v 1 0 -1.5
v -1 3.2 1.5
v 1 3.2 1.5
v -1.3 3.2 1.4
v -1 3.2 1.4
v 1 3.2 1.4
v 1.3 3.2 1.4
v -1.4 3.2 1.3
v -1.3 3.2 1.3
v -1 3.2 1.3
v 1 3.2 1.3
v 1.3 3.2 1.3
v 1.4 3.2 1.3
v -1.5 3.2 1
v -1.4 3.2 1
v -1.3 3.2 1
v 1.3 3.2 1
v 1.4 3.2 1
v 1.5 3.2 1
v -1.5 3.2 -1
v -1.4 3.2 -1
v -1.3 3.2 -1
v 1.3 3.2 -1
v 1.4 3.2 -1
v 1.5 3.2 -1
v -1.4 3.2 -1.3
v -1.3 3.2 -1.3
v -1 3.2 -1.3
v 1 3.2 -1.3
v 1.3 3.2 -1.3
v 1.4 3.2 -1.3
v -1.3 3.2 -1.4
v -1 3.2 -1.4
v 1 3.2 -1.4
v 1.3 3.2 -1.4
v -1 3.2 -1.5
v 1 3.2 -1.5

# faces
f 3/3/1 2/3/1 1/3/1
f 4/3/1 2/3/1 3/3/1
f 5/3/1 2/3/1 4/3/1
f 6/3/1 2/3/1 5/3/1
f 7/3/1 5/3/1 4/3/1
f 8/3/1 5/3/1 7/3/1
f 9/3/1 3/3/1 1/3/1
f 9/1/1 4/1/1 3/1/1
f 10/3/1 7/3/1 4/3/1
f 10/1/1 4/1/1 9/1/1
f 11/3/1 5/3/1 8/3/1
f 11/1/1 6/1/1 5/1/1
f 12/3/1 2/3/1 6/3/1
f 12/1/1 6/1/1 11/1/1
f 13/3/1 11/3/1 8/3/1
f 13/3/1 12/3/1 11/3/1
f 14/3/1 12/3/1 13/3/1
f 15/3/1 13/3/1 8/3/1
f 15/1/1 14/1/1 13/1/1
f 16/3/1 12/3/1 14/3/1
f 16/1/1 14/1/1 15/1/1
f 17/3/1 7/3/1 10/3/1
f 17/1/1 8/1/1 7/1/1
f 17/3/1 10/3/1 9/3/1
f 18/3/1 16/3/1 15/3/1
f 18/1/1 8/1/1 17/1/1
f 18/3/1 15/3/1 8/3/1
f 19/3/1 17/3/1 9/3/1
f 19/3/1 18/3/1 17/3/1
f 20/3/1 18/3/1 19/3/1
f 21/3/1 12/3/1 16/3/1
f 21/3/1 18/3/1 20/3/1
f 21/3/1 16/3/1 18/3/1
f 22/3/1 12/3/1 21/3/1
f 23/3/1 19/3/1 9/3/1
f 23/3/1 9/3/1 1/3/1
f 24/3/1 19/3/1 23/3/1
f 25/1/1 20/1/1 19/1/1
f 25/3/1 19/3/1 24/3/1
f 26/3/1 21/3/1 20/3/1
f 26/1/1 20/1/1 25/1/1
f 27/1/1 22/1/1 21/1/1
f 27/3/1 21/3/1 26/3/1
f 27/3/1 26/3/1 25/3/1
f 28/3/1 12/3/1 22/3/1
f 28/1/1 22/1/1 27/1/1
f 29/1/1 24/1/1 23/1/1
f 29/3/1 23/3/1 1/3/1
f 30/3/1 27/3/1 25/3/1
f 30/1/1 24/1/1 29/1/1
f 30/3/1 28/3/1 27/3/1
f 30/3/1 25/3/1 24/3/1
f 31/3/1 29/3/1 1/3/1
f 31/3/1 30/3/1 29/3/1
f 32/3/1 12/3/1 28/3/1
f 32/3/1 30/3/1 31/3/1
f 32/3/1 28/3/1 30/3/1
f 32/3/1 2/3/1 12/3/1
f 37/3/1 34/3/1 33/3/1
f 38/3/1 34/3/1 37/3/1
f 39/3/1 36/3/1 35/3/1
f 40/3/1 36/3/1 39/3/1
f 45/3/1 42/3/1 41/3/1
f 46/3/1 42/3/1 45/3/1
f 47/3/1 44/3/1 43/3/1
f 48/3/1 44/3/1 47/3/1
f 53/3/1 50/3/1 49/3/1
f 54/3/1 50/3/1 53/3/1
f 55/3/1 52/3/1 51/3/1
f 56/3/1 52/3/1 55/3/1
f 57/3/2 58/3/2 61/3/2
f 61/3/2 58/3/2 62/3/2
f 59/3/2 60/3/2 63/3/2
f 63/3/2 60/3/2 64/3/2
f 65/3/2 66/3/2 69/3/2
f 69/3/2 66/3/2 70/3/2
f 67/3/2 68/3/2 71/3/2
f 71/3/2 68/3/2 72/3/2
f 73/3/2 74/3/2 77/3/2
f 77/3/2 74/3/2 78/3/2
f 75/3/2 76/3/2 79/3/2
f 79/3/2 76/3/2 80/3/2
f 81/3/2 82/3/2 83/3/2
f 83/3/2 82/3/2 84/3/2
f 81/3/2 83/3/2 85/3/2
f 85/3/2 83/3/2 86/3/2
f 83/1/2 84/1/2 87/1/2
f 86/3/2 83/3/2 87/3/2
f 84/3/2 82/3/2 88/3/2
f 87/1/2 84/1/2 88/1/2
f 87/3/2 88/3/2 89/3/2
f 88/3/2 82/3/2 89/3/2
f 89/3/2 82/3/2 90/3/2
f 85/1/2 86/1/2 91/1/2
f 81/3/2 85/3/2 91/3/2
f 86/3/2 87/3/2 92/3/2
f 91/1/2 86/1/2 92/1/2
f 87/3/2 89/3/2 92/3/2
f 90/3/2 82/3/2 93/3/2
f 93/3/2 82/3/2 94/3/2
f 92/3/2 89/3/2 95/3/2
f 89/1/2 90/1/2 95/1/2
f 91/3/2 92/3/2 95/3/2
f 90/3/2 93/3/2 96/3/2
f 95/1/2 90/1/2 96/1/2
f 91/3/2 95/3/2 97/3/2
f 95/3/2 96/3/2 97/3/2
f 97/3/2 96/3/2 98/3/2
f 91/3/2 97/3/2 99/3/2
f 97/1/2 98/1/2 99/1/2
f 98/3/2 96/3/2 100/3/2
f 99/1/2 98/1/2 100/1/2
f 81/3/2 91/3/2 101/3/2
f 91/3/2 99/3/2 101/3/2
f 99/3/2 100/3/2 101/3/2
f 101/3/2 100/3/2 102/3/2
f 100/3/2 96/3/2 103/3/2
f 102/3/2 100/3/2 103/3/2
f 96/3/2 93/3/2 104/3/2
f 103/3/2 96/3/2 104/3/2
f 93/1/2 94/1/2 105/1/2
f 104/3/2 93/3/2 105/3/2
f 94/3/2 82/3/2 106/3/2
f 105/1/2 94/1/2 106/1/2
f 101/1/2 102/1/2 107/1/2
f 81/3/2 101/3/2 107/3/2
f 102/3/2 103/3/2 108/3/2
f 107/1/2 102/1/2 108/1/2
f 103/1/2 104/1/2 109/1/2
f 108/3/2 103/3/2 109/3/2
f 104/3/2 105/3/2 110/3/2
f 109/1/2 104/1/2 110/1/2
f 105/3/2 106/3/2 110/3/2
f 108/3/2 109/3/2 111/3/2
f 107/3/2 108/3/2 111/3/2
f 109/3/2 110/3/2 111/3/2
f 81/3/2 107/3/2 111/3/2
f 106/3/2 82/3/2 112/3/2
f 111/3/2 110/3/2 112/3/2
f 110/3/2 106/3/2 112/3/2
f 115/3/3 114/3/3 113/3/3
f 116/3/3 114/3/3 115/3/3
f 117/3/3 115/3/3 113/3/3
f 118/3/3 115/3/3 117/3/3
f 119/1/3 116/1/3 115/1/3
f 119/3/3 115/3/3 118/3/3
f 120/3/3 114/3/3 116/3/3
f 120/1/3 116/1/3 119/1/3
f 121/1/3 118/1/3 117/1/3
f 121/3/3 117/3/3 113/3/3
f 122/3/3 119/3/3 118/3/3
f 122/1/3 118/1/3 121/1/3
f 122/3/3 120/3/3 119/3/3
f 123/3/3 122/3/3 121/3/3
f 123/3/3 120/3/3 122/3/3
f 124/3/3 120/3/3 123/3/3
f 125/3/3 123/3/3 121/3/3
f 125/1/3 124/1/3 123/1/3
f 126/3/3 120/3/3 124/3/3
f 126/1/3 124/1/3 125/1/3
f 127/3/3 125/3/3 121/3/3
f 127/3/3 126/3/3 125/3/3
f 128/3/3 126/3/3 127/3/3
f 129/3/3 120/3/3 126/3/3
f 129/3/3 126/3/3 128/3/3
f 130/3/3 114/3/3 120/3/3
f 130/3/3 120/3/3 129/3/3
f 131/1/3 128/1/3 127/1/3
f 131/3/3 127/3/3 121/3/3
f 132/3/3 129/3/3 128/3/3
f 132/1/3 128/1/3 131/1/3
f 133/1/3 130/1/3 129/1/3
f 133/3/3 129/3/3 132/3/3
f 133/3/3 132/3/3 131/3/3
f 134/3/3 114/3/3 130/3/3
f 134/1/3 130/1/3 133/1/3
f 135/3/3 133/3/3 131/3/3
f 135/3/3 134/3/3 133/3/3
f 136/3/3 134/3/3 135/3/3
f 137/3/3 121/3/3 113/3/3
f 137/3/3 131/3/3 121/3/3
f 137/3/3 135/3/3 131/3/3
f 138/3/3 135/3/3 137/3/3
f 139/3/3 137/3/3 113/3/3
f 139/1/3 138/1/3 137/1/3
f 140/3/3 135/3/3 138/3/3
f 140/1/3 138/1/3 139/1/3
f 141/1/3 136/1/3 135/1/3
f 141/3/3 135/3/3 140/3/3
f 142/3/3 134/3/3 136/3/3
f 142/1/3 136/1/3 141/1/3
f 143/3/3 141/3/3 140/3/3
f 143/3/3 140/3/3 139/3/3
f 143/3/3 142/3/3 141/3/3
f 143/3/3 139/3/3 113/3/3
f 144/3/3 134/3/3 142/3/3
f 144/3/3 142/3/3 143/3/3
f 144/3/3 114/3/3 134/3/3
f 147/3/3 146/3/3 145/3/3
f 148/3/3 146/3/3 147/3/3
f 151/3/3 150/3/3 149/3/3
f 152/3/3 150/3/3 151/3/3
f 155/3/3 154/3/3 153/3/3
f 156/3/3 154/3/3 155/3/3
f 159/3/3 158/3/3 157/3/3
f 160/3/3 158/3/3 159/3/3
f 163/3/3 162/3/3 161/3/3
f 164/3/3 162/3/3 163/3/3
f 167/3/3 166/3/3 165/3/3
f 168/3/3 166/3/3 167/3/3
f 169/3/4 170/3/4 171/3/4
f 171/3/4 170/3/4 172/3/4
f 173/3/4 174/3/4 175/3/4
f 175/3/4 174/3/4 176/3/4
f 177/3/4 178/3/4 179/3/4
f 179/3/4 178/3/4 180/3/4
f 181/3/4 182/3/4 183/3/4
f 183/3/4 182/3/4 184/3/4
f 185/3/4 186/3/4 187/3/4
f 187/3/4 186/3/4 188/3/4
f 189/3/4 190/3/4 191/3/4
f 191/3/4 190/3/4 192/3/4
f 193/3/4 194/3/4 195/3/4
f 195/3/4 194/3/4 196/3/4
f 196/3/4 194/3/4 197/3/4
f 197/3/4 194/3/4 198/3/4
f 193/3/4 195/3/4 199/3/4
f 195/1/4 196/1/4 199/1/4
f 196/3/4 197/3/4 200/3/4
f 199/1/4 196/1/4 200/1/4
f 197/1/4 198/1/4 201/1/4
f 200/3/4 197/3/4 201/3/4
f 198/3/4 194/3/4 202/3/4
f 201/1/4 198/1/4 202/1/4
f 200/3/4 201/3/4 203/3/4
f 199/3/4 200/3/4 203/3/4
f 201/3/4 202/3/4 203/3/4
f 203/3/4 202/3/4 204/3/4
f 199/3/4 203/3/4 205/3/4
f 203/1/4 204/1/4 205/1/4
f 204/3/4 202/3/4 206/3/4
f 205/1/4 204/1/4 206/1/4
f 205/3/4 206/3/4 207/3/4
f 206/3/4 202/3/4 207/3/4
f 202/3/4 194/3/4 208/3/4
f 207/3/4 202/3/4 208/3/4
f 205/3/4 207/3/4 209/3/4
f 207/1/4 208/1/4 209/1/4
f 208/3/4 194/3/4 210/3/4
f 209/1/4 208/1/4 210/1/4
f 205/3/4 209/3/4 211/3/4
f 199/3/4 205/3/4 211/3/4
f 209/3/4 210/3/4 211/3/4
f 211/3/4 210/3/4 212/3/4
f 199/3/4 211/3/4 213/3/4
f 211/1/4 212/1/4 213/1/4
f 212/3/4 210/3/4 214/3/4
f 213/1/4 212/1/4 214/1/4
f 213/3/4 214/3/4 215/3/4
f 214/3/4 210/3/4 215/3/4
f 215/3/4 210/3/4 216/3/4
f 193/3/4 199/3/4 217/3/4
f 199/3/4 213/3/4 217/3/4
f 213/3/4 215/3/4 217/3/4
f 217/3/4 215/3/4 218/3/4
f 215/1/4 216/1/4 219/1/4
f 218/3/4 215/3/4 219/3/4
f 216/3/4 210/3/4 220/3/4
f 219/1/4 216/1/4 220/1/4
f 220/3/4 210/3/4 221/3/4
f 221/3/4 210/3/4 222/3/4
f 218/3/4 219/3/4 223/3/4
f 219/3/4 220/3/4 223/3/4
f 221/1/4 222/1/4 223/1/4
f 220/3/4 221/3/4 223/3/4
f 222/3/4 210/3/4 224/3/4
f 223/1/4 222/1/4 224/1/4
f 217/1/4 218/1/4 225/1/4
f 193/3/4 217/3/4 225/3/4
f 218/3/4 223/3/4 226/3/4
f 225/1/4 218/1/4 226/1/4
f 223/3/4 224/3/4 226/3/4
f 193/3/4 225/3/4 227/3/4
f 225/3/4 226/3/4 227/3/4
f 210/3/4 194/3/4 228/3/4
f 227/3/4 226/3/4 228/3/4
f 226/3/4 224/3/4 228/3/4
f 224/3/4 210/3/4 228/3/4
f 232/3/5 230/3/5 229/3/5
f 233/3/5 230/3/5 232/3/5
f 236/3/5 232/3/5 231/3/5
f 237/2/5 233/2/5 232/2/5
f 237/3/5 232/3/5 236/3/5
f 238/3/5 234/3/5 233/3/5
f 238/2/5 233/2/5 237/2/5
f 239/3/5 234/3/5 238/3/5
f 242/3/5 236/3/5 235/3/5
f 243/2/5 237/2/5 236/2/5
f 243/2/5 238/2/5 237/2/5
f 243/3/5 236/3/5 242/3/5
f 243/2/5 239/2/5 238/2/5
f 244/3/5 240/3/5 239/3/5
f 244/2/5 239/2/5 243/2/5
f 245/3/5 240/3/5 244/3/5
f 247/3/5 242/3/5 241/3/5
f 248/2/5 243/2/5 242/2/5
f 248/3/5 242/3/5 247/3/5
f 248/2/5 244/2/5 243/2/5
f 248/2/5 245/2/5 244/2/5
f 249/2/5 245/2/5 248/2/5
f 250/2/5 245/2/5 249/2/5
f 251/3/5 246/3/5 245/3/5
f 251/2/5 245/2/5 250/2/5
f 252/3/5 246/3/5 251/3/5
f 253/3/5 249/3/5 248/3/5
f 254/2/5 250/2/5 249/2/5
f 254/3/5 249/3/5 253/3/5
f 255/2/5 250/2/5 254/2/5
f 256/2/5 250/2/5 255/2/5
f 257/3/5 251/3/5 250/3/5
f 257/2/5 250/2/5 256/2/5
f 258/3/5 251/3/5 257/3/5
f 259/3/5 255/3/5 254/3/5
f 260/2/5 256/2/5 255/2/5
f 260/3/5 255/3/5 259/3/5
f 261/3/5 257/3/5 256/3/5
f 261/2/5 256/2/5 260/2/5
f 262/3/5 257/3/5 261/3/5
f 263/3/5 261/3/5 260/3/5
f 264/3/5 261/3/5 263/3/5
f 265/3/6 266/3/6 268/3/6
f 268/3/6 266/3/6 269/3/6
f 267/3/6 268/3/6 272/3/6
f 268/2/6 269/2/6 273/2/6
f 272/3/6 268/3/6 273/3/6
f 269/3/6 270/3/6 274/3/6
f 273/2/6 269/2/6 274/2/6
f 274/3/6 270/3/6 275/3/6
f 271/3/6 272/3/6 278/3/6
f 272/2/6 273/2/6 279/2/6
f 273/2/6 274/2/6 279/2/6
f 278/3/6 272/3/6 279/3/6
f 274/2/6 275/2/6 279/2/6
f 275/3/6 276/3/6 280/3/6
f 279/2/6 275/2/6 280/2/6
f 280/3/6 276/3/6 281/3/6
f 277/3/6 278/3/6 283/3/6
f 278/2/6 279/2/6 284/2/6
f 283/3/6 278/3/6 284/3/6
f 279/2/6 280/2/6 284/2/6
f 280/2/6 281/2/6 284/2/6
f 284/2/6 281/2/6 285/2/6
f 285/2/6 281/2/6 286/2/6
f 281/3/6 282/3/6 287/3/6
f 286/2/6 281/2/6 287/2/6
f 287/3/6 282/3/6 288/3/6
f 284/3/6 285/3/6 289/3/6
f 285/2/6 286/2/6 290/2/6
f 289/3/6 285/3/6 290/3/6
f 290/2/6 286/2/6 291/2/6
f 291/2/6 286/2/6 292/2/6
f 286/3/6 287/3/6 293/3/6
f 292/2/6 286/2/6 293/2/6
f 293/3/6 287/3/6 294/3/6
f 290/3/6 291/3/6 295/3/6
f 291/2/6 292/2/6 296/2/6
f 295/3/6 291/3/6 296/3/6
f 292/3/6 293/3/6 297/3/6
f 296/2/6 292/2/6 297/2/6
f 297/3/6 293/3/6 298/3/6
f 296/3/6 297/3/6 299/3/6
f 299/3/6 297/3/6 300/3/6
