# MagicaVoxel @ Ephtracy

# group
o 

# material
mtllib Cabinet.mtl
usemtl palette

# normals
vn -1 0 0
vn 1 0 0
vn 0 0 1
vn 0 0 -1
vn 0 -1 0
vn 0 1 0

# texcoords
vt 0.826172 0.5
vt 0.833984 0.5
vt 0.837891 0.5
vt 0.865234 0.5
vt 0.962891 0.5
vt 0.990234 0.5

# verts
v -0.9 0 2
v -0.9 0 -2
v -0.9 6 2
v -0.9 6 -2
v 0.8 0 2
v 0.8 0 -2
v 0.8 0.1 1.9
v 0.8 0.1 0.0999999
v 0.8 0.1 -0.1
v 0.8 0.1 -1.9
v 0.8 5.9 1.9
v 0.8 5.9 0.0999999
v 0.8 5.9 -0.1
v 0.8 5.9 -1.9
v 0.8 6 2
v 0.8 6 -2
v 0.9 0.1 1.9
v 0.9 0.1 0.0999999
v 0.9 0.1 -0.1
v 0.9 0.1 -1.9
v 0.9 3.1 0.4
v 0.9 3.1 0.3
v 0.9 3.1 -0.2
v 0.9 3.1 -0.3
v 0.9 3.7 0.4
v 0.9 3.7 0.3
v 0.9 3.7 -0.2
v 0.9 3.7 -0.3
v 0.9 4 1.3
v 0.9 4 0.7
v 0.9 4.5 1.6
v 0.9 4.5 1.3
v 0.9 4.8 1
v 0.9 4.8 0.7
v 0.9 4.8 -0.5
v 0.9 4.8 -0.7
v 0.9 5 -0.5
v 0.9 5 -0.7
v 0.9 5.1 -1
v 0.9 5.1 -1.2
v 0.9 5.2 -0.6
v 0.9 5.2 -0.8
v 0.9 5.3 1.6
v 0.9 5.3 1
v 0.9 5.3 -1
v 0.9 5.3 -1.2
v 0.9 5.4 -0.6
v 0.9 5.4 -0.8
v 0.9 5.9 1.9
v 0.9 5.9 0.0999999
v 0.9 5.9 -0.1
v 0.9 5.9 -1.9
v 1 3.1 0.4
v 1 3.1 0.3
v 1 3.1 -0.2
v 1 3.1 -0.3
v 1 3.7 0.4
v 1 3.7 0.3
v 1 3.7 -0.2
v 1 3.7 -0.3
v 1 4 1.3
v 1 4 0.7
v 1 4.2 1.1
v 1 4.2 0.8
v 1 4.3 1.1
v 1 4.3 0.8
v 1 4.4 1.1
v 1 4.4 0.8
v 1 4.5 1.6
v 1 4.5 1.3
v 1 4.5 1.1
v 1 4.5 0.8
v 1 4.6 1
v 1 4.6 0.9
v 1 4.7 1.4
v 1 4.7 1.1
v 1 4.7 1
v 1 4.7 0.9
v 1 4.8 1.4
v 1 4.8 1.1
v 1 4.8 1
v 1 4.8 0.7
v 1 4.8 -0.5
v 1 4.8 -0.7
v 1 4.9 1.4
v 1 4.9 1.1
v 1 5 1.4
v 1 5 1.1
v 1 5 -0.5
v 1 5 -0.7
v 1 5.1 1.5
v 1 5.1 1.2
v 1 5.1 -1
v 1 5.1 -1.2
v 1 5.2 1.5
v 1 5.2 1.2
v 1 5.2 -0.6
v 1 5.2 -0.8
v 1 5.3 1.6
v 1 5.3 1
v 1 5.3 -1
v 1 5.3 -1.2
v 1 5.4 -0.6
v 1 5.4 -0.8
v -0.9 0 2
v -0.9 6 2
v 0.8 0 2
v 0.8 6 2
v 0.8 0.1 1.9
v 0.8 5.9 1.9
v 0.9 0.1 1.9
v 0.9 5.9 1.9
v 0.9 4.5 1.6
v 0.9 5.3 1.6
v 1 4.5 1.6
v 1 5.3 1.6
v 0.9 4 1.3
v 0.9 4.5 1.3
v 1 4 1.3
v 1 4.5 1.3
v 0.9 3.1 0.4
v 0.9 3.7 0.4
v 1 3.1 0.4
v 1 3.7 0.4
v 0.8 0.1 -0.1
v 0.8 5.9 -0.1
v 0.9 0.1 -0.1
v 0.9 5.9 -0.1
v 0.9 3.1 -0.2
v 0.9 3.7 -0.2
v 1 3.1 -0.2
v 1 3.7 -0.2
v 0.9 4.8 -0.5
v 0.9 5 -0.5
v 1 4.8 -0.5
v 1 5 -0.5
v 0.9 5.2 -0.6
v 0.9 5.4 -0.6
v 1 5.2 -0.6
v 1 5.4 -0.6
v 0.9 5.1 -1
v 0.9 5.3 -1
v 1 5.1 -1
v 1 5.3 -1
v 0.9 4.8 1
v 0.9 5.3 1
v 1 4.8 1
v 1 5.3 1
v 0.9 4 0.7
v 0.9 4.8 0.7
v 1 4 0.7
v 1 4.8 0.7
v 0.9 3.1 0.3
v 0.9 3.7 0.3
v 1 3.1 0.3
v 1 3.7 0.3
v 0.8 0.1 0.0999999
v 0.8 5.9 0.0999999
v 0.9 0.1 0.0999999
v 0.9 5.9 0.0999999
v 0.9 3.1 -0.3
v 0.9 3.7 -0.3
v 1 3.1 -0.3
v 1 3.7 -0.3
v 0.9 4.8 -0.7
v 0.9 5 -0.7
v 1 4.8 -0.7
v 1 5 -0.7
v 0.9 5.2 -0.8
v 0.9 5.4 -0.8
v 1 5.2 -0.8
v 1 5.4 -0.8
v 0.9 5.1 -1.2
v 0.9 5.3 -1.2
v 1 5.1 -1.2
v 1 5.3 -1.2
v 0.8 0.1 -1.9
v 0.8 5.9 -1.9
v 0.9 0.1 -1.9
v 0.9 5.9 -1.9
v -0.9 0 -2
v -0.9 6 -2
v 0.8 0 -2
v 0.8 6 -2
v -0.9 0 2
v 0.8 0 2
v -0.9 0 -2
v 0.8 0 -2
v 0.8 0.1 1.9
v 0.9 0.1 1.9
v 0.8 0.1 0.0999999
v 0.9 0.1 0.0999999
v 0.8 0.1 -0.1
v 0.9 0.1 -0.1
v 0.8 0.1 -1.9
v 0.9 0.1 -1.9
v 0.9 3.1 0.4
v 1 3.1 0.4
v 0.9 3.1 0.3
v 1 3.1 0.3
v 0.9 3.1 -0.2
v 1 3.1 -0.2
v 0.9 3.1 -0.3
v 1 3.1 -0.3
v 0.9 4 1.3
v 1 4 1.3
v 0.9 4 0.7
v 1 4 0.7
v 0.9 4.5 1.6
v 1 4.5 1.6
v 0.9 4.5 1.3
v 1 4.5 1.3
v 0.9 4.8 -0.5
v 1 4.8 -0.5
v 0.9 4.8 -0.7
v 1 4.8 -0.7
v 0.9 5.1 -1
v 1 5.1 -1
v 0.9 5.1 -1.2
v 1 5.1 -1.2
v 0.9 5.2 -0.6
v 1 5.2 -0.6
v 0.9 5.2 -0.8
v 1 5.2 -0.8
v 0.9 3.7 0.4
v 1 3.7 0.4
v 0.9 3.7 0.3
v 1 3.7 0.3
v 0.9 3.7 -0.2
v 1 3.7 -0.2
v 0.9 3.7 -0.3
v 1 3.7 -0.3
v 0.9 4.8 1
v 1 4.8 1
v 0.9 4.8 0.7
v 1 4.8 0.7
v 0.9 5 -0.5
v 1 5 -0.5
v 0.9 5 -0.7
v 1 5 -0.7
v 0.9 5.3 1.6
v 1 5.3 1.6
v 0.9 5.3 1
v 1 5.3 1
v 0.9 5.3 -1
v 1 5.3 -1
v 0.9 5.3 -1.2
v 1 5.3 -1.2
v 0.9 5.4 -0.6
v 1 5.4 -0.6
v 0.9 5.4 -0.8
v 1 5.4 -0.8
v 0.8 5.9 1.9
v 0.9 5.9 1.9
v 0.8 5.9 0.0999999
v 0.9 5.9 0.0999999
v 0.8 5.9 -0.1
v 0.9 5.9 -0.1
v 0.8 5.9 -1.9
v 0.9 5.9 -1.9
v -0.9 6 2
v 0.8 6 2
v -0.9 6 -2
v 0.8 6 -2

# faces
f 3/3/1 2/3/1 1/3/1
f 4/3/1 2/3/1 3/3/1
f 5/3/2 6/3/2 7/3/2
f 7/3/2 6/3/2 8/3/2
f 8/3/2 6/3/2 9/3/2
f 9/3/2 6/3/2 10/3/2
f 5/3/2 7/3/2 11/3/2
f 8/3/2 9/3/2 12/3/2
f 12/3/2 9/3/2 13/3/2
f 10/3/2 6/3/2 14/3/2
f 12/3/2 13/3/2 15/3/2
f 13/3/2 14/3/2 15/3/2
f 5/3/2 11/3/2 15/3/2
f 11/3/2 12/3/2 15/3/2
f 14/3/2 6/3/2 16/3/2
f 15/3/2 14/3/2 16/3/2
f 17/3/2 18/3/2 21/3/2
f 21/3/2 18/3/2 22/3/2
f 19/3/2 20/3/2 23/3/2
f 23/3/2 20/3/2 24/3/2
f 17/3/2 21/3/2 25/3/2
f 22/3/2 18/3/2 26/3/2
f 19/3/2 23/3/2 27/3/2
f 24/3/2 20/3/2 28/3/2
f 17/3/2 25/3/2 29/3/2
f 25/3/2 26/3/2 29/3/2
f 29/3/2 26/3/2 30/3/2
f 17/3/2 29/3/2 31/3/2
f 31/3/2 29/3/2 32/3/2
f 30/3/2 26/3/2 34/3/2
f 27/3/2 28/3/2 35/3/2
f 28/3/2 20/3/2 35/3/2
f 35/3/2 20/3/2 36/3/2
f 27/3/2 35/3/2 37/3/2
f 36/3/2 20/3/2 38/3/2
f 38/3/2 20/3/2 39/3/2
f 37/3/2 38/3/2 39/3/2
f 39/3/2 20/3/2 40/3/2
f 37/3/2 39/3/2 41/3/2
f 41/3/2 39/3/2 42/3/2
f 17/3/2 31/3/2 43/3/2
f 33/3/2 34/3/2 44/3/2
f 42/3/2 39/3/2 45/3/2
f 40/3/2 20/3/2 46/3/2
f 37/3/2 41/3/2 47/3/2
f 42/3/2 45/3/2 48/3/2
f 45/3/2 46/3/2 48/3/2
f 17/3/2 43/3/2 49/3/2
f 43/3/2 44/3/2 49/3/2
f 34/3/2 26/3/2 50/3/2
f 49/3/2 44/3/2 50/3/2
f 26/3/2 18/3/2 50/3/2
f 44/3/2 34/3/2 50/3/2
f 47/3/2 48/3/2 51/3/2
f 19/3/2 27/3/2 51/3/2
f 27/3/2 37/3/2 51/3/2
f 37/3/2 47/3/2 51/3/2
f 48/3/2 46/3/2 52/3/2
f 51/3/2 48/3/2 52/3/2
f 46/3/2 20/3/2 52/3/2
f 53/2/2 54/2/2 57/2/2
f 57/2/2 54/2/2 58/2/2
f 55/2/2 56/2/2 59/2/2
f 59/2/2 56/2/2 60/2/2
f 61/2/2 62/2/2 63/2/2
f 63/2/2 62/2/2 64/2/2
f 61/2/2 63/2/2 65/2/2
f 63/1/2 64/1/2 65/1/2
f 64/2/2 62/2/2 66/2/2
f 65/1/2 64/1/2 66/1/2
f 61/2/2 65/2/2 67/2/2
f 65/2/2 66/2/2 67/2/2
f 66/2/2 62/2/2 68/2/2
f 67/2/2 66/2/2 68/2/2
f 61/2/2 67/2/2 70/2/2
f 67/1/2 68/1/2 71/1/2
f 70/2/2 67/2/2 71/2/2
f 68/2/2 62/2/2 72/2/2
f 71/1/2 68/1/2 72/1/2
f 70/2/2 71/2/2 73/2/2
f 69/2/2 70/2/2 73/2/2
f 71/2/2 72/2/2 73/2/2
f 73/2/2 72/2/2 74/2/2
f 69/2/2 73/2/2 75/2/2
f 75/2/2 73/2/2 76/2/2
f 73/1/2 74/1/2 77/1/2
f 76/2/2 73/2/2 77/2/2
f 74/2/2 72/2/2 78/2/2
f 77/1/2 74/1/2 78/1/2
f 75/1/2 76/1/2 79/1/2
f 69/2/2 75/2/2 79/2/2
f 76/2/2 77/2/2 80/2/2
f 79/1/2 76/1/2 80/1/2
f 77/2/2 78/2/2 80/2/2
f 80/2/2 78/2/2 81/2/2
f 72/2/2 62/2/2 82/2/2
f 81/2/2 78/2/2 82/2/2
f 78/2/2 72/2/2 82/2/2
f 80/2/2 81/2/2 85/2/2
f 79/2/2 80/2/2 85/2/2
f 69/2/2 79/2/2 85/2/2
f 85/2/2 81/2/2 86/2/2
f 69/2/2 85/2/2 87/2/2
f 85/1/2 86/1/2 87/1/2
f 86/2/2 81/2/2 88/2/2
f 87/1/2 86/1/2 88/1/2
f 83/6/2 84/6/2 89/6/2
f 89/6/2 84/6/2 90/6/2
f 69/2/2 87/2/2 91/2/2
f 87/2/2 88/2/2 91/2/2
f 91/2/2 88/2/2 92/2/2
f 69/2/2 91/2/2 95/2/2
f 91/1/2 92/1/2 95/1/2
f 92/2/2 88/2/2 96/2/2
f 95/1/2 92/1/2 96/1/2
f 69/2/2 95/2/2 99/2/2
f 95/2/2 96/2/2 99/2/2
f 88/2/2 81/2/2 100/2/2
f 99/2/2 96/2/2 100/2/2
f 96/2/2 88/2/2 100/2/2
f 93/4/2 94/4/2 101/4/2
f 101/4/2 94/4/2 102/4/2
f 97/5/2 98/5/2 103/5/2
f 103/5/2 98/5/2 104/5/2
f 107/3/3 106/3/3 105/3/3
f 108/3/3 106/3/3 107/3/3
f 111/3/3 110/3/3 109/3/3
f 112/3/3 110/3/3 111/3/3
f 115/2/3 114/2/3 113/2/3
f 116/2/3 114/2/3 115/2/3
f 119/2/3 118/2/3 117/2/3
f 120/2/3 118/2/3 119/2/3
f 123/2/3 122/2/3 121/2/3
f 124/2/3 122/2/3 123/2/3
f 127/3/3 126/3/3 125/3/3
f 128/3/3 126/3/3 127/3/3
f 131/2/3 130/2/3 129/2/3
f 132/2/3 130/2/3 131/2/3
f 135/6/3 134/6/3 133/6/3
f 136/6/3 134/6/3 135/6/3
f 139/5/3 138/5/3 137/5/3
f 140/5/3 138/5/3 139/5/3
f 143/4/3 142/4/3 141/4/3
f 144/4/3 142/4/3 143/4/3
f 145/2/4 146/2/4 147/2/4
f 147/2/4 146/2/4 148/2/4
f 149/2/4 150/2/4 151/2/4
f 151/2/4 150/2/4 152/2/4
f 153/2/4 154/2/4 155/2/4
f 155/2/4 154/2/4 156/2/4
f 157/3/4 158/3/4 159/3/4
f 159/3/4 158/3/4 160/3/4
f 161/2/4 162/2/4 163/2/4
f 163/2/4 162/2/4 164/2/4
f 165/6/4 166/6/4 167/6/4
f 167/6/4 166/6/4 168/6/4
f 169/5/4 170/5/4 171/5/4
f 171/5/4 170/5/4 172/5/4
f 173/4/4 174/4/4 175/4/4
f 175/4/4 174/4/4 176/4/4
f 177/3/4 178/3/4 179/3/4
f 179/3/4 178/3/4 180/3/4
f 181/3/4 182/3/4 183/3/4
f 183/3/4 182/3/4 184/3/4
f 187/3/5 186/3/5 185/3/5
f 188/3/5 186/3/5 187/3/5
f 191/3/5 190/3/5 189/3/5
f 192/3/5 190/3/5 191/3/5
f 195/3/5 194/3/5 193/3/5
f 196/3/5 194/3/5 195/3/5
f 199/2/5 198/2/5 197/2/5
f 200/2/5 198/2/5 199/2/5
f 203/2/5 202/2/5 201/2/5
f 204/2/5 202/2/5 203/2/5
f 207/2/5 206/2/5 205/2/5
f 208/2/5 206/2/5 207/2/5
f 211/2/5 210/2/5 209/2/5
f 212/2/5 210/2/5 211/2/5
f 215/6/5 214/6/5 213/6/5
f 216/6/5 214/6/5 215/6/5
f 219/4/5 218/4/5 217/4/5
f 220/4/5 218/4/5 219/4/5
f 223/5/5 222/5/5 221/5/5
f 224/5/5 222/5/5 223/5/5
f 225/2/6 226/2/6 227/2/6
f 227/2/6 226/2/6 228/2/6
f 229/2/6 230/2/6 231/2/6
f 231/2/6 230/2/6 232/2/6
f 233/2/6 234/2/6 235/2/6
f 235/2/6 234/2/6 236/2/6
f 237/6/6 238/6/6 239/6/6
f 239/6/6 238/6/6 240/6/6
f 241/2/6 242/2/6 243/2/6
f 243/2/6 242/2/6 244/2/6
f 245/4/6 246/4/6 247/4/6
f 247/4/6 246/4/6 248/4/6
f 249/5/6 250/5/6 251/5/6
f 251/5/6 250/5/6 252/5/6
f 253/3/6 254/3/6 255/3/6
f 255/3/6 254/3/6 256/3/6
f 257/3/6 258/3/6 259/3/6
f 259/3/6 258/3/6 260/3/6
f 261/3/6 262/3/6 263/3/6
f 263/3/6 262/3/6 264/3/6
