# MagicaVoxel @ Ephtracy

# group
o 

# material
mtllib Desk.mtl
usemtl palette

# normals
vn -1 0 0
vn 1 0 0
vn 0 0 1
vn 0 0 -1
vn 0 -1 0
vn 0 1 0

# texcoords
vt 0.826172 0.5
vt 0.830078 0.5
vt 0.833984 0.5
vt 0.865234 0.5
vt 0.892578 0.5
vt 0.955078 0.5
vt 0.986328 0.5

# verts
v -0.9 0 2
v -0.9 0 1.8
v -0.9 0 -1.8
v -0.9 0 -2
v -0.9 1.8 1.8
v -0.9 1.8 -1.8
v -0.9 1.9 2
v -0.9 1.9 1.8
v -0.9 1.9 -1.8
v -0.9 1.9 -2
v -0.8 0.3 1.8
v -0.8 0.3 1
v -0.8 1.4 1
v -0.8 1.4 -1.4
v -0.8 1.8 1.8
v -0.8 1.8 -1.4
v -0.7 1.9 1.7
v -0.7 1.9 1.4
v -0.7 1.9 -0.8
v -0.7 1.9 -0.9
v -0.7 1.9 -1.2
v -0.7 1.9 -1.8
v -0.7 1.9 -1.9
v -0.7 2 -0.8
v -0.7 2 -0.9
v -0.7 2 -1.2
v -0.7 2 -1.9
v -0.7 2.4 1.7
v -0.7 2.4 1.4
v -0.6 2 1.4
v -0.6 2 1.2
v -0.6 2.1 1.4
v -0.6 2.1 1.3
v -0.6 2.2 1.4
v -0.6 2.2 1.3
v -0.6 2.3 1.4
v -0.6 2.3 1.2
v 0.8 0 2
v 0.8 0 1.8
v 0.8 0 -1.8
v 0.8 0 -2
v 0.8 0.3 1.9
v 0.8 0.3 1.8
v 0.8 1.8 2
v 0.8 1.8 1.9
v 0.8 1.8 -1.8
v 0.8 1.8 -2
v -0.7 0 2
v -0.7 0 1.8
v -0.7 0 -1.8
v -0.7 0 -2
v -0.7 0.3 1.9
v -0.7 0.3 1.8
v -0.7 1.8 2
v -0.7 1.8 1.9
v -0.7 1.8 -1.8
v -0.7 1.8 -2
v -0.5 2 1.4
v -0.5 2 1.2
v -0.5 2.1 1.4
v -0.5 2.1 1.3
v -0.5 2.2 1.4
v -0.5 2.2 1.3
v -0.5 2.3 1.4
v -0.5 2.3 1.2
v -0.4 1.9 1.7
v -0.4 1.9 1.4
v -0.4 2.4 1.7
v -0.4 2.4 1.4
v -0.1 1.9 -0.8
v -0.1 1.9 -0.9
v -0.1 2 -0.8
v -0.1 2 -0.9
v 0.2 1.9 -1.2
v 0.2 1.9 -1.9
v 0.2 2 -1.2
v 0.2 2 -1.9
v 0.8 1 1.8
v 0.8 1 1
v 0.8 1.1 1.8
v 0.8 1.1 1
v 0.8 1.4 1
v 0.8 1.4 0.9
v 0.8 1.8 1
v 0.8 1.8 0.9
v 0.9 0.3 1.8
v 0.9 0.3 1
v 0.9 0.6 1.6
v 0.9 0.6 1.2
v 0.9 0.7 1.6
v 0.9 0.7 1.2
v 0.9 1 1.8
v 0.9 1 1
v 0.9 1.1 1.8
v 0.9 1.1 1
v 0.9 1.4 1.6
v 0.9 1.4 1.2
v 0.9 1.4 0.9
v 0.9 1.4 -1.4
v 0.9 1.5 1.6
v 0.9 1.5 1.2
v 0.9 1.6 -2.38419e-07
v 0.9 1.6 -0.4
v 0.9 1.7 -2.38419e-07
v 0.9 1.7 -0.4
v 0.9 1.8 1.8
v 0.9 1.8 1
v 0.9 1.8 0.9
v 0.9 1.8 -1.4
v 1 0 2
v 1 0 1.8
v 1 0 -1.8
v 1 0 -2
v 1 0.6 1.6
v 1 0.6 1.2
v 1 0.7 1.6
v 1 0.7 1.2
v 1 1.4 1.6
v 1 1.4 1.2
v 1 1.5 1.6
v 1 1.5 1.2
v 1 1.6 -2.38419e-07
v 1 1.6 -0.4
v 1 1.7 -2.38419e-07
v 1 1.7 -0.4
v 1 1.8 1.8
v 1 1.8 -1.8
v 1 1.9 2
v 1 1.9 1.8
v 1 1.9 -1.8
v 1 1.9 -2
v -0.9 0 2
v -0.9 1.9 2
v -0.7 0 2
v -0.7 1.8 2
v -0.7 1.9 2
v 0.8 0 2
v 0.8 1.8 2
v 0.8 1.9 2
v 1 0 2
v 1 1.9 2
v -0.7 0.3 1.9
v -0.7 1.8 1.9
v 0.8 0.3 1.9
v 0.8 1.8 1.9
v -0.7 1.9 1.7
v -0.7 2.4 1.7
v -0.4 1.9 1.7
v -0.4 2.4 1.7
v 0.9 0.6 1.6
v 0.9 0.7 1.6
v 0.9 1.4 1.6
v 0.9 1.5 1.6
v 1 0.6 1.6
v 1 0.7 1.6
v 1 1.4 1.6
v 1 1.5 1.6
v -0.6 2.1 1.3
v -0.6 2.2 1.3
v -0.5 2.1 1.3
v -0.5 2.2 1.3
v 0.8 1.4 0.9
v 0.8 1.8 0.9
v 0.9 1.4 0.9
v 0.9 1.8 0.9
v 0.9 1.6 -2.38419e-07
v 0.9 1.7 -2.38419e-07
v 1 1.6 -2.38419e-07
v 1 1.7 -2.38419e-07
v -0.7 1.9 -0.8
v -0.7 2 -0.8
v -0.2 1.9 -0.8
v -0.2 2 -0.8
v -0.1 1.9 -0.8
v -0.1 2 -0.8
v -0.7 1.9 -1.2
v -0.7 2 -1.2
v 0.2 1.9 -1.2
v 0.2 2 -1.2
v -0.9 0 -1.8
v -0.9 1.8 -1.8
v -0.7 0 -1.8
v -0.7 1.8 -1.8
v 0.8 0 -1.8
v 0.8 1.8 -1.8
v 1 0 -1.8
v 1 1.8 -1.8
v -0.9 0 1.8
v -0.9 1.8 1.8
v -0.8 0.3 1.8
v -0.8 1.8 1.8
v -0.7 0 1.8
v -0.7 0.3 1.8
v 0.8 0 1.8
v 0.8 0.3 1.8
v 0.8 1 1.8
v 0.8 1.1 1.8
v 0.9 0.3 1.8
v 0.9 1 1.8
v 0.9 1.1 1.8
v 0.9 1.8 1.8
v 1 0 1.8
v 1 1.8 1.8
v -0.7 1.9 1.4
v -0.7 2.4 1.4
v -0.6 2 1.4
v -0.6 2.1 1.4
v -0.6 2.2 1.4
v -0.6 2.3 1.4
v -0.5 2 1.4
v -0.5 2.1 1.4
v -0.5 2.2 1.4
v -0.5 2.3 1.4
v -0.4 1.9 1.4
v -0.4 2.4 1.4
v -0.6 2 1.2
v -0.6 2.3 1.2
v -0.5 2 1.2
v -0.5 2.3 1.2
v 0.9 0.6 1.2
v 0.9 0.7 1.2
v 0.9 1.4 1.2
v 0.9 1.5 1.2
v 1 0.6 1.2
v 1 0.7 1.2
v 1 1.4 1.2
v 1 1.5 1.2
v -0.8 0.3 1
v -0.8 1.4 1
v 0.8 1 1
v 0.8 1.1 1
v 0.8 1.4 1
v 0.8 1.8 1
v 0.9 0.3 1
v 0.9 1 1
v 0.9 1.1 1
v 0.9 1.8 1
v 0.9 1.6 -0.4
v 0.9 1.7 -0.4
v 1 1.6 -0.4
v 1 1.7 -0.4
v -0.7 1.9 -0.9
v -0.7 2 -0.9
v -0.2 1.9 -0.9
v -0.2 2 -0.9
v -0.1 1.9 -0.9
v -0.1 2 -0.9
v -0.8 1.4 -1.4
v -0.8 1.8 -1.4
v 0.9 1.4 -1.4
v 0.9 1.8 -1.4
v -0.7 1.9 -1.9
v -0.7 2 -1.9
v 0.2 1.9 -1.9
v 0.2 2 -1.9
v -0.9 0 -2
v -0.9 1.9 -2
v -0.7 0 -2
v -0.7 1.8 -2
v -0.7 1.9 -2
v 0.8 0 -2
v 0.8 1.8 -2
v 0.8 1.9 -2
v 1 0 -2
v 1 1.9 -2
v -0.9 0 2
v -0.7 0 2
v 0.8 0 2
v 1 0 2
v -0.9 0 1.8
v -0.7 0 1.8
v 0.8 0 1.8
v 1 0 1.8
v -0.9 0 -1.8
v -0.7 0 -1.8
v 0.8 0 -1.8
v 1 0 -1.8
v -0.9 0 -2
v -0.7 0 -2
v 0.8 0 -2
v 1 0 -2
v -0.7 0.3 1.9
v 0.8 0.3 1.9
v -0.8 0.3 1.8
v -0.7 0.3 1.8
v 0.8 0.3 1.8
v 0.9 0.3 1.8
v -0.8 0.3 1
v 0.9 0.3 1
v 0.9 0.6 1.6
v 1 0.6 1.6
v 0.9 0.6 1.2
v 1 0.6 1.2
v 0.8 1.1 1.8
v 0.9 1.1 1.8
v 0.8 1.1 1
v 0.9 1.1 1
v 0.9 1.4 1.6
v 1 1.4 1.6
v 0.9 1.4 1.2
v 1 1.4 1.2
v -0.8 1.4 1
v 0.8 1.4 1
v 0.8 1.4 0.9
v 0.9 1.4 0.9
v -0.8 1.4 -1.4
v 0.9 1.4 -1.4
v 0.9 1.6 -2.38419e-07
v 1 1.6 -2.38419e-07
v 0.9 1.6 -0.4
v 1 1.6 -0.4
v -0.7 1.8 2
v 0.8 1.8 2
v -0.7 1.8 1.9
v 0.8 1.8 1.9
v -0.9 1.8 1.8
v -0.8 1.8 1.8
v 0.9 1.8 1.8
v 1 1.8 1.8
v 0.8 1.8 1
v 0.9 1.8 1
v 0.8 1.8 0.9
v 0.9 1.8 0.9
v -0.8 1.8 -1.4
v 0.9 1.8 -1.4
v -0.9 1.8 -1.8
v -0.7 1.8 -1.8
v 0.8 1.8 -1.8
v 1 1.8 -1.8
v -0.7 1.8 -2
v 0.8 1.8 -2
v -0.6 2 1.4
v -0.5 2 1.4
v -0.6 2 1.2
v -0.5 2 1.2
v -0.6 2.2 1.4
v -0.5 2.2 1.4
v -0.6 2.2 1.3
v -0.5 2.2 1.3
v 0.9 0.7 1.6
v 1 0.7 1.6
v 0.9 0.7 1.2
v 1 0.7 1.2
v 0.8 1 1.8
v 0.9 1 1.8
v 0.8 1 1
v 0.9 1 1
v 0.9 1.5 1.6
v 1 1.5 1.6
v 0.9 1.5 1.2
v 1 1.5 1.2
v 0.9 1.7 -2.38419e-07
v 1 1.7 -2.38419e-07
v 0.9 1.7 -0.4
v 1 1.7 -0.4
v -0.9 1.9 2
v -0.7 1.9 2
v 0.8 1.9 2
v 1 1.9 2
v -0.9 1.9 1.8
v -0.7 1.9 1.8
v 0.8 1.9 1.8
v 1 1.9 1.8
v -0.7 1.9 1.7
v -0.4 1.9 1.7
v -0.7 1.9 1.4
v -0.4 1.9 1.4
v -0.7 1.9 -0.8
v -0.2 1.9 -0.8
v -0.1 1.9 -0.8
v -0.7 1.9 -0.9
v -0.2 1.9 -0.9
v -0.1 1.9 -0.9
v -0.7 1.9 -1.2
v 0.2 1.9 -1.2
v -0.9 1.9 -1.8
v -0.7 1.9 -1.8
v 0.8 1.9 -1.8
v 1 1.9 -1.8
v -0.7 1.9 -1.9
v 0.2 1.9 -1.9
v -0.9 1.9 -2
v -0.7 1.9 -2
v 0.8 1.9 -2
v 1 1.9 -2
v -0.7 2 -0.8
v -0.2 2 -0.8
v -0.1 2 -0.8
v -0.7 2 -0.9
v -0.2 2 -0.9
v -0.1 2 -0.9
v -0.7 2 -1.2
v 0.2 2 -1.2
v -0.6 2 -1.3
v -0.5 2 -1.3
v -0.4 2 -1.4
v -0.3 2 -1.4
v -0.2 2 -1.4
v -0.1 2 -1.4
v 0 2 -1.4
v 0.1 2 -1.4
v -0.6 2 -1.6
v -0.5 2 -1.6
v -0.4 2 -1.8
v -0.3 2 -1.8
v -0.2 2 -1.8
v -0.1 2 -1.8
v 0 2 -1.8
v 0.1 2 -1.8
v -0.7 2 -1.9
v 0.2 2 -1.9
v -0.6 2.1 1.4
v -0.5 2.1 1.4
v -0.6 2.1 1.3
v -0.5 2.1 1.3
v -0.6 2.3 1.4
v -0.5 2.3 1.4
v -0.6 2.3 1.2
v -0.5 2.3 1.2
v -0.7 2.4 1.7
v -0.4 2.4 1.7
v -0.7 2.4 1.4
v -0.4 2.4 1.4

# faces
f 5/2/1 2/2/1 1/2/1
f 6/2/1 4/2/1 3/2/1
f 7/2/1 5/2/1 1/2/1
f 8/7/1 6/7/1 5/7/1
f 8/2/1 5/2/1 7/2/1
f 9/2/1 4/2/1 6/2/1
f 9/7/1 6/7/1 8/7/1
f 10/2/1 4/2/1 9/2/1
f 13/2/1 12/2/1 11/2/1
f 15/2/1 13/2/1 11/2/1
f 15/2/1 14/2/1 13/2/1
f 16/2/1 14/2/1 15/2/1
f 24/5/1 20/5/1 19/5/1
f 25/5/1 20/5/1 24/5/1
f 26/3/1 23/3/1 22/3/1
f 26/3/1 22/3/1 21/3/1
f 27/3/1 23/3/1 26/3/1
f 28/4/1 18/4/1 17/4/1
f 29/4/1 18/4/1 28/4/1
f 32/4/1 31/4/1 30/4/1
f 33/4/1 31/4/1 32/4/1
f 35/4/1 31/4/1 33/4/1
f 36/4/1 35/4/1 34/4/1
f 37/4/1 31/4/1 35/4/1
f 37/4/1 35/4/1 36/4/1
f 42/2/1 39/2/1 38/2/1
f 43/2/1 39/2/1 42/2/1
f 44/2/1 42/2/1 38/2/1
f 45/2/1 42/2/1 44/2/1
f 46/2/1 41/2/1 40/2/1
f 47/2/1 41/2/1 46/2/1
f 48/2/2 49/2/2 52/2/2
f 52/2/2 49/2/2 53/2/2
f 48/2/2 52/2/2 54/2/2
f 54/2/2 52/2/2 55/2/2
f 50/2/2 51/2/2 56/2/2
f 56/2/2 51/2/2 57/2/2
f 58/4/2 59/4/2 60/4/2
f 60/4/2 59/4/2 61/4/2
f 61/4/2 59/4/2 63/4/2
f 62/4/2 63/4/2 64/4/2
f 63/4/2 59/4/2 65/4/2
f 64/4/2 63/4/2 65/4/2
f 66/4/2 67/4/2 68/4/2
f 68/4/2 67/4/2 69/4/2
f 70/6/2 71/6/2 72/6/2
f 72/6/2 71/6/2 73/6/2
f 74/3/2 75/3/2 76/3/2
f 76/3/2 75/3/2 77/3/2
f 78/2/2 79/2/2 80/2/2
f 80/2/2 79/2/2 81/2/2
f 82/2/2 83/2/2 84/2/2
f 84/2/2 83/2/2 85/2/2
f 86/2/2 87/2/2 88/2/2
f 88/2/2 87/2/2 89/2/2
f 86/2/2 88/2/2 90/2/2
f 89/2/2 87/2/2 91/2/2
f 86/2/2 90/2/2 92/2/2
f 90/2/2 91/2/2 92/2/2
f 91/2/2 87/2/2 93/2/2
f 92/2/2 91/2/2 93/2/2
f 94/2/2 95/2/2 96/2/2
f 96/2/2 95/2/2 97/2/2
f 94/2/2 96/2/2 100/2/2
f 97/2/2 95/2/2 101/2/2
f 98/2/2 99/2/2 102/2/2
f 102/2/2 99/2/2 103/2/2
f 98/2/2 102/2/2 104/2/2
f 103/2/2 99/2/2 105/2/2
f 94/2/2 100/2/2 106/2/2
f 100/2/2 101/2/2 106/2/2
f 101/2/2 95/2/2 107/2/2
f 106/2/2 101/2/2 107/2/2
f 104/2/2 105/2/2 108/2/2
f 98/2/2 104/2/2 108/2/2
f 105/2/2 99/2/2 109/2/2
f 108/2/2 105/2/2 109/2/2
f 114/3/2 115/3/2 116/3/2
f 116/3/2 115/3/2 117/3/2
f 118/3/2 119/3/2 120/3/2
f 120/3/2 119/3/2 121/3/2
f 122/3/2 123/3/2 124/3/2
f 124/3/2 123/3/2 125/3/2
f 110/2/2 111/2/2 126/2/2
f 112/2/2 113/2/2 127/2/2
f 110/2/2 126/2/2 128/2/2
f 126/7/2 127/7/2 129/7/2
f 128/2/2 126/2/2 129/2/2
f 127/2/2 113/2/2 130/2/2
f 129/7/2 127/7/2 130/7/2
f 130/2/2 113/2/2 131/2/2
f 134/2/3 133/2/3 132/2/3
f 135/2/3 133/2/3 134/2/3
f 136/2/3 133/2/3 135/2/3
f 138/7/3 136/7/3 135/7/3
f 139/7/3 136/7/3 138/7/3
f 140/2/3 138/2/3 137/2/3
f 140/2/3 139/2/3 138/2/3
f 141/2/3 139/2/3 140/2/3
f 144/2/3 143/2/3 142/2/3
f 145/2/3 143/2/3 144/2/3
f 148/4/3 147/4/3 146/4/3
f 149/4/3 147/4/3 148/4/3
f 154/3/3 151/3/3 150/3/3
f 155/3/3 151/3/3 154/3/3
f 156/3/3 153/3/3 152/3/3
f 157/3/3 153/3/3 156/3/3
f 160/4/3 159/4/3 158/4/3
f 161/4/3 159/4/3 160/4/3
f 164/2/3 163/2/3 162/2/3
f 165/2/3 163/2/3 164/2/3
f 168/3/3 167/3/3 166/3/3
f 169/3/3 167/3/3 168/3/3
f 172/5/3 171/5/3 170/5/3
f 173/5/3 171/5/3 172/5/3
f 174/6/3 173/6/3 172/6/3
f 175/6/3 173/6/3 174/6/3
f 178/3/3 177/3/3 176/3/3
f 179/3/3 177/3/3 178/3/3
f 182/2/3 181/2/3 180/2/3
f 183/2/3 181/2/3 182/2/3
f 186/2/3 185/2/3 184/2/3
f 187/2/3 185/2/3 186/2/3
f 188/2/4 189/2/4 190/2/4
f 190/2/4 189/2/4 191/2/4
f 188/2/4 190/2/4 192/2/4
f 192/2/4 190/2/4 193/2/4
f 194/2/4 195/2/4 198/2/4
f 196/2/4 197/2/4 199/2/4
f 199/2/4 197/2/4 200/2/4
f 194/2/4 198/2/4 202/2/4
f 200/2/4 201/2/4 202/2/4
f 199/2/4 200/2/4 202/2/4
f 198/2/4 199/2/4 202/2/4
f 202/2/4 201/2/4 203/2/4
f 204/4/4 205/4/4 206/4/4
f 206/4/4 205/4/4 207/4/4
f 207/4/4 205/4/4 208/4/4
f 208/4/4 205/4/4 209/4/4
f 204/4/4 206/4/4 210/4/4
f 207/4/4 208/4/4 211/4/4
f 211/4/4 208/4/4 212/4/4
f 209/4/4 205/4/4 213/4/4
f 211/4/4 212/4/4 214/4/4
f 212/4/4 213/4/4 214/4/4
f 204/4/4 210/4/4 214/4/4
f 210/4/4 211/4/4 214/4/4
f 213/4/4 205/4/4 215/4/4
f 214/4/4 213/4/4 215/4/4
f 216/4/4 217/4/4 218/4/4
f 218/4/4 217/4/4 219/4/4
f 220/3/4 221/3/4 224/3/4
f 224/3/4 221/3/4 225/3/4
f 222/3/4 223/3/4 226/3/4
f 226/3/4 223/3/4 227/3/4
f 228/2/4 229/2/4 230/2/4
f 230/2/4 229/2/4 231/2/4
f 231/2/4 229/2/4 232/2/4
f 228/2/4 230/2/4 234/2/4
f 234/2/4 230/2/4 235/2/4
f 232/2/4 233/2/4 236/2/4
f 231/2/4 232/2/4 236/2/4
f 236/2/4 233/2/4 237/2/4
f 238/3/4 239/3/4 240/3/4
f 240/3/4 239/3/4 241/3/4
f 242/5/4 243/5/4 244/5/4
f 244/5/4 243/5/4 245/5/4
f 244/6/4 245/6/4 246/6/4
f 246/6/4 245/6/4 247/6/4
f 248/2/4 249/2/4 250/2/4
f 250/2/4 249/2/4 251/2/4
f 252/3/4 253/3/4 254/3/4
f 254/3/4 253/3/4 255/3/4
f 256/2/4 257/2/4 258/2/4
f 258/2/4 257/2/4 259/2/4
f 259/2/4 257/2/4 260/2/4
f 259/7/4 260/7/4 262/7/4
f 262/7/4 260/7/4 263/7/4
f 261/2/4 262/2/4 264/2/4
f 262/2/4 263/2/4 264/2/4
f 264/2/4 263/2/4 265/2/4
f 270/2/5 267/2/5 266/2/5
f 271/2/5 267/2/5 270/2/5
f 272/2/5 269/2/5 268/2/5
f 273/2/5 269/2/5 272/2/5
f 278/2/5 275/2/5 274/2/5
f 279/2/5 275/2/5 278/2/5
f 280/2/5 277/2/5 276/2/5
f 281/2/5 277/2/5 280/2/5
f 285/2/5 283/2/5 282/2/5
f 286/2/5 283/2/5 285/2/5
f 288/2/5 285/2/5 284/2/5
f 288/2/5 287/2/5 286/2/5
f 288/2/5 286/2/5 285/2/5
f 289/2/5 287/2/5 288/2/5
f 292/3/5 291/3/5 290/3/5
f 293/3/5 291/3/5 292/3/5
f 296/2/5 295/2/5 294/2/5
f 297/2/5 295/2/5 296/2/5
f 300/3/5 299/3/5 298/3/5
f 301/3/5 299/3/5 300/3/5
f 304/2/5 303/2/5 302/2/5
f 306/2/5 304/2/5 302/2/5
f 306/2/5 305/2/5 304/2/5
f 307/2/5 305/2/5 306/2/5
f 310/3/5 309/3/5 308/3/5
f 311/3/5 309/3/5 310/3/5
f 314/7/5 313/7/5 312/7/5
f 315/7/5 313/7/5 314/7/5
f 321/7/5 319/7/5 318/7/5
f 322/7/5 321/7/5 320/7/5
f 323/7/5 319/7/5 321/7/5
f 323/7/5 321/7/5 322/7/5
f 324/7/5 317/7/5 316/7/5
f 325/7/5 319/7/5 323/7/5
f 326/7/5 324/7/5 316/7/5
f 326/7/5 325/7/5 324/7/5
f 327/7/5 325/7/5 326/7/5
f 328/7/5 325/7/5 327/7/5
f 329/7/5 319/7/5 325/7/5
f 329/7/5 325/7/5 328/7/5
f 330/7/5 328/7/5 327/7/5
f 331/7/5 328/7/5 330/7/5
f 334/4/5 333/4/5 332/4/5
f 335/4/5 333/4/5 334/4/5
f 338/4/5 337/4/5 336/4/5
f 339/4/5 337/4/5 338/4/5
f 340/3/6 341/3/6 342/3/6
f 342/3/6 341/3/6 343/3/6
f 344/2/6 345/2/6 346/2/6
f 346/2/6 345/2/6 347/2/6
f 348/3/6 349/3/6 350/3/6
f 350/3/6 349/3/6 351/3/6
f 352/3/6 353/3/6 354/3/6
f 354/3/6 353/3/6 355/3/6
f 356/2/6 357/2/6 360/2/6
f 357/7/6 358/7/6 361/7/6
f 360/2/6 357/2/6 361/2/6
f 358/2/6 359/2/6 362/2/6
f 361/7/6 358/7/6 362/7/6
f 362/2/6 359/2/6 363/2/6
f 360/7/6 361/7/6 364/7/6
f 361/7/6 362/7/6 364/7/6
f 362/7/6 363/7/6 364/7/6
f 364/7/6 363/7/6 365/7/6
f 360/7/6 364/7/6 366/7/6
f 365/7/6 363/7/6 367/7/6
f 360/7/6 366/7/6 368/7/6
f 366/7/6 367/7/6 368/7/6
f 367/7/6 363/7/6 369/7/6
f 368/7/6 367/7/6 369/7/6
f 369/7/6 363/7/6 370/7/6
f 360/7/6 368/7/6 371/7/6
f 370/7/6 363/7/6 373/7/6
f 371/7/6 372/7/6 374/7/6
f 372/7/6 373/7/6 374/7/6
f 360/7/6 371/7/6 374/7/6
f 373/7/6 363/7/6 375/7/6
f 374/7/6 373/7/6 375/7/6
f 360/7/6 374/7/6 376/7/6
f 376/7/6 374/7/6 377/7/6
f 375/7/6 363/7/6 378/7/6
f 378/7/6 363/7/6 379/7/6
f 376/2/6 377/2/6 380/2/6
f 375/7/6 378/7/6 381/7/6
f 376/2/6 380/2/6 382/2/6
f 380/7/6 381/7/6 383/7/6
f 382/2/6 380/2/6 383/2/6
f 378/2/6 379/2/6 384/2/6
f 383/7/6 381/7/6 384/7/6
f 381/7/6 378/7/6 384/7/6
f 384/2/6 379/2/6 385/2/6
f 386/5/6 387/5/6 389/5/6
f 387/6/6 388/6/6 390/6/6
f 389/5/6 387/5/6 390/5/6
f 390/6/6 388/6/6 391/6/6
f 392/3/6 393/3/6 394/3/6
f 394/3/6 393/3/6 395/3/6
f 395/3/6 393/3/6 396/3/6
f 396/3/6 393/3/6 397/3/6
f 397/3/6 393/3/6 398/3/6
f 398/3/6 393/3/6 399/3/6
f 399/3/6 393/3/6 400/3/6
f 400/3/6 393/3/6 401/3/6
f 392/3/6 394/3/6 402/3/6
f 394/1/6 395/1/6 402/1/6
f 395/3/6 396/3/6 403/3/6
f 402/1/6 395/1/6 403/1/6
f 396/1/6 397/1/6 404/1/6
f 403/3/6 396/3/6 404/3/6
f 402/3/6 403/3/6 404/3/6
f 397/3/6 398/3/6 405/3/6
f 404/1/6 397/1/6 405/1/6
f 398/1/6 399/1/6 406/1/6
f 405/3/6 398/3/6 406/3/6
f 399/3/6 400/3/6 407/3/6
f 406/1/6 399/1/6 407/1/6
f 400/1/6 401/1/6 408/1/6
f 407/3/6 400/3/6 408/3/6
f 401/3/6 393/3/6 409/3/6
f 408/1/6 401/1/6 409/1/6
f 407/3/6 408/3/6 410/3/6
f 406/3/6 407/3/6 410/3/6
f 408/3/6 409/3/6 410/3/6
f 404/3/6 405/3/6 410/3/6
f 402/3/6 404/3/6 410/3/6
f 405/3/6 406/3/6 410/3/6
f 392/3/6 402/3/6 410/3/6
f 409/3/6 393/3/6 411/3/6
f 410/3/6 409/3/6 411/3/6
f 412/4/6 413/4/6 414/4/6
f 414/4/6 413/4/6 415/4/6
f 416/4/6 417/4/6 418/4/6
f 418/4/6 417/4/6 419/4/6
f 420/4/6 421/4/6 422/4/6
f 422/4/6 421/4/6 423/4/6
