# MagicaVoxel @ Ephtracy

# group
o 

# material
mtllib Bow.mtl
usemtl palette

# normals
vn -1 0 0
vn 1 0 0
vn 0 0 1
vn 0 0 -1
vn 0 -1 0
vn 0 1 0

# texcoords
vt 0.845703 0.5
vt 0.970703 0.5
vt 0.994141 0.5

# verts
v -1.7 0 1.9
v -1.7 0 1.7
v -1.7 0 -1.7
v -1.7 0 -1.9
v -1.7 0.1 1.7
v -1.7 0.1 -1.7
v -1.7 0.2 1.9
v -1.7 0.2 1.7
v -1.7 0.2 -1.7
v -1.7 0.2 -1.9
v -1.6 0 2
v -1.6 0 1.9
v -1.6 0 -1.9
v -1.6 0 -2
v -1.6 0.1 1.7
v -1.6 0.1 1.6
v -1.6 0.1 -1.6
v -1.6 0.1 -1.7
v -1.6 0.2 2
v -1.6 0.2 1.9
v -1.6 0.2 1.7
v -1.6 0.2 1.6
v -1.6 0.2 -1.6
v -1.6 0.2 -1.7
v -1.6 0.2 -1.9
v -1.6 0.2 -2
v -1.4 0 1.9
v -1.4 0 1.7
v -1.4 0 -1.7
v -1.4 0 -1.9
v -1.4 0.2 1.9
v -1.4 0.2 1.7
v -1.4 0.2 -1.7
v -1.4 0.2 -1.9
v -1.3 0.2 1.8
v -1.3 0.2 1.7
v -1.3 0.2 -1.7
v -1.3 0.2 -1.8
v -1.3 0.4 1.8
v -1.3 0.4 1.7
v -1.3 0.4 -1.7
v -1.3 0.4 -1.8
v -1.2 0 1.7
v -1.2 0 1.6
v -1.2 0 -1.6
v -1.2 0 -1.7
v -1.2 0.4 1.7
v -1.2 0.4 1.6
v -1.2 0.4 -1.6
v -1.2 0.4 -1.7
v -1.1 0 1.6
v -1.1 0 1.5
v -1.1 0 -1.5
v -1.1 0 -1.6
v -1.1 0.4 1.6
v -1.1 0.4 1.5
v -1.1 0.4 -1.5
v -1.1 0.4 -1.6
v -1 0 1.5
v -1 0 1.4
v -1 0 -1.4
v -1 0 -1.5
v -1 0.4 1.5
v -1 0.4 1.4
v -1 0.4 -1.4
v -1 0.4 -1.5
v -0.9 0 1.4
v -0.9 0 1.3
v -0.9 0 -1.3
v -0.9 0 -1.4
v -0.9 0.4 1.4
v -0.9 0.4 1.3
v -0.9 0.4 -1.3
v -0.9 0.4 -1.4
v -0.8 0 1.3
v -0.8 0 1.2
v -0.8 0 -1.2
v -0.8 0 -1.3
v -0.8 0.4 1.3
v -0.8 0.4 1.2
v -0.8 0.4 -1.2
v -0.8 0.4 -1.3
v -0.7 0 1.2
v -0.7 0 1.1
v -0.7 0 -1.1
v -0.7 0 -1.2
v -0.7 0.4 1.2
v -0.7 0.4 1.1
v -0.7 0.4 -1.1
v -0.7 0.4 -1.2
v -0.6 0 1.1
v -0.6 0 1
v -0.6 0 -1
v -0.6 0 -1.1
v -0.6 0.4 1.1
v -0.6 0.4 1
v -0.6 0.4 -1
v -0.6 0.4 -1.1
v -0.5 0 1
v -0.5 0 0.9
v -0.5 0 -0.9
v -0.5 0 -1
v -0.5 0.4 1
v -0.5 0.4 0.9
v -0.5 0.4 -0.9
v -0.5 0.4 -1
v -0.4 0 0.9
v -0.4 0 0.8
v -0.4 0 -0.8
v -0.4 0 -0.9
v -0.4 0.4 0.9
v -0.4 0.4 0.8
v -0.4 0.4 -0.8
v -0.4 0.4 -0.9
v -0.3 0 0.8
v -0.3 0 0.7
v -0.3 0 -0.7
v -0.3 0 -0.8
v -0.3 0.4 0.8
v -0.3 0.4 0.7
v -0.3 0.4 -0.7
v -0.3 0.4 -0.8
v -0.2 0 0.7
v -0.2 0 -0.7
v -0.2 0.4 0.7
v -0.2 0.4 -0.7
v -1.6 0 1.9
v -1.6 0 1.7
v -1.6 0 1.6
v -1.6 0 -1.6
v -1.6 0 -1.7
v -1.6 0 -1.9
v -1.6 0.1 1.6
v -1.6 0.1 -1.6
v -1.6 0.2 1.9
v -1.6 0.2 1.7
v -1.6 0.2 -1.7
v -1.6 0.2 -1.9
v -1.4 0 2
v -1.4 0 1.9
v -1.4 0 1.7
v -1.4 0 1.6
v -1.4 0 -1.6
v -1.4 0 -1.7
v -1.4 0 -1.9
v -1.4 0 -2
v -1.4 0.2 2
v -1.4 0.2 1.9
v -1.4 0.2 1.7
v -1.4 0.2 1.6
v -1.4 0.2 -1.6
v -1.4 0.2 -1.7
v -1.4 0.2 -1.9
v -1.4 0.2 -2
v -1.3 0 1.9
v -1.3 0 1.8
v -1.3 0 -1.8
v -1.3 0 -1.9
v -1.3 0.2 1.9
v -1.3 0.2 1.8
v -1.3 0.2 -1.8
v -1.3 0.2 -1.9
v -1.2 0 1.8
v -1.2 0 1.7
v -1.2 0 -1.7
v -1.2 0 -1.8
v -1.2 0.4 1.8
v -1.2 0.4 1.7
v -1.2 0.4 -1.7
v -1.2 0.4 -1.8
v -1.1 0 1.7
v -1.1 0 1.6
v -1.1 0 -1.6
v -1.1 0 -1.7
v -1.1 0.4 1.7
v -1.1 0.4 1.6
v -1.1 0.4 -1.6
v -1.1 0.4 -1.7
v -1 0 1.6
v -1 0 1.5
v -1 0 -1.5
v -1 0 -1.6
v -1 0.4 1.6
v -1 0.4 1.5
v -1 0.4 -1.5
v -1 0.4 -1.6
v -0.9 0 1.5
v -0.9 0 1.4
v -0.9 0 -1.4
v -0.9 0 -1.5
v -0.9 0.4 1.5
v -0.9 0.4 1.4
v -0.9 0.4 -1.4
v -0.9 0.4 -1.5
v -0.8 0 1.4
v -0.8 0 1.3
v -0.8 0 -1.3
v -0.8 0 -1.4
v -0.8 0.4 1.4
v -0.8 0.4 1.3
v -0.8 0.4 -1.3
v -0.8 0.4 -1.4
v -0.7 0 1.3
v -0.7 0 1.2
v -0.7 0 -1.2
v -0.7 0 -1.3
v -0.7 0.4 1.3
v -0.7 0.4 1.2
v -0.7 0.4 -1.2
v -0.7 0.4 -1.3
v -0.6 0 1.2
v -0.6 0 1.1
v -0.6 0 -1.1
v -0.6 0 -1.2
v -0.6 0.4 1.2
v -0.6 0.4 1.1
v -0.6 0.4 -1.1
v -0.6 0.4 -1.2
v -0.5 0 1.1
v -0.5 0 1
v -0.5 0 -1
v -0.5 0 -1.1
v -0.5 0.4 1.1
v -0.5 0.4 1
v -0.5 0.4 -1
v -0.5 0.4 -1.1
v -0.4 0 1
v -0.4 0 0.9
v -0.4 0 -0.9
v -0.4 0 -1
v -0.4 0.4 1
v -0.4 0.4 0.9
v -0.4 0.4 -0.9
v -0.4 0.4 -1
v -0.3 0 0.9
v -0.3 0 0.8
v -0.3 0 -0.8
v -0.3 0 -0.9
v -0.3 0.4 0.9
v -0.3 0.4 0.8
v -0.3 0.4 -0.8
v -0.3 0.4 -0.9
v -0.2 0 0.8
v -0.2 0 0.7
v -0.2 0 -0.7
v -0.2 0 -0.8
v -0.2 0.4 0.8
v -0.2 0.4 0.7
v -0.2 0.4 -0.7
v -0.2 0.4 -0.8
v -0.0999999 0 0.7
v -0.0999999 0 0.5
v -0.0999999 0 -0.6
v -0.0999999 0 -0.7
v -0.0999999 0.4 0.7
v -0.0999999 0.4 0.5
v -0.0999999 0.4 -0.6
v -0.0999999 0.4 -0.7
v 1.19209e-07 0 0.5
v 1.19209e-07 0 0.2
v 1.19209e-07 0 -0.2
v 1.19209e-07 0 -0.6
v 1.19209e-07 0.3 0.2
v 1.19209e-07 0.3 -0.2
v 1.19209e-07 0.4 0.5
v 1.19209e-07 0.4 -0.6
v 0.2 0 0.2
v 0.2 0 -0.2
v 0.2 0.3 0.2
v 0.2 0.3 -0.2
v -1.6 0 2
v -1.6 0.2 2
v -1.4 0 2
v -1.4 0.2 2
v -1.7 0 1.9
v -1.7 0.2 1.9
v -1.6 0 1.9
v -1.6 0.2 1.9
v -1.4 0 1.9
v -1.4 0.2 1.9
v -1.3 0 1.9
v -1.3 0.2 1.9
v -1.3 0 1.8
v -1.3 0.2 1.8
v -1.3 0.4 1.8
v -1.2 0 1.8
v -1.2 0.4 1.8
v -1.6 0 1.7
v -1.6 0.2 1.7
v -1.4 0 1.7
v -1.4 0.2 1.7
v -1.2 0 1.7
v -1.2 0.4 1.7
v -1.1 0 1.7
v -1.1 0.4 1.7
v -1.1 0 1.6
v -1.1 0.4 1.6
v -1 0 1.6
v -1 0.4 1.6
v -1 0 1.5
v -1 0.4 1.5
v -0.9 0 1.5
v -0.9 0.4 1.5
v -0.9 0 1.4
v -0.9 0.4 1.4
v -0.8 0 1.4
v -0.8 0.4 1.4
v -0.8 0 1.3
v -0.8 0.4 1.3
v -0.7 0 1.3
v -0.7 0.4 1.3
v -0.7 0 1.2
v -0.7 0.4 1.2
v -0.6 0 1.2
v -0.6 0.4 1.2
v -0.6 0 1.1
v -0.6 0.4 1.1
v -0.5 0 1.1
v -0.5 0.4 1.1
v -0.5 0 1
v -0.5 0.4 1
v -0.4 0 1
v -0.4 0.4 1
v -0.4 0 0.9
v -0.4 0.4 0.9
v -0.3 0 0.9
v -0.3 0.4 0.9
v -0.3 0 0.8
v -0.3 0.4 0.8
v -0.2 0 0.8
v -0.2 0.4 0.8
v -0.2 0 0.7
v -0.2 0.4 0.7
v -0.0999999 0 0.7
v -0.0999999 0.4 0.7
v -0.0999999 0 0.5
v -0.0999999 0.4 0.5
v 1.19209e-07 0 0.5
v 1.19209e-07 0.4 0.5
v 1.19209e-07 0 0.2
v 1.19209e-07 0.3 0.2
v 0.2 0 0.2
v 0.2 0.3 0.2
v -0.3 0 -0.7
v -0.3 0.4 -0.7
v -0.2 0 -0.7
v -0.2 0.4 -0.7
v -0.4 0 -0.8
v -0.4 0.4 -0.8
v -0.3 0 -0.8
v -0.3 0.4 -0.8
v -0.5 0 -0.9
v -0.5 0.4 -0.9
v -0.4 0 -0.9
v -0.4 0.4 -0.9
v -0.6 0 -1
v -0.6 0.4 -1
v -0.5 0 -1
v -0.5 0.4 -1
v -0.7 0 -1.1
v -0.7 0.4 -1.1
v -0.6 0 -1.1
v -0.6 0.4 -1.1
v -0.8 0 -1.2
v -0.8 0.4 -1.2
v -0.7 0 -1.2
v -0.7 0.4 -1.2
v -0.9 0 -1.3
v -0.9 0.4 -1.3
v -0.8 0 -1.3
v -0.8 0.4 -1.3
v -1 0 -1.4
v -1 0.4 -1.4
v -0.9 0 -1.4
v -0.9 0.4 -1.4
v -1.1 0 -1.5
v -1.1 0.4 -1.5
v -1 0 -1.5
v -1 0.4 -1.5
v -1.6 0 -1.6
v -1.6 0.1 -1.6
v -1.6 0.2 -1.6
v -1.4 0 -1.6
v -1.4 0.2 -1.6
v -1.2 0 -1.6
v -1.2 0.4 -1.6
v -1.1 0 -1.6
v -1.1 0.4 -1.6
v -1.7 0.1 -1.7
v -1.7 0.2 -1.7
v -1.6 0.1 -1.7
v -1.6 0.2 -1.7
v -1.4 0 -1.7
v -1.4 0.2 -1.7
v -1.3 0 -1.7
v -1.3 0.2 -1.7
v -1.3 0.4 -1.7
v -1.2 0 -1.7
v -1.2 0.4 -1.7
v -1.6 0 -1.9
v -1.6 0.2 -1.9
v -1.4 0 -1.9
v -1.4 0.2 -1.9
v -1.6 0 1.9
v -1.6 0.2 1.9
v -1.4 0 1.9
v -1.4 0.2 1.9
v -1.7 0.1 1.7
v -1.7 0.2 1.7
v -1.6 0.1 1.7
v -1.6 0.2 1.7
v -1.4 0 1.7
v -1.4 0.2 1.7
v -1.3 0 1.7
v -1.3 0.2 1.7
v -1.3 0.4 1.7
v -1.2 0 1.7
v -1.2 0.4 1.7
v -1.6 0 1.6
v -1.6 0.1 1.6
v -1.6 0.2 1.6
v -1.4 0 1.6
v -1.4 0.2 1.6
v -1.2 0 1.6
v -1.2 0.4 1.6
v -1.1 0 1.6
v -1.1 0.4 1.6
v -1.1 0 1.5
v -1.1 0.4 1.5
v -1 0 1.5
v -1 0.4 1.5
v -1 0 1.4
v -1 0.4 1.4
v -0.9 0 1.4
v -0.9 0.4 1.4
v -0.9 0 1.3
v -0.9 0.4 1.3
v -0.8 0 1.3
v -0.8 0.4 1.3
v -0.8 0 1.2
v -0.8 0.4 1.2
v -0.7 0 1.2
v -0.7 0.4 1.2
v -0.7 0 1.1
v -0.7 0.4 1.1
v -0.6 0 1.1
v -0.6 0.4 1.1
v -0.6 0 1
v -0.6 0.4 1
v -0.5 0 1
v -0.5 0.4 1
v -0.5 0 0.9
v -0.5 0.4 0.9
v -0.4 0 0.9
v -0.4 0.4 0.9
v -0.4 0 0.8
v -0.4 0.4 0.8
v -0.3 0 0.8
v -0.3 0.4 0.8
v -0.3 0 0.7
v -0.3 0.4 0.7
v -0.2 0 0.7
v -0.2 0.4 0.7
v 1.19209e-07 0 -0.2
v 1.19209e-07 0.3 -0.2
v 0.2 0 -0.2
v 0.2 0.3 -0.2
v -0.0999999 0 -0.6
v -0.0999999 0.4 -0.6
v 1.19209e-07 0 -0.6
v 1.19209e-07 0.4 -0.6
v -0.2 0 -0.7
v -0.2 0.4 -0.7
v -0.0999999 0 -0.7
v -0.0999999 0.4 -0.7
v -0.3 0 -0.8
v -0.3 0.4 -0.8
v -0.2 0 -0.8
v -0.2 0.4 -0.8
v -0.4 0 -0.9
v -0.4 0.4 -0.9
v -0.3 0 -0.9
v -0.3 0.4 -0.9
v -0.5 0 -1
v -0.5 0.4 -1
v -0.4 0 -1
v -0.4 0.4 -1
v -0.6 0 -1.1
v -0.6 0.4 -1.1
v -0.5 0 -1.1
v -0.5 0.4 -1.1
v -0.7 0 -1.2
v -0.7 0.4 -1.2
v -0.6 0 -1.2
v -0.6 0.4 -1.2
v -0.8 0 -1.3
v -0.8 0.4 -1.3
v -0.7 0 -1.3
v -0.7 0.4 -1.3
v -0.9 0 -1.4
v -0.9 0.4 -1.4
v -0.8 0 -1.4
v -0.8 0.4 -1.4
v -1 0 -1.5
v -1 0.4 -1.5
v -0.9 0 -1.5
v -0.9 0.4 -1.5
v -1.1 0 -1.6
v -1.1 0.4 -1.6
v -1 0 -1.6
v -1 0.4 -1.6
v -1.6 0 -1.7
v -1.6 0.2 -1.7
v -1.4 0 -1.7
v -1.4 0.2 -1.7
v -1.2 0 -1.7
v -1.2 0.4 -1.7
v -1.1 0 -1.7
v -1.1 0.4 -1.7
v -1.3 0 -1.8
v -1.3 0.2 -1.8
v -1.3 0.4 -1.8
v -1.2 0 -1.8
v -1.2 0.4 -1.8
v -1.7 0 -1.9
v -1.7 0.2 -1.9
v -1.6 0 -1.9
v -1.6 0.2 -1.9
v -1.4 0 -1.9
v -1.4 0.2 -1.9
v -1.3 0 -1.9
v -1.3 0.2 -1.9
v -1.6 0 -2
v -1.6 0.2 -2
v -1.4 0 -2
v -1.4 0.2 -2
v -1.6 0 2
v -1.4 0 2
v -1.7 0 1.9
v -1.6 0 1.9
v -1.4 0 1.9
v -1.3 0 1.9
v -1.3 0 1.8
v -1.2 0 1.8
v -1.7 0 1.7
v -1.6 0 1.7
v -1.4 0 1.7
v -1.3 0 1.7
v -1.2 0 1.7
v -1.1 0 1.7
v -1.6 0 1.6
v -1.4 0 1.6
v -1.2 0 1.6
v -1.1 0 1.6
v -1 0 1.6
v -1.1 0 1.5
v -1 0 1.5
v -0.9 0 1.5
v -1 0 1.4
v -0.9 0 1.4
v -0.8 0 1.4
v -0.9 0 1.3
v -0.8 0 1.3
v -0.7 0 1.3
v -0.8 0 1.2
v -0.7 0 1.2
v -0.6 0 1.2
v -0.7 0 1.1
v -0.6 0 1.1
v -0.5 0 1.1
v -0.6 0 1
v -0.5 0 1
v -0.4 0 1
v -0.5 0 0.9
v -0.4 0 0.9
v -0.3 0 0.9
v -0.4 0 0.8
v -0.3 0 0.8
v -0.2 0 0.8
v -0.3 0 0.7
v -0.2 0 0.7
v -0.0999999 0 0.7
v -0.0999999 0 0.5
v 1.19209e-07 0 0.5
v 1.19209e-07 0 0.2
v 0.2 0 0.2
v 1.19209e-07 0 -0.2
v 0.2 0 -0.2
v -0.0999999 0 -0.6
v 1.19209e-07 0 -0.6
v -0.3 0 -0.7
v -0.2 0 -0.7
v -0.0999999 0 -0.7
v -0.4 0 -0.8
v -0.3 0 -0.8
v -0.2 0 -0.8
v -0.5 0 -0.9
v -0.4 0 -0.9
v -0.3 0 -0.9
v -0.6 0 -1
v -0.5 0 -1
v -0.4 0 -1
v -0.7 0 -1.1
v -0.6 0 -1.1
v -0.5 0 -1.1
v -0.8 0 -1.2
v -0.7 0 -1.2
v -0.6 0 -1.2
v -0.9 0 -1.3
v -0.8 0 -1.3
v -0.7 0 -1.3
v -1 0 -1.4
v -0.9 0 -1.4
v -0.8 0 -1.4
v -1.1 0 -1.5
v -1 0 -1.5
v -0.9 0 -1.5
v -1.6 0 -1.6
v -1.4 0 -1.6
v -1.2 0 -1.6
v -1.1 0 -1.6
v -1 0 -1.6
v -1.7 0 -1.7
v -1.6 0 -1.7
v -1.4 0 -1.7
v -1.3 0 -1.7
v -1.2 0 -1.7
v -1.1 0 -1.7
v -1.3 0 -1.8
v -1.2 0 -1.8
v -1.7 0 -1.9
v -1.6 0 -1.9
v -1.4 0 -1.9
v -1.3 0 -1.9
v -1.6 0 -2
v -1.4 0 -2
v -1.7 0.1 1.7
v -1.6 0.1 1.7
v -1.6 0.1 1.6
v -1.6 0.1 -1.6
v -1.7 0.1 -1.7
v -1.6 0.1 -1.7
v -1.6 0.2 2
v -1.4 0.2 2
v -1.7 0.2 1.9
v -1.6 0.2 1.9
v -1.4 0.2 1.9
v -1.3 0.2 1.9
v -1.3 0.2 1.8
v -1.7 0.2 1.7
v -1.6 0.2 1.7
v -1.4 0.2 1.7
v -1.3 0.2 1.7
v -1.6 0.2 1.6
v -1.4 0.2 1.6
v -1.6 0.2 -1.6
v -1.4 0.2 -1.6
v -1.7 0.2 -1.7
v -1.6 0.2 -1.7
v -1.4 0.2 -1.7
v -1.3 0.2 -1.7
v -1.3 0.2 -1.8
v -1.7 0.2 -1.9
v -1.6 0.2 -1.9
v -1.4 0.2 -1.9
v -1.3 0.2 -1.9
v -1.6 0.2 -2
v -1.4 0.2 -2
v 1.19209e-07 0.3 0.2
v 0.2 0.3 0.2
v 1.19209e-07 0.3 -0.2
v 0.2 0.3 -0.2
v -1.3 0.4 1.8
v -1.2 0.4 1.8
v -1.3 0.4 1.7
v -1.2 0.4 1.7
v -1.1 0.4 1.7
v -1.2 0.4 1.6
v -1.1 0.4 1.6
v -1 0.4 1.6
v -1.1 0.4 1.5
v -1 0.4 1.5
v -0.9 0.4 1.5
v -1 0.4 1.4
v -0.9 0.4 1.4
v -0.8 0.4 1.4
v -0.9 0.4 1.3
v -0.8 0.4 1.3
v -0.7 0.4 1.3
v -0.8 0.4 1.2
v -0.7 0.4 1.2
v -0.6 0.4 1.2
v -0.7 0.4 1.1
v -0.6 0.4 1.1
v -0.5 0.4 1.1
v -0.6 0.4 1
v -0.5 0.4 1
v -0.4 0.4 1
v -0.5 0.4 0.9
v -0.4 0.4 0.9
v -0.3 0.4 0.9
v -0.4 0.4 0.8
v -0.3 0.4 0.8
v -0.2 0.4 0.8
v -0.3 0.4 0.7
v -0.2 0.4 0.7
v -0.0999999 0.4 0.7
v -0.0999999 0.4 0.5
v 1.19209e-07 0.4 0.5
v -0.0999999 0.4 -0.6
v 1.19209e-07 0.4 -0.6
v -0.3 0.4 -0.7
v -0.2 0.4 -0.7
v -0.0999999 0.4 -0.7
v -0.4 0.4 -0.8
v -0.3 0.4 -0.8
v -0.2 0.4 -0.8
v -0.5 0.4 -0.9
v -0.4 0.4 -0.9
v -0.3 0.4 -0.9
v -0.6 0.4 -1
v -0.5 0.4 -1
v -0.4 0.4 -1
v -0.7 0.4 -1.1
v -0.6 0.4 -1.1
v -0.5 0.4 -1.1
v -0.8 0.4 -1.2
v -0.7 0.4 -1.2
v -0.6 0.4 -1.2
v -0.9 0.4 -1.3
v -0.8 0.4 -1.3
v -0.7 0.4 -1.3
v -1 0.4 -1.4
v -0.9 0.4 -1.4
v -0.8 0.4 -1.4
v -1.1 0.4 -1.5
v -1 0.4 -1.5
v -0.9 0.4 -1.5
v -1.2 0.4 -1.6
v -1.1 0.4 -1.6
v -1 0.4 -1.6
v -1.3 0.4 -1.7
v -1.2 0.4 -1.7
v -1.1 0.4 -1.7
v -1.3 0.4 -1.8
v -1.2 0.4 -1.8

# faces
f 5/2/1 2/2/1 1/2/1
f 5/3/1 3/3/1 2/3/1
f 6/2/1 4/2/1 3/2/1
f 6/3/1 3/3/1 5/3/1
f 7/2/1 5/2/1 1/2/1
f 8/2/1 5/2/1 7/2/1
f 9/2/1 4/2/1 6/2/1
f 10/2/1 4/2/1 9/2/1
f 19/2/1 12/2/1 11/2/1
f 20/2/1 12/2/1 19/2/1
f 21/2/1 16/2/1 15/2/1
f 22/2/1 16/2/1 21/2/1
f 23/2/1 18/2/1 17/2/1
f 24/2/1 18/2/1 23/2/1
f 25/2/1 14/2/1 13/2/1
f 26/2/1 14/2/1 25/2/1
f 31/2/1 28/2/1 27/2/1
f 32/2/1 28/2/1 31/2/1
f 33/2/1 30/2/1 29/2/1
f 34/2/1 30/2/1 33/2/1
f 39/1/1 36/1/1 35/1/1
f 40/1/1 36/1/1 39/1/1
f 41/1/1 38/1/1 37/1/1
f 42/1/1 38/1/1 41/1/1
f 47/1/1 44/1/1 43/1/1
f 48/1/1 44/1/1 47/1/1
f 49/1/1 46/1/1 45/1/1
f 50/1/1 46/1/1 49/1/1
f 55/1/1 52/1/1 51/1/1
f 56/1/1 52/1/1 55/1/1
f 57/1/1 54/1/1 53/1/1
f 58/1/1 54/1/1 57/1/1
f 63/1/1 60/1/1 59/1/1
f 64/1/1 60/1/1 63/1/1
f 65/1/1 62/1/1 61/1/1
f 66/1/1 62/1/1 65/1/1
f 71/1/1 68/1/1 67/1/1
f 72/1/1 68/1/1 71/1/1
f 73/1/1 70/1/1 69/1/1
f 74/1/1 70/1/1 73/1/1
f 79/1/1 76/1/1 75/1/1
f 80/1/1 76/1/1 79/1/1
f 81/1/1 78/1/1 77/1/1
f 82/1/1 78/1/1 81/1/1
f 87/1/1 84/1/1 83/1/1
f 88/1/1 84/1/1 87/1/1
f 89/1/1 86/1/1 85/1/1
f 90/1/1 86/1/1 89/1/1
f 95/1/1 92/1/1 91/1/1
f 96/1/1 92/1/1 95/1/1
f 97/1/1 94/1/1 93/1/1
f 98/1/1 94/1/1 97/1/1
f 103/1/1 100/1/1 99/1/1
f 104/1/1 100/1/1 103/1/1
f 105/1/1 102/1/1 101/1/1
f 106/1/1 102/1/1 105/1/1
f 111/1/1 108/1/1 107/1/1
f 112/1/1 108/1/1 111/1/1
f 113/1/1 110/1/1 109/1/1
f 114/1/1 110/1/1 113/1/1
f 119/1/1 116/1/1 115/1/1
f 120/1/1 116/1/1 119/1/1
f 121/1/1 118/1/1 117/1/1
f 122/1/1 118/1/1 121/1/1
f 125/1/1 124/1/1 123/1/1
f 126/1/1 124/1/1 125/1/1
f 129/3/2 130/3/2 133/3/2
f 133/3/2 130/3/2 134/3/2
f 127/2/2 128/2/2 135/2/2
f 135/2/2 128/2/2 136/2/2
f 131/2/2 132/2/2 137/2/2
f 137/2/2 132/2/2 138/2/2
f 139/2/2 140/2/2 147/2/2
f 147/2/2 140/2/2 148/2/2
f 141/2/2 142/2/2 149/2/2
f 149/2/2 142/2/2 150/2/2
f 143/2/2 144/2/2 151/2/2
f 151/2/2 144/2/2 152/2/2
f 145/2/2 146/2/2 153/2/2
f 153/2/2 146/2/2 154/2/2
f 155/2/2 156/2/2 159/2/2
f 159/2/2 156/2/2 160/2/2
f 157/2/2 158/2/2 161/2/2
f 161/2/2 158/2/2 162/2/2
f 163/1/2 164/1/2 167/1/2
f 167/1/2 164/1/2 168/1/2
f 165/1/2 166/1/2 169/1/2
f 169/1/2 166/1/2 170/1/2
f 171/1/2 172/1/2 175/1/2
f 175/1/2 172/1/2 176/1/2
f 173/1/2 174/1/2 177/1/2
f 177/1/2 174/1/2 178/1/2
f 179/1/2 180/1/2 183/1/2
f 183/1/2 180/1/2 184/1/2
f 181/1/2 182/1/2 185/1/2
f 185/1/2 182/1/2 186/1/2
f 187/1/2 188/1/2 191/1/2
f 191/1/2 188/1/2 192/1/2
f 189/1/2 190/1/2 193/1/2
f 193/1/2 190/1/2 194/1/2
f 195/1/2 196/1/2 199/1/2
f 199/1/2 196/1/2 200/1/2
f 197/1/2 198/1/2 201/1/2
f 201/1/2 198/1/2 202/1/2
f 203/1/2 204/1/2 207/1/2
f 207/1/2 204/1/2 208/1/2
f 205/1/2 206/1/2 209/1/2
f 209/1/2 206/1/2 210/1/2
f 211/1/2 212/1/2 215/1/2
f 215/1/2 212/1/2 216/1/2
f 213/1/2 214/1/2 217/1/2
f 217/1/2 214/1/2 218/1/2
f 219/1/2 220/1/2 223/1/2
f 223/1/2 220/1/2 224/1/2
f 221/1/2 222/1/2 225/1/2
f 225/1/2 222/1/2 226/1/2
f 227/1/2 228/1/2 231/1/2
f 231/1/2 228/1/2 232/1/2
f 229/1/2 230/1/2 233/1/2
f 233/1/2 230/1/2 234/1/2
f 235/1/2 236/1/2 239/1/2
f 239/1/2 236/1/2 240/1/2
f 237/1/2 238/1/2 241/1/2
f 241/1/2 238/1/2 242/1/2
f 243/1/2 244/1/2 247/1/2
f 247/1/2 244/1/2 248/1/2
f 245/1/2 246/1/2 249/1/2
f 249/1/2 246/1/2 250/1/2
f 251/1/2 252/1/2 255/1/2
f 255/1/2 252/1/2 256/1/2
f 253/1/2 254/1/2 257/1/2
f 257/1/2 254/1/2 258/1/2
f 259/1/2 260/1/2 263/1/2
f 261/1/2 262/1/2 264/1/2
f 259/1/2 263/1/2 265/1/2
f 263/1/2 264/1/2 265/1/2
f 264/1/2 262/1/2 266/1/2
f 265/1/2 264/1/2 266/1/2
f 267/3/2 268/3/2 269/3/2
f 269/3/2 268/3/2 270/3/2
f 273/2/3 272/2/3 271/2/3
f 274/2/3 272/2/3 273/2/3
f 277/2/3 276/2/3 275/2/3
f 278/2/3 276/2/3 277/2/3
f 281/2/3 280/2/3 279/2/3
f 282/2/3 280/2/3 281/2/3
f 286/1/3 284/1/3 283/1/3
f 286/1/3 285/1/3 284/1/3
f 287/1/3 285/1/3 286/1/3
f 290/2/3 289/2/3 288/2/3
f 291/2/3 289/2/3 290/2/3
f 294/1/3 293/1/3 292/1/3
f 295/1/3 293/1/3 294/1/3
f 298/1/3 297/1/3 296/1/3
f 299/1/3 297/1/3 298/1/3
f 302/1/3 301/1/3 300/1/3
f 303/1/3 301/1/3 302/1/3
f 306/1/3 305/1/3 304/1/3
f 307/1/3 305/1/3 306/1/3
f 310/1/3 309/1/3 308/1/3
f 311/1/3 309/1/3 310/1/3
f 314/1/3 313/1/3 312/1/3
f 315/1/3 313/1/3 314/1/3
f 318/1/3 317/1/3 316/1/3
f 319/1/3 317/1/3 318/1/3
f 322/1/3 321/1/3 320/1/3
f 323/1/3 321/1/3 322/1/3
f 326/1/3 325/1/3 324/1/3
f 327/1/3 325/1/3 326/1/3
f 330/1/3 329/1/3 328/1/3
f 331/1/3 329/1/3 330/1/3
f 334/1/3 333/1/3 332/1/3
f 335/1/3 333/1/3 334/1/3
f 338/1/3 337/1/3 336/1/3
f 339/1/3 337/1/3 338/1/3
f 342/3/3 341/3/3 340/3/3
f 343/3/3 341/3/3 342/3/3
f 346/1/3 345/1/3 344/1/3
f 347/1/3 345/1/3 346/1/3
f 350/1/3 349/1/3 348/1/3
f 351/1/3 349/1/3 350/1/3
f 354/1/3 353/1/3 352/1/3
f 355/1/3 353/1/3 354/1/3
f 358/1/3 357/1/3 356/1/3
f 359/1/3 357/1/3 358/1/3
f 362/1/3 361/1/3 360/1/3
f 363/1/3 361/1/3 362/1/3
f 366/1/3 365/1/3 364/1/3
f 367/1/3 365/1/3 366/1/3
f 370/1/3 369/1/3 368/1/3
f 371/1/3 369/1/3 370/1/3
f 374/1/3 373/1/3 372/1/3
f 375/1/3 373/1/3 374/1/3
f 378/1/3 377/1/3 376/1/3
f 379/1/3 377/1/3 378/1/3
f 383/2/3 381/2/3 380/2/3
f 383/2/3 382/2/3 381/2/3
f 384/2/3 382/2/3 383/2/3
f 387/1/3 386/1/3 385/1/3
f 388/1/3 386/1/3 387/1/3
f 391/2/3 390/2/3 389/2/3
f 392/2/3 390/2/3 391/2/3
f 395/2/3 394/2/3 393/2/3
f 396/2/3 394/2/3 395/2/3
f 398/1/3 396/1/3 395/1/3
f 398/1/3 397/1/3 396/1/3
f 399/1/3 397/1/3 398/1/3
f 402/2/3 401/2/3 400/2/3
f 403/2/3 401/2/3 402/2/3
f 404/2/4 405/2/4 406/2/4
f 406/2/4 405/2/4 407/2/4
f 408/2/4 409/2/4 410/2/4
f 410/2/4 409/2/4 411/2/4
f 412/2/4 413/2/4 414/2/4
f 414/2/4 413/2/4 415/2/4
f 414/1/4 415/1/4 417/1/4
f 415/1/4 416/1/4 417/1/4
f 417/1/4 416/1/4 418/1/4
f 419/2/4 420/2/4 422/2/4
f 420/2/4 421/2/4 422/2/4
f 422/2/4 421/2/4 423/2/4
f 424/1/4 425/1/4 426/1/4
f 426/1/4 425/1/4 427/1/4
f 428/1/4 429/1/4 430/1/4
f 430/1/4 429/1/4 431/1/4
f 432/1/4 433/1/4 434/1/4
f 434/1/4 433/1/4 435/1/4
f 436/1/4 437/1/4 438/1/4
f 438/1/4 437/1/4 439/1/4
f 440/1/4 441/1/4 442/1/4
f 442/1/4 441/1/4 443/1/4
f 444/1/4 445/1/4 446/1/4
f 446/1/4 445/1/4 447/1/4
f 448/1/4 449/1/4 450/1/4
f 450/1/4 449/1/4 451/1/4
f 452/1/4 453/1/4 454/1/4
f 454/1/4 453/1/4 455/1/4
f 456/1/4 457/1/4 458/1/4
f 458/1/4 457/1/4 459/1/4
f 460/1/4 461/1/4 462/1/4
f 462/1/4 461/1/4 463/1/4
f 464/3/4 465/3/4 466/3/4
f 466/3/4 465/3/4 467/3/4
f 468/1/4 469/1/4 470/1/4
f 470/1/4 469/1/4 471/1/4
f 472/1/4 473/1/4 474/1/4
f 474/1/4 473/1/4 475/1/4
f 476/1/4 477/1/4 478/1/4
f 478/1/4 477/1/4 479/1/4
f 480/1/4 481/1/4 482/1/4
f 482/1/4 481/1/4 483/1/4
f 484/1/4 485/1/4 486/1/4
f 486/1/4 485/1/4 487/1/4
f 488/1/4 489/1/4 490/1/4
f 490/1/4 489/1/4 491/1/4
f 492/1/4 493/1/4 494/1/4
f 494/1/4 493/1/4 495/1/4
f 496/1/4 497/1/4 498/1/4
f 498/1/4 497/1/4 499/1/4
f 500/1/4 501/1/4 502/1/4
f 502/1/4 501/1/4 503/1/4
f 504/1/4 505/1/4 506/1/4
f 506/1/4 505/1/4 507/1/4
f 508/1/4 509/1/4 510/1/4
f 510/1/4 509/1/4 511/1/4
f 512/2/4 513/2/4 514/2/4
f 514/2/4 513/2/4 515/2/4
f 516/1/4 517/1/4 518/1/4
f 518/1/4 517/1/4 519/1/4
f 520/1/4 521/1/4 523/1/4
f 521/1/4 522/1/4 523/1/4
f 523/1/4 522/1/4 524/1/4
f 525/2/4 526/2/4 527/2/4
f 527/2/4 526/2/4 528/2/4
f 529/2/4 530/2/4 531/2/4
f 531/2/4 530/2/4 532/2/4
f 533/2/4 534/2/4 535/2/4
f 535/2/4 534/2/4 536/2/4
f 540/2/5 538/2/5 537/2/5
f 541/2/5 538/2/5 540/2/5
f 543/2/5 542/2/5 541/2/5
f 545/2/5 540/2/5 539/2/5
f 546/2/5 540/2/5 545/2/5
f 547/2/5 543/2/5 541/2/5
f 548/1/5 544/1/5 543/1/5
f 548/2/5 543/2/5 547/2/5
f 549/1/5 544/1/5 548/1/5
f 551/2/5 547/2/5 546/2/5
f 551/3/5 546/3/5 545/3/5
f 552/2/5 547/2/5 551/2/5
f 553/1/5 550/1/5 549/1/5
f 554/1/5 550/1/5 553/1/5
f 556/1/5 555/1/5 554/1/5
f 557/1/5 555/1/5 556/1/5
f 559/1/5 558/1/5 557/1/5
f 560/1/5 558/1/5 559/1/5
f 562/1/5 561/1/5 560/1/5
f 563/1/5 561/1/5 562/1/5
f 565/1/5 564/1/5 563/1/5
f 566/1/5 564/1/5 565/1/5
f 568/1/5 567/1/5 566/1/5
f 569/1/5 567/1/5 568/1/5
f 571/1/5 570/1/5 569/1/5
f 572/1/5 570/1/5 571/1/5
f 574/1/5 573/1/5 572/1/5
f 575/1/5 573/1/5 574/1/5
f 577/1/5 576/1/5 575/1/5
f 578/1/5 576/1/5 577/1/5
f 580/1/5 579/1/5 578/1/5
f 581/1/5 579/1/5 580/1/5
f 583/1/5 582/1/5 581/1/5
f 585/1/5 584/1/5 583/1/5
f 587/1/5 585/1/5 583/1/5
f 587/3/5 586/3/5 585/3/5
f 588/3/5 586/3/5 587/3/5
f 589/1/5 583/1/5 581/1/5
f 589/1/5 587/1/5 583/1/5
f 590/1/5 587/1/5 589/1/5
f 592/1/5 589/1/5 581/1/5
f 593/1/5 589/1/5 592/1/5
f 595/1/5 592/1/5 591/1/5
f 596/1/5 592/1/5 595/1/5
f 598/1/5 595/1/5 594/1/5
f 599/1/5 595/1/5 598/1/5
f 601/1/5 598/1/5 597/1/5
f 602/1/5 598/1/5 601/1/5
f 604/1/5 601/1/5 600/1/5
f 605/1/5 601/1/5 604/1/5
f 607/1/5 604/1/5 603/1/5
f 608/1/5 604/1/5 607/1/5
f 610/1/5 607/1/5 606/1/5
f 611/1/5 607/1/5 610/1/5
f 613/1/5 610/1/5 609/1/5
f 614/1/5 610/1/5 613/1/5
f 616/1/5 613/1/5 612/1/5
f 617/1/5 613/1/5 616/1/5
f 618/3/5 551/3/5 545/3/5
f 621/1/5 616/1/5 615/1/5
f 622/1/5 616/1/5 621/1/5
f 623/3/5 618/3/5 545/3/5
f 624/2/5 619/2/5 618/2/5
f 624/3/5 618/3/5 623/3/5
f 625/2/5 619/2/5 624/2/5
f 627/1/5 621/1/5 620/1/5
f 628/1/5 621/1/5 627/1/5
f 629/2/5 626/2/5 625/2/5
f 629/1/5 627/1/5 626/1/5
f 630/1/5 627/1/5 629/1/5
f 631/2/5 624/2/5 623/2/5
f 632/2/5 624/2/5 631/2/5
f 633/2/5 629/2/5 625/2/5
f 634/2/5 629/2/5 633/2/5
f 635/2/5 633/2/5 632/2/5
f 636/2/5 633/2/5 635/2/5
f 637/3/6 638/3/6 639/3/6
f 637/3/6 639/3/6 640/3/6
f 637/3/6 640/3/6 641/3/6
f 641/3/6 640/3/6 642/3/6
f 643/2/6 644/2/6 646/2/6
f 646/2/6 644/2/6 647/2/6
f 647/2/6 648/2/6 649/2/6
f 645/2/6 646/2/6 650/2/6
f 650/2/6 646/2/6 651/2/6
f 647/2/6 649/2/6 652/2/6
f 652/2/6 649/2/6 653/2/6
f 651/2/6 652/2/6 654/2/6
f 654/2/6 652/2/6 655/2/6
f 656/2/6 657/2/6 659/2/6
f 659/2/6 657/2/6 660/2/6
f 660/2/6 661/2/6 662/2/6
f 658/2/6 659/2/6 663/2/6
f 663/2/6 659/2/6 664/2/6
f 660/2/6 662/2/6 665/2/6
f 665/2/6 662/2/6 666/2/6
f 664/2/6 665/2/6 667/2/6
f 667/2/6 665/2/6 668/2/6
f 669/3/6 670/3/6 671/3/6
f 671/3/6 670/3/6 672/3/6
f 673/1/6 674/1/6 675/1/6
f 675/1/6 674/1/6 676/1/6
f 676/1/6 677/1/6 678/1/6
f 678/1/6 677/1/6 679/1/6
f 679/1/6 680/1/6 681/1/6
f 681/1/6 680/1/6 682/1/6
f 682/1/6 683/1/6 684/1/6
f 684/1/6 683/1/6 685/1/6
f 685/1/6 686/1/6 687/1/6
f 687/1/6 686/1/6 688/1/6
f 688/1/6 689/1/6 690/1/6
f 690/1/6 689/1/6 691/1/6
f 691/1/6 692/1/6 693/1/6
f 693/1/6 692/1/6 694/1/6
f 694/1/6 695/1/6 696/1/6
f 696/1/6 695/1/6 697/1/6
f 697/1/6 698/1/6 699/1/6
f 699/1/6 698/1/6 700/1/6
f 700/1/6 701/1/6 702/1/6
f 702/1/6 701/1/6 703/1/6
f 703/1/6 704/1/6 705/1/6
f 705/1/6 704/1/6 706/1/6
f 706/1/6 707/1/6 708/1/6
f 706/1/6 708/1/6 710/1/6
f 708/1/6 709/1/6 710/1/6
f 710/1/6 709/1/6 711/1/6
f 706/1/6 710/1/6 713/1/6
f 713/1/6 710/1/6 714/1/6
f 712/1/6 713/1/6 716/1/6
f 716/1/6 713/1/6 717/1/6
f 715/1/6 716/1/6 719/1/6
f 719/1/6 716/1/6 720/1/6
f 718/1/6 719/1/6 722/1/6
f 722/1/6 719/1/6 723/1/6
f 721/1/6 722/1/6 725/1/6
f 725/1/6 722/1/6 726/1/6
f 724/1/6 725/1/6 728/1/6
f 728/1/6 725/1/6 729/1/6
f 727/1/6 728/1/6 731/1/6
f 731/1/6 728/1/6 732/1/6
f 730/1/6 731/1/6 734/1/6
f 734/1/6 731/1/6 735/1/6
f 733/1/6 734/1/6 737/1/6
f 737/1/6 734/1/6 738/1/6
f 736/1/6 737/1/6 740/1/6
f 740/1/6 737/1/6 741/1/6
f 739/1/6 740/1/6 743/1/6
f 743/1/6 740/1/6 744/1/6
f 742/1/6 743/1/6 745/1/6
f 745/1/6 743/1/6 746/1/6
