# MagicaVoxel @ Ephtracy

# group
o 

# material
mtllib Pickaxe.mtl
usemtl palette

# normals
vn -1 0 0
vn 1 0 0
vn 0 0 1
vn 0 0 -1
vn 0 -1 0
vn 0 1 0

# texcoords
vt 0.837891 0.5
vt 0.845703 0.5
vt 0.986328 0.5

# verts
v -0.9 0.5 0.1
v -0.9 0.5 -0.1
v -0.9 0.8 0.1
v -0.9 0.8 -0.1
v -0.8 0.8 0.1
v -0.8 0.8 -0.1
v -0.8 1 0.1
v -0.8 1 -0.1
v -0.7 1 0.1
v -0.7 1 -0.1
v -0.7 1.1 0.1
v -0.7 1.1 -0.1
v -0.6 1.1 0.1
v -0.6 1.1 -0.1
v -0.6 1.2 0.1
v -0.6 1.2 -0.1
v -0.6 1.4 0.1
v -0.6 1.4 -0.1
v -0.6 1.6 0.1
v -0.6 1.6 -0.1
v -0.5 1.2 0.1
v -0.5 1.2 -0.1
v -0.5 1.3 0.1
v -0.5 1.3 -0.1
v -0.5 1.4 0.1
v -0.5 1.4 -0.1
v -0.2 1.5 0.1
v -0.2 1.5 -0.1
v -0.2 1.6 0.1
v -0.2 1.6 -0.1
v -0.1 0.9 0.1
v -0.1 0.9 -0.1
v -0.1 1 0.1
v -0.1 1 -0.1
v -0.1 1.6 0.1
v -0.1 1.6 -0.1
v -0.1 1.7 0.1
v -0.1 1.7 -0.1
v 0 0.8 0.1
v 0 0.8 -0.1
v 0 0.9 0.1
v 0 0.9 -0.1
v 0.1 0.7 0.1
v 0.1 0.7 -0.1
v 0.1 0.8 0.1
v 0.1 0.8 -0.1
v 0.2 0.6 0.1
v 0.2 0.6 -0.1
v 0.2 0.7 0.1
v 0.2 0.7 -0.1
v 0.3 0.5 0.1
v 0.3 0.5 -0.1
v 0.3 0.6 0.1
v 0.3 0.6 -0.1
v 0.4 0.4 0.1
v 0.4 0.4 -0.1
v 0.4 0.5 0.1
v 0.4 0.5 -0.1
v 0.5 0.3 0.1
v 0.5 0.3 -0.1
v 0.5 0.4 0.1
v 0.5 0.4 -0.1
v 0.6 0.2 0.1
v 0.6 0.2 -0.1
v 0.6 0.3 0.1
v 0.6 0.3 -0.1
v 0.7 0.1 0.1
v 0.7 0.1 -0.1
v 0.7 0.2 0.1
v 0.7 0.2 -0.1
v 0.8 0 0.1
v 0.8 0 -0.1
v 0.8 0.1 0.1
v 0.8 0.1 -0.1
v -0.7 0.5 0.1
v -0.7 0.5 -0.1
v -0.7 0.6 0.1
v -0.7 0.6 -0.1
v -0.6 0.6 0.1
v -0.6 0.6 -0.1
v -0.6 0.7 0.1
v -0.6 0.7 -0.1
v -0.5 0.7 0.1
v -0.5 0.7 -0.1
v -0.5 0.8 0.1
v -0.5 0.8 -0.1
v -0.4 0.8 0.1
v -0.4 0.8 -0.1
v -0.4 0.9 0.1
v -0.4 0.9 -0.1
v -0.4 1.5 0.1
v -0.4 1.5 -0.1
v -0.4 1.6 0.1
v -0.4 1.6 -0.1
v -0.3 0.9 0.1
v -0.3 0.9 -0.1
v -0.3 1 0.1
v -0.3 1 -0.1
v 0 1.1 0.1
v 0 1.1 -0.1
v 0 1.2 0.1
v 0 1.2 -0.1
v 0 1.3 0.1
v 0 1.3 -0.1
v 0 1.6 0.1
v 0 1.6 -0.1
v 0 1.7 0.1
v 0 1.7 -0.1
v 0.1 1 0.1
v 0.1 1 -0.1
v 0.1 1.1 0.1
v 0.1 1.1 -0.1
v 0.1 1.3 0.1
v 0.1 1.3 -0.1
v 0.1 1.4 0.1
v 0.1 1.4 -0.1
v 0.1 1.5 0.1
v 0.1 1.5 -0.1
v 0.1 1.6 0.1
v 0.1 1.6 -0.1
v 0.2 0.9 0.1
v 0.2 0.9 -0.1
v 0.2 1 0.1
v 0.2 1 -0.1
v 0.2 1.4 0.1
v 0.2 1.4 -0.1
v 0.2 1.5 0.1
v 0.2 1.5 -0.1
v 0.3 0.8 0.1
v 0.3 0.8 -0.1
v 0.3 0.9 0.1
v 0.3 0.9 -0.1
v 0.4 0.7 0.1
v 0.4 0.7 -0.1
v 0.4 0.8 0.1
v 0.4 0.8 -0.1
v 0.5 0.6 0.1
v 0.5 0.6 -0.1
v 0.5 0.7 0.1
v 0.5 0.7 -0.1
v 0.6 0.5 0.1
v 0.6 0.5 -0.1
v 0.6 0.6 0.1
v 0.6 0.6 -0.1
v 0.7 0.4 0.1
v 0.7 0.4 -0.1
v 0.7 0.5 0.1
v 0.7 0.5 -0.1
v 0.8 0.3 0.1
v 0.8 0.3 -0.1
v 0.8 0.4 0.1
v 0.8 0.4 -0.1
v 0.9 0.2 0.1
v 0.9 0.2 -0.1
v 0.9 0.3 0.1
v 0.9 0.3 -0.1
v 1 0 0.1
v 1 0 -0.1
v 1 0.2 0.1
v 1 0.2 -0.1
v -0.9 0.5 0.1
v -0.9 0.8 0.1
v -0.8 0.8 0.1
v -0.8 1 0.1
v -0.7 0.5 0.1
v -0.7 0.6 0.1
v -0.7 1 0.1
v -0.7 1.1 0.1
v -0.6 0.6 0.1
v -0.6 0.7 0.1
v -0.6 1.1 0.1
v -0.6 1.2 0.1
v -0.6 1.4 0.1
v -0.6 1.6 0.1
v -0.5 0.7 0.1
v -0.5 0.8 0.1
v -0.5 1.2 0.1
v -0.5 1.3 0.1
v -0.5 1.4 0.1
v -0.4 0.8 0.1
v -0.4 0.9 0.1
v -0.4 1.2 0.1
v -0.4 1.3 0.1
v -0.4 1.4 0.1
v -0.4 1.5 0.1
v -0.4 1.6 0.1
v -0.3 0.9 0.1
v -0.3 1 0.1
v -0.3 1.1 0.1
v -0.3 1.2 0.1
v -0.3 1.4 0.1
v -0.3 1.5 0.1
v -0.2 1 0.1
v -0.2 1.1 0.1
v -0.2 1.3 0.1
v -0.2 1.4 0.1
v -0.2 1.5 0.1
v -0.2 1.6 0.1
v -0.1 0.9 0.1
v -0.1 1 0.1
v -0.1 1.1 0.1
v -0.1 1.2 0.1
v -0.1 1.3 0.1
v -0.1 1.6 0.1
v -0.1 1.7 0.1
v 0 0.8 0.1
v 0 0.9 0.1
v 0 1.1 0.1
v 0 1.2 0.1
v 0 1.3 0.1
v 0 1.6 0.1
v 0 1.7 0.1
v 0.1 0.7 0.1
v 0.1 0.8 0.1
v 0.1 1 0.1
v 0.1 1.1 0.1
v 0.1 1.3 0.1
v 0.1 1.4 0.1
v 0.1 1.5 0.1
v 0.1 1.6 0.1
v 0.2 0.6 0.1
v 0.2 0.7 0.1
v 0.2 0.9 0.1
v 0.2 1 0.1
v 0.2 1.4 0.1
v 0.2 1.5 0.1
v 0.3 0.5 0.1
v 0.3 0.6 0.1
v 0.3 0.8 0.1
v 0.3 0.9 0.1
v 0.4 0.4 0.1
v 0.4 0.5 0.1
v 0.4 0.7 0.1
v 0.4 0.8 0.1
v 0.5 0.3 0.1
v 0.5 0.4 0.1
v 0.5 0.6 0.1
v 0.5 0.7 0.1
v 0.6 0.2 0.1
v 0.6 0.3 0.1
v 0.6 0.5 0.1
v 0.6 0.6 0.1
v 0.7 0.1 0.1
v 0.7 0.2 0.1
v 0.7 0.4 0.1
v 0.7 0.5 0.1
v 0.8 0 0.1
v 0.8 0.1 0.1
v 0.8 0.3 0.1
v 0.8 0.4 0.1
v 0.9 0.2 0.1
v 0.9 0.3 0.1
v 1 0 0.1
v 1 0.2 0.1
v -0.9 0.5 -0.1
v -0.9 0.8 -0.1
v -0.8 0.8 -0.1
v -0.8 1 -0.1
v -0.7 0.5 -0.1
v -0.7 0.6 -0.1
v -0.7 1 -0.1
v -0.7 1.1 -0.1
v -0.6 0.6 -0.1
v -0.6 0.7 -0.1
v -0.6 1.1 -0.1
v -0.6 1.2 -0.1
v -0.6 1.4 -0.1
v -0.6 1.6 -0.1
v -0.5 0.7 -0.1
v -0.5 0.8 -0.1
v -0.5 1.2 -0.1
v -0.5 1.3 -0.1
v -0.5 1.4 -0.1
v -0.4 0.8 -0.1
v -0.4 0.9 -0.1
v -0.4 1.2 -0.1
v -0.4 1.3 -0.1
v -0.4 1.4 -0.1
v -0.4 1.5 -0.1
v -0.4 1.6 -0.1
v -0.3 0.9 -0.1
v -0.3 1 -0.1
v -0.3 1.1 -0.1
v -0.3 1.2 -0.1
v -0.3 1.4 -0.1
v -0.3 1.5 -0.1
v -0.2 1 -0.1
v -0.2 1.1 -0.1
v -0.2 1.3 -0.1
v -0.2 1.4 -0.1
v -0.2 1.5 -0.1
v -0.2 1.6 -0.1
v -0.1 0.9 -0.1
v -0.1 1 -0.1
v -0.1 1.1 -0.1
v -0.1 1.2 -0.1
v -0.1 1.3 -0.1
v -0.1 1.6 -0.1
v -0.1 1.7 -0.1
v 0 0.8 -0.1
v 0 0.9 -0.1
v 0 1.1 -0.1
v 0 1.2 -0.1
v 0 1.3 -0.1
v 0 1.6 -0.1
v 0 1.7 -0.1
v 0.1 0.7 -0.1
v 0.1 0.8 -0.1
v 0.1 1 -0.1
v 0.1 1.1 -0.1
v 0.1 1.3 -0.1
v 0.1 1.4 -0.1
v 0.1 1.5 -0.1
v 0.1 1.6 -0.1
v 0.2 0.6 -0.1
v 0.2 0.7 -0.1
v 0.2 0.9 -0.1
v 0.2 1 -0.1
v 0.2 1.4 -0.1
v 0.2 1.5 -0.1
v 0.3 0.5 -0.1
v 0.3 0.6 -0.1
v 0.3 0.8 -0.1
v 0.3 0.9 -0.1
v 0.4 0.4 -0.1
v 0.4 0.5 -0.1
v 0.4 0.7 -0.1
v 0.4 0.8 -0.1
v 0.5 0.3 -0.1
v 0.5 0.4 -0.1
v 0.5 0.6 -0.1
v 0.5 0.7 -0.1
v 0.6 0.2 -0.1
v 0.6 0.3 -0.1
v 0.6 0.5 -0.1
v 0.6 0.6 -0.1
v 0.7 0.1 -0.1
v 0.7 0.2 -0.1
v 0.7 0.4 -0.1
v 0.7 0.5 -0.1
v 0.8 0 -0.1
v 0.8 0.1 -0.1
v 0.8 0.3 -0.1
v 0.8 0.4 -0.1
v 0.9 0.2 -0.1
v 0.9 0.3 -0.1
v 1 0 -0.1
v 1 0.2 -0.1
v 0.8 0 0.1
v 1 0 0.1
v 0.8 0 -0.1
v 1 0 -0.1
v 0.7 0.1 0.1
v 0.8 0.1 0.1
v 0.7 0.1 -0.1
v 0.8 0.1 -0.1
v 0.6 0.2 0.1
v 0.7 0.2 0.1
v 0.6 0.2 -0.1
v 0.7 0.2 -0.1
v 0.5 0.3 0.1
v 0.6 0.3 0.1
v 0.5 0.3 -0.1
v 0.6 0.3 -0.1
v 0.4 0.4 0.1
v 0.5 0.4 0.1
v 0.4 0.4 -0.1
v 0.5 0.4 -0.1
v -0.9 0.5 0.1
v -0.7 0.5 0.1
v 0.3 0.5 0.1
v 0.4 0.5 0.1
v -0.9 0.5 -0.1
v -0.7 0.5 -0.1
v 0.3 0.5 -0.1
v 0.4 0.5 -0.1
v -0.7 0.6 0.1
v -0.6 0.6 0.1
v 0.2 0.6 0.1
v 0.3 0.6 0.1
v -0.7 0.6 -0.1
v -0.6 0.6 -0.1
v 0.2 0.6 -0.1
v 0.3 0.6 -0.1
v -0.6 0.7 0.1
v -0.5 0.7 0.1
v 0.1 0.7 0.1
v 0.2 0.7 0.1
v -0.6 0.7 -0.1
v -0.5 0.7 -0.1
v 0.1 0.7 -0.1
v 0.2 0.7 -0.1
v -0.5 0.8 0.1
v -0.4 0.8 0.1
v 0 0.8 0.1
v 0.1 0.8 0.1
v -0.5 0.8 -0.1
v -0.4 0.8 -0.1
v 0 0.8 -0.1
v 0.1 0.8 -0.1
v -0.4 0.9 0.1
v -0.3 0.9 0.1
v -0.1 0.9 0.1
v 0 0.9 0.1
v -0.4 0.9 -0.1
v -0.3 0.9 -0.1
v -0.1 0.9 -0.1
v 0 0.9 -0.1
v -0.3 1 0.1
v -0.2 1 0.1
v -0.1 1 0.1
v -0.3 1 -0.1
v -0.2 1 -0.1
v -0.1 1 -0.1
v 0 1.3 0.1
v 0.1 1.3 0.1
v 0 1.3 -0.1
v 0.1 1.3 -0.1
v -0.6 1.4 0.1
v -0.5 1.4 0.1
v 0.1 1.4 0.1
v 0.2 1.4 0.1
v -0.6 1.4 -0.1
v -0.5 1.4 -0.1
v 0.1 1.4 -0.1
v 0.2 1.4 -0.1
v 0.9 0.2 0.1
v 1 0.2 0.1
v 0.9 0.2 -0.1
v 1 0.2 -0.1
v 0.8 0.3 0.1
v 0.9 0.3 0.1
v 0.8 0.3 -0.1
v 0.9 0.3 -0.1
v 0.7 0.4 0.1
v 0.8 0.4 0.1
v 0.7 0.4 -0.1
v 0.8 0.4 -0.1
v 0.6 0.5 0.1
v 0.7 0.5 0.1
v 0.6 0.5 -0.1
v 0.7 0.5 -0.1
v 0.5 0.6 0.1
v 0.6 0.6 0.1
v 0.5 0.6 -0.1
v 0.6 0.6 -0.1
v 0.4 0.7 0.1
v 0.5 0.7 0.1
v 0.4 0.7 -0.1
v 0.5 0.7 -0.1
v -0.9 0.8 0.1
v -0.8 0.8 0.1
v 0.3 0.8 0.1
v 0.4 0.8 0.1
v -0.9 0.8 -0.1
v -0.8 0.8 -0.1
v 0.3 0.8 -0.1
v 0.4 0.8 -0.1
v 0.2 0.9 0.1
v 0.3 0.9 0.1
v 0.2 0.9 -0.1
v 0.3 0.9 -0.1
v -0.8 1 0.1
v -0.7 1 0.1
v 0.1 1 0.1
v 0.2 1 0.1
v -0.8 1 -0.1
v -0.7 1 -0.1
v 0.1 1 -0.1
v 0.2 1 -0.1
v -0.7 1.1 0.1
v -0.6 1.1 0.1
v 0 1.1 0.1
v 0.1 1.1 0.1
v -0.7 1.1 -0.1
v -0.6 1.1 -0.1
v 0 1.1 -0.1
v 0.1 1.1 -0.1
v -0.6 1.2 0.1
v -0.5 1.2 0.1
v -0.6 1.2 -0.1
v -0.5 1.2 -0.1
v -0.4 1.5 0.1
v -0.3 1.5 0.1
v -0.2 1.5 0.1
v 0.1 1.5 0.1
v 0.2 1.5 0.1
v -0.4 1.5 -0.1
v -0.3 1.5 -0.1
v -0.2 1.5 -0.1
v 0.1 1.5 -0.1
v 0.2 1.5 -0.1
v -0.6 1.6 0.1
v -0.4 1.6 0.1
v -0.2 1.6 0.1
v -0.1 1.6 0.1
v 0 1.6 0.1
v 0.1 1.6 0.1
v -0.6 1.6 -0.1
v -0.4 1.6 -0.1
v -0.2 1.6 -0.1
v -0.1 1.6 -0.1
v 0 1.6 -0.1
v 0.1 1.6 -0.1
v -0.1 1.7 0.1
v 0 1.7 0.1
v -0.1 1.7 -0.1
v 0 1.7 -0.1

# faces
f 3/1/1 2/1/1 1/1/1
f 4/1/1 2/1/1 3/1/1
f 7/1/1 6/1/1 5/1/1
f 8/1/1 6/1/1 7/1/1
f 11/1/1 10/1/1 9/1/1
f 12/1/1 10/1/1 11/1/1
f 15/1/1 14/1/1 13/1/1
f 16/1/1 14/1/1 15/1/1
f 19/3/1 18/3/1 17/3/1
f 20/3/1 18/3/1 19/3/1
f 23/1/1 22/1/1 21/1/1
f 24/1/1 22/1/1 23/1/1
f 25/2/1 24/2/1 23/2/1
f 26/2/1 24/2/1 25/2/1
f 29/1/1 28/1/1 27/1/1
f 30/1/1 28/1/1 29/1/1
f 33/3/1 32/3/1 31/3/1
f 34/3/1 32/3/1 33/3/1
f 37/1/1 36/1/1 35/1/1
f 38/1/1 36/1/1 37/1/1
f 41/3/1 40/3/1 39/3/1
f 42/3/1 40/3/1 41/3/1
f 45/3/1 44/3/1 43/3/1
f 46/3/1 44/3/1 45/3/1
f 49/3/1 48/3/1 47/3/1
f 50/3/1 48/3/1 49/3/1
f 53/3/1 52/3/1 51/3/1
f 54/3/1 52/3/1 53/3/1
f 57/3/1 56/3/1 55/3/1
f 58/3/1 56/3/1 57/3/1
f 61/3/1 60/3/1 59/3/1
f 62/3/1 60/3/1 61/3/1
f 65/3/1 64/3/1 63/3/1
f 66/3/1 64/3/1 65/3/1
f 69/3/1 68/3/1 67/3/1
f 70/3/1 68/3/1 69/3/1
f 73/3/1 72/3/1 71/3/1
f 74/3/1 72/3/1 73/3/1
f 75/1/2 76/1/2 77/1/2
f 77/1/2 76/1/2 78/1/2
f 79/1/2 80/1/2 81/1/2
f 81/1/2 80/1/2 82/1/2
f 83/1/2 84/1/2 85/1/2
f 85/1/2 84/1/2 86/1/2
f 87/1/2 88/1/2 89/1/2
f 89/1/2 88/1/2 90/1/2
f 91/3/2 92/3/2 93/3/2
f 93/3/2 92/3/2 94/3/2
f 95/1/2 96/1/2 97/1/2
f 97/1/2 96/1/2 98/1/2
f 99/2/2 100/2/2 101/2/2
f 101/2/2 100/2/2 102/2/2
f 101/1/2 102/1/2 103/1/2
f 103/1/2 102/1/2 104/1/2
f 105/1/2 106/1/2 107/1/2
f 107/1/2 106/1/2 108/1/2
f 109/3/2 110/3/2 111/3/2
f 111/3/2 110/3/2 112/3/2
f 113/1/2 114/1/2 115/1/2
f 115/1/2 114/1/2 116/1/2
f 117/1/2 118/1/2 119/1/2
f 119/1/2 118/1/2 120/1/2
f 121/3/2 122/3/2 123/3/2
f 123/3/2 122/3/2 124/3/2
f 125/1/2 126/1/2 127/1/2
f 127/1/2 126/1/2 128/1/2
f 129/3/2 130/3/2 131/3/2
f 131/3/2 130/3/2 132/3/2
f 133/3/2 134/3/2 135/3/2
f 135/3/2 134/3/2 136/3/2
f 137/3/2 138/3/2 139/3/2
f 139/3/2 138/3/2 140/3/2
f 141/3/2 142/3/2 143/3/2
f 143/3/2 142/3/2 144/3/2
f 145/3/2 146/3/2 147/3/2
f 147/3/2 146/3/2 148/3/2
f 149/3/2 150/3/2 151/3/2
f 151/3/2 150/3/2 152/3/2
f 153/3/2 154/3/2 155/3/2
f 155/3/2 154/3/2 156/3/2
f 157/3/2 158/3/2 159/3/2
f 159/3/2 158/3/2 160/3/2
f 163/1/3 162/1/3 161/1/3
f 165/1/3 163/1/3 161/1/3
f 165/1/3 164/1/3 163/1/3
f 166/1/3 164/1/3 165/1/3
f 167/1/3 164/1/3 166/1/3
f 169/1/3 168/1/3 167/1/3
f 169/1/3 167/1/3 166/1/3
f 170/1/3 168/1/3 169/1/3
f 171/1/3 168/1/3 170/1/3
f 175/1/3 171/1/3 170/1/3
f 175/1/3 172/1/3 171/1/3
f 176/1/3 172/1/3 175/1/3
f 177/1/3 172/1/3 176/1/3
f 179/3/3 174/3/3 173/3/3
f 180/1/3 178/1/3 177/1/3
f 180/1/3 177/1/3 176/1/3
f 181/1/3 178/1/3 180/1/3
f 182/1/3 178/1/3 181/1/3
f 183/2/3 179/2/3 178/2/3
f 183/1/3 178/1/3 182/1/3
f 184/3/3 174/3/3 179/3/3
f 184/2/3 179/2/3 183/2/3
f 185/3/3 174/3/3 184/3/3
f 186/3/3 174/3/3 185/3/3
f 187/1/3 182/1/3 181/1/3
f 188/1/3 182/1/3 187/1/3
f 189/1/3 182/1/3 188/1/3
f 190/3/3 183/3/3 182/3/3
f 190/1/3 182/1/3 189/1/3
f 190/3/3 184/3/3 183/3/3
f 191/2/3 185/2/3 184/2/3
f 191/3/3 184/3/3 190/3/3
f 192/2/3 185/2/3 191/2/3
f 193/1/3 189/1/3 188/1/3
f 194/3/3 190/3/3 189/3/3
f 194/1/3 189/1/3 193/1/3
f 194/3/3 191/3/3 190/3/3
f 195/3/3 191/3/3 194/3/3
f 196/1/3 192/1/3 191/1/3
f 196/3/3 191/3/3 195/3/3
f 197/1/3 192/1/3 196/1/3
f 200/2/3 194/2/3 193/2/3
f 201/3/3 195/3/3 194/3/3
f 201/2/3 194/2/3 200/2/3
f 202/3/3 195/3/3 201/3/3
f 203/1/3 197/1/3 196/1/3
f 203/3/3 195/3/3 202/3/3
f 203/1/3 198/1/3 197/1/3
f 203/1/3 196/1/3 195/1/3
f 204/1/3 198/1/3 203/1/3
f 207/3/3 200/3/3 199/3/3
f 207/3/3 201/3/3 200/3/3
f 208/2/3 202/2/3 201/2/3
f 208/3/3 201/3/3 207/3/3
f 209/1/3 204/1/3 203/1/3
f 209/2/3 202/2/3 208/2/3
f 209/1/3 205/1/3 204/1/3
f 209/1/3 203/1/3 202/1/3
f 210/1/3 205/1/3 209/1/3
f 211/1/3 205/1/3 210/1/3
f 212/1/3 205/1/3 211/1/3
f 214/3/3 208/3/3 207/3/3
f 214/3/3 207/3/3 206/3/3
f 215/3/3 208/3/3 214/3/3
f 216/3/3 208/3/3 215/3/3
f 217/1/3 211/1/3 210/1/3
f 218/1/3 211/1/3 217/1/3
f 219/1/3 211/1/3 218/1/3
f 220/1/3 211/1/3 219/1/3
f 222/3/3 214/3/3 213/3/3
f 222/3/3 215/3/3 214/3/3
f 223/3/3 215/3/3 222/3/3
f 224/3/3 215/3/3 223/3/3
f 225/1/3 219/1/3 218/1/3
f 226/1/3 219/1/3 225/1/3
f 228/3/3 222/3/3 221/3/3
f 228/3/3 223/3/3 222/3/3
f 229/3/3 223/3/3 228/3/3
f 230/3/3 223/3/3 229/3/3
f 232/3/3 228/3/3 227/3/3
f 232/3/3 229/3/3 228/3/3
f 233/3/3 229/3/3 232/3/3
f 234/3/3 229/3/3 233/3/3
f 236/3/3 232/3/3 231/3/3
f 236/3/3 233/3/3 232/3/3
f 237/3/3 233/3/3 236/3/3
f 238/3/3 233/3/3 237/3/3
f 240/3/3 236/3/3 235/3/3
f 240/3/3 237/3/3 236/3/3
f 241/3/3 237/3/3 240/3/3
f 242/3/3 237/3/3 241/3/3
f 244/3/3 240/3/3 239/3/3
f 244/3/3 241/3/3 240/3/3
f 245/3/3 241/3/3 244/3/3
f 246/3/3 241/3/3 245/3/3
f 248/3/3 244/3/3 243/3/3
f 248/3/3 245/3/3 244/3/3
f 249/3/3 245/3/3 248/3/3
f 250/3/3 245/3/3 249/3/3
f 251/3/3 248/3/3 247/3/3
f 251/3/3 249/3/3 248/3/3
f 252/3/3 249/3/3 251/3/3
f 253/3/3 251/3/3 247/3/3
f 254/3/3 251/3/3 253/3/3
f 255/1/4 256/1/4 257/1/4
f 255/1/4 257/1/4 259/1/4
f 257/1/4 258/1/4 259/1/4
f 259/1/4 258/1/4 260/1/4
f 260/1/4 258/1/4 261/1/4
f 261/1/4 262/1/4 263/1/4
f 260/1/4 261/1/4 263/1/4
f 263/1/4 262/1/4 264/1/4
f 264/1/4 262/1/4 265/1/4
f 264/1/4 265/1/4 269/1/4
f 265/1/4 266/1/4 269/1/4
f 269/1/4 266/1/4 270/1/4
f 270/1/4 266/1/4 271/1/4
f 267/3/4 268/3/4 273/3/4
f 271/1/4 272/1/4 274/1/4
f 270/1/4 271/1/4 274/1/4
f 274/1/4 272/1/4 275/1/4
f 275/1/4 272/1/4 276/1/4
f 272/2/4 273/2/4 277/2/4
f 276/1/4 272/1/4 277/1/4
f 273/3/4 268/3/4 278/3/4
f 277/2/4 273/2/4 278/2/4
f 278/3/4 268/3/4 279/3/4
f 279/3/4 268/3/4 280/3/4
f 275/1/4 276/1/4 281/1/4
f 281/1/4 276/1/4 282/1/4
f 282/1/4 276/1/4 283/1/4
f 276/3/4 277/3/4 284/3/4
f 283/1/4 276/1/4 284/1/4
f 277/3/4 278/3/4 284/3/4
f 278/2/4 279/2/4 285/2/4
f 284/3/4 278/3/4 285/3/4
f 285/2/4 279/2/4 286/2/4
f 282/1/4 283/1/4 287/1/4
f 283/3/4 284/3/4 288/3/4
f 287/1/4 283/1/4 288/1/4
f 284/3/4 285/3/4 288/3/4
f 288/3/4 285/3/4 289/3/4
f 285/1/4 286/1/4 290/1/4
f 289/3/4 285/3/4 290/3/4
f 290/1/4 286/1/4 291/1/4
f 287/2/4 288/2/4 294/2/4
f 288/3/4 289/3/4 295/3/4
f 294/2/4 288/2/4 295/2/4
f 295/3/4 289/3/4 296/3/4
f 290/1/4 291/1/4 297/1/4
f 296/3/4 289/3/4 297/3/4
f 291/1/4 292/1/4 297/1/4
f 289/1/4 290/1/4 297/1/4
f 297/1/4 292/1/4 298/1/4
f 293/3/4 294/3/4 301/3/4
f 294/3/4 295/3/4 301/3/4
f 295/2/4 296/2/4 302/2/4
f 301/3/4 295/3/4 302/3/4
f 297/1/4 298/1/4 303/1/4
f 302/2/4 296/2/4 303/2/4
f 298/1/4 299/1/4 303/1/4
f 296/1/4 297/1/4 303/1/4
f 303/1/4 299/1/4 304/1/4
f 304/1/4 299/1/4 305/1/4
f 305/1/4 299/1/4 306/1/4
f 301/3/4 302/3/4 308/3/4
f 300/3/4 301/3/4 308/3/4
f 308/3/4 302/3/4 309/3/4
f 309/3/4 302/3/4 310/3/4
f 304/1/4 305/1/4 311/1/4
f 311/1/4 305/1/4 312/1/4
f 312/1/4 305/1/4 313/1/4
f 313/1/4 305/1/4 314/1/4
f 307/3/4 308/3/4 316/3/4
f 308/3/4 309/3/4 316/3/4
f 316/3/4 309/3/4 317/3/4
f 317/3/4 309/3/4 318/3/4
f 312/1/4 313/1/4 319/1/4
f 319/1/4 313/1/4 320/1/4
f 315/3/4 316/3/4 322/3/4
f 316/3/4 317/3/4 322/3/4
f 322/3/4 317/3/4 323/3/4
f 323/3/4 317/3/4 324/3/4
f 321/3/4 322/3/4 326/3/4
f 322/3/4 323/3/4 326/3/4
f 326/3/4 323/3/4 327/3/4
f 327/3/4 323/3/4 328/3/4
f 325/3/4 326/3/4 330/3/4
f 326/3/4 327/3/4 330/3/4
f 330/3/4 327/3/4 331/3/4
f 331/3/4 327/3/4 332/3/4
f 329/3/4 330/3/4 334/3/4
f 330/3/4 331/3/4 334/3/4
f 334/3/4 331/3/4 335/3/4
f 335/3/4 331/3/4 336/3/4
f 333/3/4 334/3/4 338/3/4
f 334/3/4 335/3/4 338/3/4
f 338/3/4 335/3/4 339/3/4
f 339/3/4 335/3/4 340/3/4
f 337/3/4 338/3/4 342/3/4
f 338/3/4 339/3/4 342/3/4
f 342/3/4 339/3/4 343/3/4
f 343/3/4 339/3/4 344/3/4
f 341/3/4 342/3/4 345/3/4
f 342/3/4 343/3/4 345/3/4
f 345/3/4 343/3/4 346/3/4
f 341/3/4 345/3/4 347/3/4
f 347/3/4 345/3/4 348/3/4
f 351/3/5 350/3/5 349/3/5
f 352/3/5 350/3/5 351/3/5
f 355/3/5 354/3/5 353/3/5
f 356/3/5 354/3/5 355/3/5
f 359/3/5 358/3/5 357/3/5
f 360/3/5 358/3/5 359/3/5
f 363/3/5 362/3/5 361/3/5
f 364/3/5 362/3/5 363/3/5
f 367/3/5 366/3/5 365/3/5
f 368/3/5 366/3/5 367/3/5
f 373/1/5 370/1/5 369/1/5
f 374/1/5 370/1/5 373/1/5
f 375/3/5 372/3/5 371/3/5
f 376/3/5 372/3/5 375/3/5
f 381/1/5 378/1/5 377/1/5
f 382/1/5 378/1/5 381/1/5
f 383/3/5 380/3/5 379/3/5
f 384/3/5 380/3/5 383/3/5
f 389/1/5 386/1/5 385/1/5
f 390/1/5 386/1/5 389/1/5
f 391/3/5 388/3/5 387/3/5
f 392/3/5 388/3/5 391/3/5
f 397/1/5 394/1/5 393/1/5
f 398/1/5 394/1/5 397/1/5
f 399/3/5 396/3/5 395/3/5
f 400/3/5 396/3/5 399/3/5
f 405/1/5 402/1/5 401/1/5
f 406/1/5 402/1/5 405/1/5
f 407/3/5 404/3/5 403/3/5
f 408/3/5 404/3/5 407/3/5
f 412/1/5 410/1/5 409/1/5
f 413/2/5 411/2/5 410/2/5
f 413/1/5 410/1/5 412/1/5
f 414/2/5 411/2/5 413/2/5
f 417/1/5 416/1/5 415/1/5
f 418/1/5 416/1/5 417/1/5
f 423/3/5 420/3/5 419/3/5
f 424/3/5 420/3/5 423/3/5
f 425/1/5 422/1/5 421/1/5
f 426/1/5 422/1/5 425/1/5
f 427/3/6 428/3/6 429/3/6
f 429/3/6 428/3/6 430/3/6
f 431/3/6 432/3/6 433/3/6
f 433/3/6 432/3/6 434/3/6
f 435/3/6 436/3/6 437/3/6
f 437/3/6 436/3/6 438/3/6
f 439/3/6 440/3/6 441/3/6
f 441/3/6 440/3/6 442/3/6
f 443/3/6 444/3/6 445/3/6
f 445/3/6 444/3/6 446/3/6
f 447/3/6 448/3/6 449/3/6
f 449/3/6 448/3/6 450/3/6
f 451/1/6 452/1/6 455/1/6
f 455/1/6 452/1/6 456/1/6
f 453/3/6 454/3/6 457/3/6
f 457/3/6 454/3/6 458/3/6
f 459/3/6 460/3/6 461/3/6
f 461/3/6 460/3/6 462/3/6
f 463/1/6 464/1/6 467/1/6
f 467/1/6 464/1/6 468/1/6
f 465/3/6 466/3/6 469/3/6
f 469/3/6 466/3/6 470/3/6
f 471/1/6 472/1/6 475/1/6
f 475/1/6 472/1/6 476/1/6
f 473/3/6 474/3/6 477/3/6
f 477/3/6 474/3/6 478/3/6
f 479/1/6 480/1/6 481/1/6
f 481/1/6 480/1/6 482/1/6
f 483/2/6 484/2/6 488/2/6
f 484/1/6 485/1/6 489/1/6
f 488/2/6 484/2/6 489/2/6
f 489/1/6 485/1/6 490/1/6
f 486/1/6 487/1/6 491/1/6
f 491/1/6 487/1/6 492/1/6
f 493/3/6 494/3/6 499/3/6
f 499/3/6 494/3/6 500/3/6
f 495/1/6 496/1/6 501/1/6
f 501/1/6 496/1/6 502/1/6
f 497/1/6 498/1/6 503/1/6
f 503/1/6 498/1/6 504/1/6
f 505/1/6 506/1/6 507/1/6
f 507/1/6 506/1/6 508/1/6
