# MagicaVoxel @ Ephtracy

# group
o 

# material
mtllib sword_black.mtl
usemtl palette

# normals
vn -1 0 0
vn 1 0 0
vn 0 0 1
vn 0 0 -1
vn 0 -1 0
vn 0 1 0

# texcoords
vt 0.302734 0.5
vt 0.306641 0.5
vt 0.369141 0.5
vt 0.396484 0.5
vt 0.908203 0.5
vt 0.939453 0.5
vt 0.943359 0.5
vt 0.947266 0.5
vt 0.955078 0.5
vt 0.966797 0.5
vt 0.994141 0.5

# verts
v 0.2 3.6 -1.2
v 0.2 3.6 -1.3
v 0.2 3.7 -1.2
v 0.2 3.7 -1.3
v 0.3 3.5 -1.2
v 0.3 3.5 -1.3
v 0.3 3.6 -1.1
v 0.3 3.6 -1.2
v 0.3 3.6 -1.3
v 0.3 3.6 -1.4
v 0.3 3.7 -1.1
v 0.3 3.7 -1.2
v 0.3 3.7 -1.3
v 0.3 3.7 -1.4
v 0.3 3.8 -1.2
v 0.3 3.8 -1.3
v 0.4 3.7 -1.1
v 0.4 3.7 -1.2
v 0.4 3.7 -1.3
v 0.4 3.7 -1.4
v 0.4 3.8 -1.1
v 0.4 3.8 -1.2
v 0.4 3.8 -1.3
v 0.4 3.8 -1.4
v 0.4 3.9 -1.2
v 0.4 3.9 -1.3
v 0.9 2.6 -1.1
v 0.9 2.6 -1.4
v 0.9 2.8 -1.1
v 0.9 2.8 -1.4
v 1 2.5 -1.1
v 1 2.5 -1.4
v 1 2.6 -1.1
v 1 2.6 -1.4
v 1 2.8 -1.2
v 1 2.8 -1.3
v 1 2.9 -1.2
v 1 2.9 -1.3
v 1 3 -1.2
v 1 3 -1.3
v 1 3.1 -1.2
v 1 3.1 -1.3
v 1 3.2 -1.2
v 1 3.2 -1.3
v 1 3.3 -1.2
v 1 3.3 -1.3
v 1 3.4 -1.2
v 1 3.4 -1.3
v 1 3.5 -1.2
v 1 3.5 -1.3
v 1 3.9 -1.1
v 1 3.9 -1.2
v 1 3.9 -1.3
v 1 3.9 -1.4
v 1 6.2 -1.1
v 1 6.2 -1.4
v 1.1 2.8 -1.1
v 1.1 2.8 -1.2
v 1.1 2.8 -1.3
v 1.1 2.8 -1.4
v 1.1 2.9 -1.1
v 1.1 2.9 -1.2
v 1.1 2.9 -1.3
v 1.1 2.9 -1.4
v 1.1 3 -1.1
v 1.1 3 -1.2
v 1.1 3 -1.3
v 1.1 3 -1.4
v 1.1 3.1 -1.1
v 1.1 3.1 -1.2
v 1.1 3.1 -1.3
v 1.1 3.1 -1.4
v 1.1 3.2 -1.1
v 1.1 3.2 -1.2
v 1.1 3.2 -1.3
v 1.1 3.2 -1.4
v 1.1 3.3 -1.1
v 1.1 3.3 -1.2
v 1.1 3.3 -1.3
v 1.1 3.3 -1.4
v 1.1 3.4 -1.1
v 1.1 3.4 -1.2
v 1.1 3.4 -1.3
v 1.1 3.4 -1.4
v 1.1 3.5 -1.1
v 1.1 3.5 -1.2
v 1.1 3.5 -1.3
v 1.1 3.5 -1.4
v 1.1 3.6 -1.1
v 1.1 3.6 -1.2
v 1.1 3.6 -1.3
v 1.1 3.6 -1.4
v 1.1 6.2 -1.1
v 1.1 6.2 -1.4
v 1.1 6.3 -1.1
v 1.1 6.3 -1.4
v 1.2 6.3 -1.1
v 1.2 6.3 -1.4
v 1.2 6.4 -1.1
v 1.2 6.4 -1.4
v 1.3 3.9 -1.1
v 1.3 3.9 -1.2
v 1.3 3.9 -1.3
v 1.3 3.9 -1.4
v 1.3 6.1 -1.1
v 1.3 6.1 -1.2
v 1.3 6.1 -1.3
v 1.3 6.1 -1.4
v 1.2 3.9 -1.1
v 1.2 3.9 -1.2
v 1.2 3.9 -1.3
v 1.2 3.9 -1.4
v 1.2 6.1 -1.1
v 1.2 6.1 -1.2
v 1.2 6.1 -1.3
v 1.2 6.1 -1.4
v 1.3 6.3 -1.1
v 1.3 6.3 -1.4
v 1.3 6.4 -1.1
v 1.3 6.4 -1.4
v 1.4 2.8 -1.1
v 1.4 2.8 -1.2
v 1.4 2.8 -1.3
v 1.4 2.8 -1.4
v 1.4 2.9 -1.1
v 1.4 2.9 -1.2
v 1.4 2.9 -1.3
v 1.4 2.9 -1.4
v 1.4 3 -1.1
v 1.4 3 -1.2
v 1.4 3 -1.3
v 1.4 3 -1.4
v 1.4 3.1 -1.1
v 1.4 3.1 -1.2
v 1.4 3.1 -1.3
v 1.4 3.1 -1.4
v 1.4 3.2 -1.1
v 1.4 3.2 -1.2
v 1.4 3.2 -1.3
v 1.4 3.2 -1.4
v 1.4 3.3 -1.1
v 1.4 3.3 -1.2
v 1.4 3.3 -1.3
v 1.4 3.3 -1.4
v 1.4 3.4 -1.1
v 1.4 3.4 -1.2
v 1.4 3.4 -1.3
v 1.4 3.4 -1.4
v 1.4 3.5 -1.1
v 1.4 3.5 -1.2
v 1.4 3.5 -1.3
v 1.4 3.5 -1.4
v 1.4 3.6 -1.1
v 1.4 3.6 -1.2
v 1.4 3.6 -1.3
v 1.4 3.6 -1.4
v 1.4 6.2 -1.1
v 1.4 6.2 -1.4
v 1.4 6.3 -1.1
v 1.4 6.3 -1.4
v 1.5 2.5 -1.1
v 1.5 2.5 -1.4
v 1.5 2.6 -1.1
v 1.5 2.6 -1.4
v 1.5 2.8 -1.2
v 1.5 2.8 -1.3
v 1.5 2.9 -1.2
v 1.5 2.9 -1.3
v 1.5 3 -1.2
v 1.5 3 -1.3
v 1.5 3.1 -1.2
v 1.5 3.1 -1.3
v 1.5 3.2 -1.2
v 1.5 3.2 -1.3
v 1.5 3.3 -1.2
v 1.5 3.3 -1.3
v 1.5 3.4 -1.2
v 1.5 3.4 -1.3
v 1.5 3.5 -1.2
v 1.5 3.5 -1.3
v 1.5 3.9 -1.1
v 1.5 3.9 -1.2
v 1.5 3.9 -1.3
v 1.5 3.9 -1.4
v 1.5 6.2 -1.1
v 1.5 6.2 -1.4
v 1.6 2.6 -1.1
v 1.6 2.6 -1.4
v 1.6 2.8 -1.1
v 1.6 2.8 -1.4
v 2.1 3.7 -1.1
v 2.1 3.7 -1.2
v 2.1 3.7 -1.3
v 2.1 3.7 -1.4
v 2.1 3.8 -1.1
v 2.1 3.8 -1.2
v 2.1 3.8 -1.3
v 2.1 3.8 -1.4
v 2.1 3.9 -1.2
v 2.1 3.9 -1.3
v 2.2 3.5 -1.2
v 2.2 3.5 -1.3
v 2.2 3.6 -1.1
v 2.2 3.6 -1.2
v 2.2 3.6 -1.3
v 2.2 3.6 -1.4
v 2.2 3.7 -1.1
v 2.2 3.7 -1.2
v 2.2 3.7 -1.3
v 2.2 3.7 -1.4
v 2.2 3.8 -1.2
v 2.2 3.8 -1.3
v 2.3 3.6 -1.2
v 2.3 3.6 -1.3
v 2.3 3.7 -1.2
v 2.3 3.7 -1.3
v 0.3 3.6 -1.1
v 0.3 3.7 -1.1
v 0.4 3.7 -1.1
v 0.4 3.8 -1.1
v 0.9 2.6 -1.1
v 0.9 2.8 -1.1
v 1 2.5 -1.1
v 1 2.6 -1.1
v 1 3.9 -1.1
v 1 6.2 -1.1
v 1.1 2.8 -1.1
v 1.1 2.9 -1.1
v 1.1 3 -1.1
v 1.1 3.1 -1.1
v 1.1 3.2 -1.1
v 1.1 3.3 -1.1
v 1.1 3.4 -1.1
v 1.1 3.5 -1.1
v 1.1 3.6 -1.1
v 1.1 6.2 -1.1
v 1.1 6.3 -1.1
v 1.2 3.9 -1.1
v 1.2 6.1 -1.1
v 1.2 6.3 -1.1
v 1.2 6.4 -1.1
v 1.3 3.9 -1.1
v 1.3 6.1 -1.1
v 1.3 6.3 -1.1
v 1.3 6.4 -1.1
v 1.4 2.8 -1.1
v 1.4 2.9 -1.1
v 1.4 3 -1.1
v 1.4 3.1 -1.1
v 1.4 3.2 -1.1
v 1.4 3.3 -1.1
v 1.4 3.4 -1.1
v 1.4 3.5 -1.1
v 1.4 3.6 -1.1
v 1.4 6.2 -1.1
v 1.4 6.3 -1.1
v 1.5 2.5 -1.1
v 1.5 2.6 -1.1
v 1.5 3.9 -1.1
v 1.5 6.2 -1.1
v 1.6 2.6 -1.1
v 1.6 2.8 -1.1
v 2.1 3.7 -1.1
v 2.1 3.8 -1.1
v 2.2 3.6 -1.1
v 2.2 3.7 -1.1
v 0.2 3.6 -1.2
v 0.2 3.7 -1.2
v 0.3 3.5 -1.2
v 0.3 3.6 -1.2
v 0.3 3.7 -1.2
v 0.3 3.8 -1.2
v 0.4 3.7 -1.2
v 0.4 3.8 -1.2
v 0.4 3.9 -1.2
v 0.5 3.8 -1.2
v 0.5 3.9 -1.2
v 1 2.8 -1.2
v 1 2.9 -1.2
v 1 3 -1.2
v 1 3.1 -1.2
v 1 3.2 -1.2
v 1 3.3 -1.2
v 1 3.4 -1.2
v 1 3.5 -1.2
v 1 3.9 -1.2
v 1.1 2.8 -1.2
v 1.1 2.9 -1.2
v 1.1 3 -1.2
v 1.1 3.1 -1.2
v 1.1 3.2 -1.2
v 1.1 3.3 -1.2
v 1.1 3.4 -1.2
v 1.1 3.5 -1.2
v 1.1 3.6 -1.2
v 1.2 3.9 -1.2
v 1.2 6.1 -1.2
v 1.3 3.9 -1.2
v 1.3 6.1 -1.2
v 1.4 2.8 -1.2
v 1.4 2.9 -1.2
v 1.4 3 -1.2
v 1.4 3.1 -1.2
v 1.4 3.2 -1.2
v 1.4 3.3 -1.2
v 1.4 3.4 -1.2
v 1.4 3.5 -1.2
v 1.4 3.6 -1.2
v 1.5 2.8 -1.2
v 1.5 2.9 -1.2
v 1.5 3 -1.2
v 1.5 3.1 -1.2
v 1.5 3.2 -1.2
v 1.5 3.3 -1.2
v 1.5 3.4 -1.2
v 1.5 3.5 -1.2
v 1.5 3.9 -1.2
v 2 3.8 -1.2
v 2 3.9 -1.2
v 2.1 3.7 -1.2
v 2.1 3.8 -1.2
v 2.1 3.9 -1.2
v 2.2 3.5 -1.2
v 2.2 3.6 -1.2
v 2.2 3.7 -1.2
v 2.2 3.8 -1.2
v 2.3 3.6 -1.2
v 2.3 3.7 -1.2
v 0.2 3.6 -1.3
v 0.2 3.7 -1.3
v 0.3 3.5 -1.3
v 0.3 3.6 -1.3
v 0.3 3.7 -1.3
v 0.3 3.8 -1.3
v 0.4 3.7 -1.3
v 0.4 3.8 -1.3
v 0.4 3.9 -1.3
v 0.5 3.8 -1.3
v 0.5 3.9 -1.3
v 1 2.8 -1.3
v 1 2.9 -1.3
v 1 3 -1.3
v 1 3.1 -1.3
v 1 3.2 -1.3
v 1 3.3 -1.3
v 1 3.4 -1.3
v 1 3.5 -1.3
v 1 3.9 -1.3
v 1.1 2.8 -1.3
v 1.1 2.9 -1.3
v 1.1 3 -1.3
v 1.1 3.1 -1.3
v 1.1 3.2 -1.3
v 1.1 3.3 -1.3
v 1.1 3.4 -1.3
v 1.1 3.5 -1.3
v 1.1 3.6 -1.3
v 1.2 3.9 -1.3
v 1.2 6.1 -1.3
v 1.3 3.9 -1.3
v 1.3 6.1 -1.3
v 1.4 2.8 -1.3
v 1.4 2.9 -1.3
v 1.4 3 -1.3
v 1.4 3.1 -1.3
v 1.4 3.2 -1.3
v 1.4 3.3 -1.3
v 1.4 3.4 -1.3
v 1.4 3.5 -1.3
v 1.4 3.6 -1.3
v 1.5 2.8 -1.3
v 1.5 2.9 -1.3
v 1.5 3 -1.3
v 1.5 3.1 -1.3
v 1.5 3.2 -1.3
v 1.5 3.3 -1.3
v 1.5 3.4 -1.3
v 1.5 3.5 -1.3
v 1.5 3.9 -1.3
v 2 3.8 -1.3
v 2 3.9 -1.3
v 2.1 3.7 -1.3
v 2.1 3.8 -1.3
v 2.1 3.9 -1.3
v 2.2 3.5 -1.3
v 2.2 3.6 -1.3
v 2.2 3.7 -1.3
v 2.2 3.8 -1.3
v 2.3 3.6 -1.3
v 2.3 3.7 -1.3
v 0.3 3.6 -1.4
v 0.3 3.7 -1.4
v 0.4 3.7 -1.4
v 0.4 3.8 -1.4
v 0.9 2.6 -1.4
v 0.9 2.8 -1.4
v 1 2.5 -1.4
v 1 2.6 -1.4
v 1 3.9 -1.4
v 1 6.2 -1.4
v 1.1 2.8 -1.4
v 1.1 2.9 -1.4
v 1.1 3 -1.4
v 1.1 3.1 -1.4
v 1.1 3.2 -1.4
v 1.1 3.3 -1.4
v 1.1 3.4 -1.4
v 1.1 3.5 -1.4
v 1.1 3.6 -1.4
v 1.1 6.2 -1.4
v 1.1 6.3 -1.4
v 1.2 3.9 -1.4
v 1.2 6.1 -1.4
v 1.2 6.3 -1.4
v 1.2 6.4 -1.4
v 1.3 3.9 -1.4
v 1.3 6.1 -1.4
v 1.3 6.3 -1.4
v 1.3 6.4 -1.4
v 1.4 2.8 -1.4
v 1.4 2.9 -1.4
v 1.4 3 -1.4
v 1.4 3.1 -1.4
v 1.4 3.2 -1.4
v 1.4 3.3 -1.4
v 1.4 3.4 -1.4
v 1.4 3.5 -1.4
v 1.4 3.6 -1.4
v 1.4 6.2 -1.4
v 1.4 6.3 -1.4
v 1.5 2.5 -1.4
v 1.5 2.6 -1.4
v 1.5 3.9 -1.4
v 1.5 6.2 -1.4
v 1.6 2.6 -1.4
v 1.6 2.8 -1.4
v 2.1 3.7 -1.4
v 2.1 3.8 -1.4
v 2.2 3.6 -1.4
v 2.2 3.7 -1.4
v 1 2.5 -1.1
v 1.5 2.5 -1.1
v 1 2.5 -1.4
v 1.5 2.5 -1.4
v 0.9 2.6 -1.1
v 1 2.6 -1.1
v 1.5 2.6 -1.1
v 1.6 2.6 -1.1
v 0.9 2.6 -1.4
v 1 2.6 -1.4
v 1.5 2.6 -1.4
v 1.6 2.6 -1.4
v 0.3 3.5 -1.2
v 1 3.5 -1.2
v 1.5 3.5 -1.2
v 2.2 3.5 -1.2
v 0.3 3.5 -1.3
v 1 3.5 -1.3
v 1.5 3.5 -1.3
v 2.2 3.5 -1.3
v 0.3 3.6 -1.1
v 1.1 3.6 -1.1
v 1.4 3.6 -1.1
v 2.2 3.6 -1.1
v 0.2 3.6 -1.2
v 0.3 3.6 -1.2
v 1.1 3.6 -1.2
v 1.4 3.6 -1.2
v 2.2 3.6 -1.2
v 2.3 3.6 -1.2
v 0.2 3.6 -1.3
v 0.3 3.6 -1.3
v 1.1 3.6 -1.3
v 1.4 3.6 -1.3
v 2.2 3.6 -1.3
v 2.3 3.6 -1.3
v 0.3 3.6 -1.4
v 1.1 3.6 -1.4
v 1.4 3.6 -1.4
v 2.2 3.6 -1.4
v 1 3.9 -1.1
v 1.2 3.9 -1.1
v 1.3 3.9 -1.1
v 1.5 3.9 -1.1
v 1 3.9 -1.2
v 1.2 3.9 -1.2
v 1.3 3.9 -1.2
v 1.5 3.9 -1.2
v 1 3.9 -1.3
v 1.2 3.9 -1.3
v 1.3 3.9 -1.3
v 1.5 3.9 -1.3
v 1 3.9 -1.4
v 1.2 3.9 -1.4
v 1.3 3.9 -1.4
v 1.5 3.9 -1.4
v 1.2 6.1 -1.1
v 1.3 6.1 -1.1
v 1.2 6.1 -1.2
v 1.3 6.1 -1.2
v 1.2 6.1 -1.3
v 1.3 6.1 -1.3
v 1.2 6.1 -1.4
v 1.3 6.1 -1.4
v 0.9 2.8 -1.1
v 1.1 2.8 -1.1
v 1.4 2.8 -1.1
v 1.6 2.8 -1.1
v 1 2.8 -1.2
v 1.1 2.8 -1.2
v 1.4 2.8 -1.2
v 1.5 2.8 -1.2
v 1 2.8 -1.3
v 1.1 2.8 -1.3
v 1.4 2.8 -1.3
v 1.5 2.8 -1.3
v 0.9 2.8 -1.4
v 1.1 2.8 -1.4
v 1.4 2.8 -1.4
v 1.6 2.8 -1.4
v 0.3 3.7 -1.1
v 0.4 3.7 -1.1
v 2.1 3.7 -1.1
v 2.2 3.7 -1.1
v 0.2 3.7 -1.2
v 0.3 3.7 -1.2
v 0.4 3.7 -1.2
v 2.1 3.7 -1.2
v 2.2 3.7 -1.2
v 2.3 3.7 -1.2
v 0.2 3.7 -1.3
v 0.3 3.7 -1.3
v 0.4 3.7 -1.3
v 2.1 3.7 -1.3
v 2.2 3.7 -1.3
v 2.3 3.7 -1.3
v 0.3 3.7 -1.4
v 0.4 3.7 -1.4
v 2.1 3.7 -1.4
v 2.2 3.7 -1.4
v 0.4 3.8 -1.1
v 2.1 3.8 -1.1
v 0.3 3.8 -1.2
v 0.4 3.8 -1.2
v 0.5 3.8 -1.2
v 2 3.8 -1.2
v 2.1 3.8 -1.2
v 2.2 3.8 -1.2
v 0.3 3.8 -1.3
v 0.4 3.8 -1.3
v 0.5 3.8 -1.3
v 2 3.8 -1.3
v 2.1 3.8 -1.3
v 2.2 3.8 -1.3
v 0.4 3.8 -1.4
v 2.1 3.8 -1.4
v 0.4 3.9 -1.2
v 0.5 3.9 -1.2
v 1 3.9 -1.2
v 1.5 3.9 -1.2
v 2 3.9 -1.2
v 2.1 3.9 -1.2
v 0.4 3.9 -1.3
v 0.5 3.9 -1.3
v 1 3.9 -1.3
v 1.5 3.9 -1.3
v 2 3.9 -1.3
v 2.1 3.9 -1.3
v 1 6.2 -1.1
v 1.1 6.2 -1.1
v 1.4 6.2 -1.1
v 1.5 6.2 -1.1
v 1 6.2 -1.4
v 1.1 6.2 -1.4
v 1.4 6.2 -1.4
v 1.5 6.2 -1.4
v 1.1 6.3 -1.1
v 1.2 6.3 -1.1
v 1.3 6.3 -1.1
v 1.4 6.3 -1.1
v 1.1 6.3 -1.4
v 1.2 6.3 -1.4
v 1.3 6.3 -1.4
v 1.4 6.3 -1.4
v 1.2 6.4 -1.1
v 1.3 6.4 -1.1
v 1.2 6.4 -1.4
v 1.3 6.4 -1.4

# faces
f 3/11/1 2/11/1 1/11/1
f 4/11/1 2/11/1 3/11/1
f 8/9/1 6/9/1 5/9/1
f 9/9/1 6/9/1 8/9/1
f 11/8/1 8/8/1 7/8/1
f 12/8/1 8/8/1 11/8/1
f 13/8/1 10/8/1 9/8/1
f 14/8/1 10/8/1 13/8/1
f 15/11/1 13/11/1 12/11/1
f 16/11/1 13/11/1 15/11/1
f 21/7/1 18/7/1 17/7/1
f 22/7/1 18/7/1 21/7/1
f 23/7/1 20/7/1 19/7/1
f 24/7/1 20/7/1 23/7/1
f 25/11/1 23/11/1 22/11/1
f 26/11/1 23/11/1 25/11/1
f 29/5/1 28/5/1 27/5/1
f 30/5/1 28/5/1 29/5/1
f 33/11/1 32/11/1 31/11/1
f 34/11/1 32/11/1 33/11/1
f 37/10/1 36/10/1 35/10/1
f 38/10/1 36/10/1 37/10/1
f 39/5/1 38/5/1 37/5/1
f 40/5/1 38/5/1 39/5/1
f 41/10/1 40/10/1 39/10/1
f 42/10/1 40/10/1 41/10/1
f 43/5/1 42/5/1 41/5/1
f 44/5/1 42/5/1 43/5/1
f 45/10/1 44/10/1 43/10/1
f 46/10/1 44/10/1 45/10/1
f 47/5/1 46/5/1 45/5/1
f 48/5/1 46/5/1 47/5/1
f 49/10/1 48/10/1 47/10/1
f 50/10/1 48/10/1 49/10/1
f 55/2/1 53/2/1 52/2/1
f 55/2/1 54/2/1 53/2/1
f 55/2/1 52/2/1 51/2/1
f 56/2/1 54/2/1 55/2/1
f 61/10/1 58/10/1 57/10/1
f 62/10/1 58/10/1 61/10/1
f 63/10/1 60/10/1 59/10/1
f 64/10/1 60/10/1 63/10/1
f 65/5/1 62/5/1 61/5/1
f 66/5/1 62/5/1 65/5/1
f 67/5/1 64/5/1 63/5/1
f 68/5/1 64/5/1 67/5/1
f 69/10/1 66/10/1 65/10/1
f 70/10/1 66/10/1 69/10/1
f 71/10/1 68/10/1 67/10/1
f 72/10/1 68/10/1 71/10/1
f 73/5/1 70/5/1 69/5/1
f 74/5/1 70/5/1 73/5/1
f 75/5/1 72/5/1 71/5/1
f 76/5/1 72/5/1 75/5/1
f 77/10/1 74/10/1 73/10/1
f 78/10/1 74/10/1 77/10/1
f 79/10/1 76/10/1 75/10/1
f 80/10/1 76/10/1 79/10/1
f 81/5/1 78/5/1 77/5/1
f 82/5/1 78/5/1 81/5/1
f 83/5/1 80/5/1 79/5/1
f 84/5/1 80/5/1 83/5/1
f 85/10/1 82/10/1 81/10/1
f 86/10/1 82/10/1 85/10/1
f 87/10/1 84/10/1 83/10/1
f 88/10/1 84/10/1 87/10/1
f 89/9/1 86/9/1 85/9/1
f 90/9/1 86/9/1 89/9/1
f 91/9/1 88/9/1 87/9/1
f 92/9/1 88/9/1 91/9/1
f 95/2/1 94/2/1 93/2/1
f 96/2/1 94/2/1 95/2/1
f 99/2/1 98/2/1 97/2/1
f 100/2/1 98/2/1 99/2/1
f 105/2/1 102/2/1 101/2/1
f 106/2/1 102/2/1 105/2/1
f 107/2/1 104/2/1 103/2/1
f 108/2/1 104/2/1 107/2/1
f 109/2/2 110/2/2 113/2/2
f 113/2/2 110/2/2 114/2/2
f 111/2/2 112/2/2 115/2/2
f 115/2/2 112/2/2 116/2/2
f 117/2/2 118/2/2 119/2/2
f 119/2/2 118/2/2 120/2/2
f 121/10/2 122/10/2 125/10/2
f 125/10/2 122/10/2 126/10/2
f 123/10/2 124/10/2 127/10/2
f 127/10/2 124/10/2 128/10/2
f 125/5/2 126/5/2 129/5/2
f 129/5/2 126/5/2 130/5/2
f 127/5/2 128/5/2 131/5/2
f 131/5/2 128/5/2 132/5/2
f 129/10/2 130/10/2 133/10/2
f 133/10/2 130/10/2 134/10/2
f 131/10/2 132/10/2 135/10/2
f 135/10/2 132/10/2 136/10/2
f 133/5/2 134/5/2 137/5/2
f 137/5/2 134/5/2 138/5/2
f 135/5/2 136/5/2 139/5/2
f 139/5/2 136/5/2 140/5/2
f 137/10/2 138/10/2 141/10/2
f 141/10/2 138/10/2 142/10/2
f 139/10/2 140/10/2 143/10/2
f 143/10/2 140/10/2 144/10/2
f 141/5/2 142/5/2 145/5/2
f 145/5/2 142/5/2 146/5/2
f 143/5/2 144/5/2 147/5/2
f 147/5/2 144/5/2 148/5/2
f 145/10/2 146/10/2 149/10/2
f 149/10/2 146/10/2 150/10/2
f 147/10/2 148/10/2 151/10/2
f 151/10/2 148/10/2 152/10/2
f 149/9/2 150/9/2 153/9/2
f 153/9/2 150/9/2 154/9/2
f 151/9/2 152/9/2 155/9/2
f 155/9/2 152/9/2 156/9/2
f 157/2/2 158/2/2 159/2/2
f 159/2/2 158/2/2 160/2/2
f 161/11/2 162/11/2 163/11/2
f 163/11/2 162/11/2 164/11/2
f 165/10/2 166/10/2 167/10/2
f 167/10/2 166/10/2 168/10/2
f 167/5/2 168/5/2 169/5/2
f 169/5/2 168/5/2 170/5/2
f 169/10/2 170/10/2 171/10/2
f 171/10/2 170/10/2 172/10/2
f 171/5/2 172/5/2 173/5/2
f 173/5/2 172/5/2 174/5/2
f 173/10/2 174/10/2 175/10/2
f 175/10/2 174/10/2 176/10/2
f 175/5/2 176/5/2 177/5/2
f 177/5/2 176/5/2 178/5/2
f 177/10/2 178/10/2 179/10/2
f 179/10/2 178/10/2 180/10/2
f 182/2/2 183/2/2 185/2/2
f 183/2/2 184/2/2 185/2/2
f 181/2/2 182/2/2 185/2/2
f 185/2/2 184/2/2 186/2/2
f 187/5/2 188/5/2 189/5/2
f 189/5/2 188/5/2 190/5/2
f 191/7/2 192/7/2 195/7/2
f 195/7/2 192/7/2 196/7/2
f 193/7/2 194/7/2 197/7/2
f 197/7/2 194/7/2 198/7/2
f 196/11/2 197/11/2 199/11/2
f 199/11/2 197/11/2 200/11/2
f 201/9/2 202/9/2 204/9/2
f 204/9/2 202/9/2 205/9/2
f 203/8/2 204/8/2 207/8/2
f 207/8/2 204/8/2 208/8/2
f 205/8/2 206/8/2 209/8/2
f 209/8/2 206/8/2 210/8/2
f 208/11/2 209/11/2 211/11/2
f 211/11/2 209/11/2 212/11/2
f 213/11/2 214/11/2 215/11/2
f 215/11/2 214/11/2 216/11/2
f 219/8/3 218/8/3 217/8/3
f 224/5/3 222/5/3 221/5/3
f 227/5/3 222/5/3 224/5/3
f 235/8/3 219/8/3 217/8/3
f 236/2/3 226/2/3 225/2/3
f 238/2/3 236/2/3 225/2/3
f 238/2/3 237/2/3 236/2/3
f 239/2/3 237/2/3 238/2/3
f 240/2/3 237/2/3 239/2/3
f 243/2/3 241/2/3 240/2/3
f 243/2/3 240/2/3 239/2/3
f 244/2/3 241/2/3 243/2/3
f 245/2/3 241/2/3 244/2/3
f 246/5/3 227/5/3 224/5/3
f 246/10/3 228/10/3 227/10/3
f 247/5/3 229/5/3 228/5/3
f 247/10/3 228/10/3 246/10/3
f 248/10/3 230/10/3 229/10/3
f 248/5/3 229/5/3 247/5/3
f 249/5/3 231/5/3 230/5/3
f 249/10/3 230/10/3 248/10/3
f 250/10/3 232/10/3 231/10/3
f 250/5/3 231/5/3 249/5/3
f 251/5/3 233/5/3 232/5/3
f 251/10/3 232/10/3 250/10/3
f 252/10/3 234/10/3 233/10/3
f 252/5/3 233/5/3 251/5/3
f 253/9/3 235/9/3 234/9/3
f 253/10/3 234/10/3 252/10/3
f 254/8/3 219/8/3 235/8/3
f 254/9/3 235/9/3 253/9/3
f 255/2/3 244/2/3 243/2/3
f 255/2/3 243/2/3 242/2/3
f 256/2/3 244/2/3 255/2/3
f 257/11/3 224/11/3 223/11/3
f 258/5/3 246/5/3 224/5/3
f 258/11/3 224/11/3 257/11/3
f 259/2/3 255/2/3 242/2/3
f 260/2/3 255/2/3 259/2/3
f 261/5/3 246/5/3 258/5/3
f 262/5/3 246/5/3 261/5/3
f 263/7/3 220/7/3 219/7/3
f 263/8/3 219/8/3 254/8/3
f 264/7/3 220/7/3 263/7/3
f 265/8/3 263/8/3 254/8/3
f 266/8/3 263/8/3 265/8/3
f 270/11/3 268/11/3 267/11/3
f 271/11/3 268/11/3 270/11/3
f 273/11/3 272/11/3 271/11/3
f 274/11/3 272/11/3 273/11/3
f 276/11/3 275/11/3 274/11/3
f 277/11/3 275/11/3 276/11/3
f 285/9/3 270/9/3 269/9/3
f 286/6/3 277/6/3 276/6/3
f 287/10/3 279/10/3 278/10/3
f 288/5/3 280/5/3 279/5/3
f 288/10/3 279/10/3 287/10/3
f 289/10/3 281/10/3 280/10/3
f 289/5/3 280/5/3 288/5/3
f 290/5/3 282/5/3 281/5/3
f 290/10/3 281/10/3 289/10/3
f 291/10/3 283/10/3 282/10/3
f 291/5/3 282/5/3 290/5/3
f 292/5/3 284/5/3 283/5/3
f 292/10/3 283/10/3 291/10/3
f 293/10/3 285/10/3 284/10/3
f 293/5/3 284/5/3 292/5/3
f 294/9/3 270/9/3 285/9/3
f 294/10/3 285/10/3 293/10/3
f 295/9/3 270/9/3 294/9/3
f 296/6/3 286/6/3 276/6/3
f 298/6/3 296/6/3 276/6/3
f 298/1/3 297/1/3 296/1/3
f 299/1/3 297/1/3 298/1/3
f 309/10/3 301/10/3 300/10/3
f 310/5/3 302/5/3 301/5/3
f 310/10/3 301/10/3 309/10/3
f 311/10/3 303/10/3 302/10/3
f 311/5/3 302/5/3 310/5/3
f 312/5/3 304/5/3 303/5/3
f 312/10/3 303/10/3 311/10/3
f 313/10/3 305/10/3 304/10/3
f 313/5/3 304/5/3 312/5/3
f 314/5/3 306/5/3 305/5/3
f 314/10/3 305/10/3 313/10/3
f 315/10/3 307/10/3 306/10/3
f 315/5/3 306/5/3 314/5/3
f 316/9/3 308/9/3 307/9/3
f 316/10/3 307/10/3 315/10/3
f 317/6/3 298/6/3 276/6/3
f 318/6/3 317/6/3 276/6/3
f 319/6/3 317/6/3 318/6/3
f 321/11/3 319/11/3 318/11/3
f 322/11/3 319/11/3 321/11/3
f 323/9/3 308/9/3 316/9/3
f 324/9/3 308/9/3 323/9/3
f 325/11/3 321/11/3 320/11/3
f 326/11/3 321/11/3 325/11/3
f 327/11/3 325/11/3 324/11/3
f 328/11/3 325/11/3 327/11/3
f 329/11/4 330/11/4 332/11/4
f 332/11/4 330/11/4 333/11/4
f 333/11/4 334/11/4 335/11/4
f 335/11/4 334/11/4 336/11/4
f 336/11/4 337/11/4 338/11/4
f 338/11/4 337/11/4 339/11/4
f 331/9/4 332/9/4 347/9/4
f 338/6/4 339/6/4 348/6/4
f 340/10/4 341/10/4 349/10/4
f 341/5/4 342/5/4 350/5/4
f 349/10/4 341/10/4 350/10/4
f 342/10/4 343/10/4 351/10/4
f 350/5/4 342/5/4 351/5/4
f 343/5/4 344/5/4 352/5/4
f 351/10/4 343/10/4 352/10/4
f 344/10/4 345/10/4 353/10/4
f 352/5/4 344/5/4 353/5/4
f 345/5/4 346/5/4 354/5/4
f 353/10/4 345/10/4 354/10/4
f 346/10/4 347/10/4 355/10/4
f 354/5/4 346/5/4 355/5/4
f 347/9/4 332/9/4 356/9/4
f 355/10/4 347/10/4 356/10/4
f 356/9/4 332/9/4 357/9/4
f 338/6/4 348/6/4 358/6/4
f 338/6/4 358/6/4 360/6/4
f 358/1/4 359/1/4 360/1/4
f 360/1/4 359/1/4 361/1/4
f 362/10/4 363/10/4 371/10/4
f 363/5/4 364/5/4 372/5/4
f 371/10/4 363/10/4 372/10/4
f 364/10/4 365/10/4 373/10/4
f 372/5/4 364/5/4 373/5/4
f 365/5/4 366/5/4 374/5/4
f 373/10/4 365/10/4 374/10/4
f 366/10/4 367/10/4 375/10/4
f 374/5/4 366/5/4 375/5/4
f 367/5/4 368/5/4 376/5/4
f 375/10/4 367/10/4 376/10/4
f 368/10/4 369/10/4 377/10/4
f 376/5/4 368/5/4 377/5/4
f 369/9/4 370/9/4 378/9/4
f 377/10/4 369/10/4 378/10/4
f 338/6/4 360/6/4 379/6/4
f 338/6/4 379/6/4 380/6/4
f 380/6/4 379/6/4 381/6/4
f 380/11/4 381/11/4 383/11/4
f 383/11/4 381/11/4 384/11/4
f 378/9/4 370/9/4 385/9/4
f 385/9/4 370/9/4 386/9/4
f 382/11/4 383/11/4 387/11/4
f 387/11/4 383/11/4 388/11/4
f 386/11/4 387/11/4 389/11/4
f 389/11/4 387/11/4 390/11/4
f 391/8/4 392/8/4 393/8/4
f 395/5/4 396/5/4 398/5/4
f 398/5/4 396/5/4 401/5/4
f 391/8/4 393/8/4 409/8/4
f 399/2/4 400/2/4 410/2/4
f 399/2/4 410/2/4 412/2/4
f 410/2/4 411/2/4 412/2/4
f 412/2/4 411/2/4 413/2/4
f 413/2/4 411/2/4 414/2/4
f 414/2/4 415/2/4 417/2/4
f 413/2/4 414/2/4 417/2/4
f 417/2/4 415/2/4 418/2/4
f 418/2/4 415/2/4 419/2/4
f 398/5/4 401/5/4 420/5/4
f 401/10/4 402/10/4 420/10/4
f 402/5/4 403/5/4 421/5/4
f 420/10/4 402/10/4 421/10/4
f 403/10/4 404/10/4 422/10/4
f 421/5/4 403/5/4 422/5/4
f 404/5/4 405/5/4 423/5/4
f 422/10/4 404/10/4 423/10/4
f 405/10/4 406/10/4 424/10/4
f 423/5/4 405/5/4 424/5/4
f 406/5/4 407/5/4 425/5/4
f 424/10/4 406/10/4 425/10/4
f 407/10/4 408/10/4 426/10/4
f 425/5/4 407/5/4 426/5/4
f 408/9/4 409/9/4 427/9/4
f 426/10/4 408/10/4 427/10/4
f 409/8/4 393/8/4 428/8/4
f 427/9/4 409/9/4 428/9/4
f 417/2/4 418/2/4 429/2/4
f 416/2/4 417/2/4 429/2/4
f 429/2/4 418/2/4 430/2/4
f 397/11/4 398/11/4 431/11/4
f 398/5/4 420/5/4 432/5/4
f 431/11/4 398/11/4 432/11/4
f 416/2/4 429/2/4 433/2/4
f 433/2/4 429/2/4 434/2/4
f 432/5/4 420/5/4 435/5/4
f 435/5/4 420/5/4 436/5/4
f 393/7/4 394/7/4 437/7/4
f 428/8/4 393/8/4 437/8/4
f 437/7/4 394/7/4 438/7/4
f 428/8/4 437/8/4 439/8/4
f 439/8/4 437/8/4 440/8/4
f 443/11/5 442/11/5 441/11/5
f 444/11/5 442/11/5 443/11/5
f 449/5/5 446/5/5 445/5/5
f 450/5/5 446/5/5 449/5/5
f 451/5/5 448/5/5 447/5/5
f 452/5/5 448/5/5 451/5/5
f 457/9/5 454/9/5 453/9/5
f 458/9/5 454/9/5 457/9/5
f 459/9/5 456/9/5 455/9/5
f 460/9/5 456/9/5 459/9/5
f 466/8/5 462/8/5 461/8/5
f 467/8/5 462/8/5 466/8/5
f 468/8/5 464/8/5 463/8/5
f 469/8/5 464/8/5 468/8/5
f 471/11/5 466/11/5 465/11/5
f 472/11/5 466/11/5 471/11/5
f 475/11/5 470/11/5 469/11/5
f 476/11/5 470/11/5 475/11/5
f 477/8/5 473/8/5 472/8/5
f 478/8/5 473/8/5 477/8/5
f 479/8/5 475/8/5 474/8/5
f 480/8/5 475/8/5 479/8/5
f 485/2/5 482/2/5 481/2/5
f 486/2/5 482/2/5 485/2/5
f 487/2/5 484/2/5 483/2/5
f 488/2/5 484/2/5 487/2/5
f 493/2/5 490/2/5 489/2/5
f 494/2/5 490/2/5 493/2/5
f 495/2/5 492/2/5 491/2/5
f 496/2/5 492/2/5 495/2/5
f 499/2/5 498/2/5 497/2/5
f 500/2/5 498/2/5 499/2/5
f 503/2/5 502/2/5 501/2/5
f 504/2/5 502/2/5 503/2/5
f 505/5/6 506/5/6 509/5/6
f 509/5/6 506/5/6 510/5/6
f 507/5/6 508/5/6 511/5/6
f 511/5/6 508/5/6 512/5/6
f 505/5/6 509/5/6 513/5/6
f 512/5/6 508/5/6 516/5/6
f 513/5/6 514/5/6 517/5/6
f 505/5/6 513/5/6 517/5/6
f 517/5/6 514/5/6 518/5/6
f 515/5/6 516/5/6 519/5/6
f 516/5/6 508/5/6 520/5/6
f 519/5/6 516/5/6 520/5/6
f 521/8/6 522/8/6 526/8/6
f 526/8/6 522/8/6 527/8/6
f 523/8/6 524/8/6 528/8/6
f 528/8/6 524/8/6 529/8/6
f 525/11/6 526/11/6 531/11/6
f 531/11/6 526/11/6 532/11/6
f 529/11/6 530/11/6 535/11/6
f 535/11/6 530/11/6 536/11/6
f 532/8/6 533/8/6 537/8/6
f 537/8/6 533/8/6 538/8/6
f 534/8/6 535/8/6 539/8/6
f 539/8/6 535/8/6 540/8/6
f 541/7/6 542/7/6 544/7/6
f 544/7/6 542/7/6 545/7/6
f 545/7/6 542/7/6 546/7/6
f 546/7/6 542/7/6 547/7/6
f 543/11/6 544/11/6 549/11/6
f 549/11/6 544/11/6 550/11/6
f 547/11/6 548/11/6 553/11/6
f 553/11/6 548/11/6 554/11/6
f 551/7/6 552/7/6 555/7/6
f 552/7/6 553/7/6 555/7/6
f 550/7/6 551/7/6 555/7/6
f 555/7/6 553/7/6 556/7/6
f 557/11/6 558/11/6 563/11/6
f 558/6/6 559/6/6 564/6/6
f 563/11/6 558/11/6 564/11/6
f 564/6/6 559/6/6 565/6/6
f 560/6/6 561/6/6 566/6/6
f 561/11/6 562/11/6 567/11/6
f 566/6/6 561/6/6 567/6/6
f 567/11/6 562/11/6 568/11/6
f 569/2/6 570/2/6 573/2/6
f 573/2/6 570/2/6 574/2/6
f 571/2/6 572/2/6 575/2/6
f 575/2/6 572/2/6 576/2/6
f 577/2/6 578/2/6 581/2/6
f 581/2/6 578/2/6 582/2/6
f 579/2/6 580/2/6 583/2/6
f 583/2/6 580/2/6 584/2/6
f 585/2/6 586/2/6 587/2/6
f 587/2/6 586/2/6 588/2/6
